<svg width="25" height="25" viewBox="0 0 25 25" fill="none" xmlns="http://www.w3.org/2000/svg">
<path fill-rule="evenodd" clip-rule="evenodd" d="M15.397 3.3421C15.811 3.3421 16.147 3.6781 16.147 4.0921C16.147 4.5061 15.811 4.8421 15.397 4.8421H8.129C5.621 4.8421 4 6.5661 4 9.2361V17.3181C4 20.0231 5.582 21.7031 8.129 21.7031H16.733C19.241 21.7031 20.862 19.9821 20.862 17.3181V10.2791C20.862 9.8651 21.198 9.5291 21.612 9.5291C22.026 9.5291 22.362 9.8651 22.362 10.2791V17.3181C22.362 20.8381 20.1 23.2031 16.733 23.2031H8.129C4.762 23.2031 2.5 20.8381 2.5 17.3181V9.2361C2.5 5.7111 4.762 3.3421 8.129 3.3421H15.397ZM17.5124 10.1719C17.8404 10.4259 17.9004 10.8969 17.6464 11.2239L14.7164 15.0039C14.5944 15.1619 14.4144 15.2649 14.2164 15.2889C14.0164 15.3159 13.8184 15.2579 13.6604 15.1349L10.8424 12.9209L8.3114 16.2099C8.1634 16.4019 7.9414 16.5029 7.7164 16.5029C7.5564 16.5029 7.3954 16.4519 7.2594 16.3479C6.9314 16.0949 6.8694 15.6239 7.1224 15.2959L10.1154 11.4059C10.2374 11.2469 10.4184 11.1439 10.6164 11.1189C10.8184 11.0929 11.0164 11.1489 11.1734 11.2739L13.9934 13.4889L16.4604 10.3059C16.7144 9.9769 17.1844 9.9159 17.5124 10.1719ZM20.4674 2.5C21.9414 2.5 23.1394 3.698 23.1394 5.172C23.1394 6.646 21.9414 7.845 20.4674 7.845C18.9944 7.845 17.7954 6.646 17.7954 5.172C17.7954 3.698 18.9944 2.5 20.4674 2.5ZM20.4674 4C19.8214 4 19.2954 4.525 19.2954 5.172C19.2954 5.818 19.8214 6.345 20.4674 6.345C21.1134 6.345 21.6394 5.818 21.6394 5.172C21.6394 4.525 21.1134 4 20.4674 4Z" fill="#FD026F"/>
</svg>
