<svg width="169" height="196" viewBox="0 0 169 196" fill="none" xmlns="http://www.w3.org/2000/svg">
<path d="M251.717 161.97C249.579 161.448 240.603 157.903 231.713 154.087C207.19 143.48 208.205 145.538 181.321 150.346C171.972 152.038 170.168 156.055 160.361 163.254C136.662 180.66 162.286 193.055 186.896 186.408C207.361 180.865 217.522 180.82 239.634 186.292C260.055 191.356 267.195 190.88 272.681 184.178C278.655 176.881 268.757 166.218 251.717 161.97ZM241.342 180.249C218.58 174.252 201.062 172.896 186.959 176.436C164.752 181.963 158.207 182.209 161.372 177.188C162.937 174.617 179.59 163.673 183.48 162.548L196.532 158.808C214.758 153.527 213.778 153.57 231.304 161.182C239.651 164.836 248.724 168.429 251.344 169.186C268.404 174.069 257.91 184.579 241.342 180.249Z" fill="#FFE1EE"/>
<path d="M377.29 236.455C376.257 227.823 375.281 214.011 375.055 205.877C373.552 157.423 356.892 141.168 293.134 126.219C267.65 120.248 265.071 118.782 238.009 92.9742C203.277 59.8822 133.371 58.7086 118.725 96.0559C109.465 119.568 109.805 119.317 86.8789 135.121C54.7545 157.378 45.9813 169.249 43.6225 193.731C36.5816 267.297 128.869 309.395 199.805 265.12C221.847 251.386 228.398 248.33 240.144 246.349C260.802 242.881 265.518 244.869 273.856 261.231C285.67 284.394 302.824 297.242 326.582 300.704C363.126 306.025 382.612 281.563 377.29 236.455ZM289.145 263.166C270.921 228.541 234.108 225.692 187.53 255.382C159.012 273.564 149.475 276.309 122.659 274.274C76.8024 270.765 49.3085 229.326 62.9872 184.421C68.1262 167.756 79.0119 156.603 109.45 137.065C124.219 127.598 126.728 124.863 131.338 113.461C138.356 96.1496 139.468 94.2962 145.705 89.3156C172.817 67.7393 204.958 74.9771 233.238 101.275C258.26 124.629 265.916 128.468 303.647 137.286C345.617 147.026 356.5 158.795 357.834 195.914C358.428 212.667 359.121 221.549 361.036 236.028C368.68 294.46 315.996 314.295 289.145 263.166Z" fill="#FFE1EE"/>
<path d="M322.63 194.892C310.101 168.15 322.189 161.959 278.687 143.866C258.155 135.31 264.277 142.672 224.004 126.57C194.699 114.88 167.819 107.812 150.019 129.555C144.96 135.735 141.856 138.702 137.082 141.896C101.428 165.661 91.2437 206.956 117.736 219.775C134.967 228.076 150.374 226.734 180.622 214.189C198.996 206.585 218.491 203.382 232.068 206.254C234.109 206.728 245.305 211.356 256.931 216.61C290.557 231.762 303.881 232.634 320.347 220.765C329.169 214.44 329.622 209.765 322.63 194.892ZM254.125 210.97C221.327 194.971 206.073 195.136 169.015 211.549C103.451 240.522 85.9786 188.655 148.555 150.305C157.748 144.683 158.55 144.032 162.691 137.82C173.669 121.606 191.731 121.144 229.363 135.853C250.647 144.151 256.568 145.164 270.978 148.337C278.563 149.954 289.865 154.945 294.921 158.662C299.653 162.116 301.506 178.649 309.417 195.533C322.961 224.333 296.726 231.646 254.125 210.97Z" fill="#FFE1EE"/>
</svg>
