<svg width="137" height="207" viewBox="0 0 137 207" fill="none" xmlns="http://www.w3.org/2000/svg">
<path fill-rule="evenodd" clip-rule="evenodd" d="M183.949 296.478C184.143 294.063 175.542 275.011 170.101 265.393C159.866 247.357 140.072 235.712 94.2339 220.495C66.6794 211.334 55.9786 206.696 45.5035 199.24C0.842314 167.644 -1.18544 129.742 40.9988 112.192L45.3301 110.379L44.8656 117.025C42.4037 154.501 82.2373 184.832 121.177 174.921C169.827 162.615 133.195 99.0529 73.8266 92.6094L69.6055 92.2043C73.8992 89.1726 80.1524 80.2211 110.406 68.3316C140.101 56.6674 139.119 57.129 149.977 48.0067C163.008 37.0331 167.16 26.4963 163.276 14.3027C156.897 -5.51721 143.526 -1.25481 152.75 10.0163C164.617 24.5371 149.567 40.4796 110.298 53.6723C80.2565 63.7559 66.066 72.3412 57.0834 85.867L52.3326 92.9133L47.3554 93.527C-14.3277 100.806 -14.8962 169.422 46.1673 211.176C62.3602 222.263 66.1436 223.917 105.279 236.841C148.158 251.078 159.355 258.794 170.244 282.148C177.718 298.41 183.511 304.477 183.949 296.478ZM61.4013 107.817C84.417 102.842 125.111 119.065 131.531 135.85C142.312 163.922 85.4047 175.634 63.5703 149.85C52.1647 136.311 50.8233 110.076 61.4013 107.817Z" fill="white"/>
</svg>
