<svg width="25" height="25" viewBox="0 0 25 25" fill="none" xmlns="http://www.w3.org/2000/svg">
<path fill-rule="evenodd" clip-rule="evenodd" d="M7.15741 2.50054C8.27441 2.51554 9.07041 3.35254 10.0774 4.41154C10.3264 4.67254 10.5954 4.95754 10.8964 5.25754C12.3554 6.71754 11.9404 7.90854 11.6054 8.86454C11.2414 9.90754 10.9264 10.8075 12.8124 12.6935C14.6984 14.5795 15.5974 14.2645 16.6394 13.8975C17.5964 13.5635 18.7844 13.1455 20.2464 14.6055C20.5434 14.9025 20.8234 15.1685 21.0834 15.4155C22.1464 16.4275 22.9864 17.2265 23.0006 18.3465C23.0114 19.3005 22.4314 20.2745 20.9994 21.7065L20.3654 21.2765L20.9024 21.7995C20.5854 22.1245 19.7424 22.9905 18.0914 23.0005H18.0614C15.5694 23.0005 12.3204 21.0165 8.40441 17.1015C4.47241 13.1705 2.48541 9.91154 2.50033 7.41454C2.50941 5.76454 3.37441 4.91954 3.69941 4.60254L3.72715 4.57224L3.79441 4.50454C5.22941 3.06954 6.21541 2.47954 7.15741 2.50054ZM7.13841 4.00054H7.13041C6.68135 4.00054 5.99938 4.45054 5.04824 5.37444L4.85724 5.562L4.85941 5.56154C4.85941 5.56154 4.84309 5.58026 4.81528 5.60863L4.74841 5.67554C4.50641 5.91054 4.00541 6.39954 4.00036 7.42254C3.99241 8.85354 4.93341 11.5105 9.46441 16.0405C13.9734 20.5485 16.6264 21.5005 18.0614 21.5005H18.0824C19.1054 21.4945 19.5934 20.9935 19.8284 20.7525C19.8994 20.6795 19.9574 20.6245 19.9984 20.5915C20.9954 19.5885 21.5054 18.8435 21.5004 18.3645C21.4944 17.8765 20.8874 17.3005 20.0484 16.5015C19.7814 16.2485 19.4914 15.9715 19.1854 15.6655C18.3914 14.8745 18.0004 15.0095 17.1354 15.3135C15.9404 15.7325 14.3034 16.3065 11.7524 13.7535C9.20041 11.2025 9.77241 9.56554 10.1894 8.36954C10.4914 7.50554 10.6294 7.11254 9.83641 6.31854C9.52641 6.00854 9.24741 5.71454 8.99041 5.44454C8.19641 4.61054 7.62341 4.00754 7.13841 4.00054ZM15.7465 6.05804C17.8275 6.46204 19.4345 8.06804 19.8395 10.15C19.9185 10.558 19.6535 10.951 19.2475 11.03C19.1985 11.039 19.1505 11.044 19.1025 11.044C18.7505 11.044 18.4375 10.796 18.3675 10.438C18.0795 8.95804 16.9385 7.81704 15.4605 7.53004C15.0535 7.45104 14.7885 7.05804 14.8675 6.65104C14.9465 6.24404 15.3465 5.97804 15.7465 6.05804ZM15.6866 2.50624C19.7646 2.95924 22.9316 6.12224 23.3886 10.1992C23.4346 10.6112 23.1386 10.9822 22.7276 11.0282C22.6996 11.0312 22.6706 11.0332 22.6426 11.0332C22.2656 11.0332 21.9416 10.7502 21.8986 10.3672C21.5196 6.99124 18.8976 4.37124 15.5206 3.99624C15.1096 3.95024 14.8126 3.58024 14.8586 3.16824C14.9036 2.75724 15.2706 2.45424 15.6866 2.50624Z" fill="#FD026F"/>
</svg>
