<svg width="25" height="25" viewBox="0 0 25 25" fill="none" xmlns="http://www.w3.org/2000/svg">
<path fill-rule="evenodd" clip-rule="evenodd" d="M9.39269 6.79011C9.45935 6.32468 9.60158 6.06798 9.80307 5.89527C10.1384 5.60786 10.8628 5.3499 12.4999 5.3499C14.137 5.3499 14.8614 5.60786 15.1967 5.89527C15.3985 6.06826 15.5409 6.32549 15.6074 6.79231C14.7012 6.68934 13.6685 6.6499 12.4999 6.6499C11.3299 6.6499 10.2977 6.68947 9.39269 6.79011ZM7.65879 7.10308C7.70273 6.17755 7.92661 5.26464 8.69673 4.60453C9.52808 3.89195 10.8036 3.6499 12.4999 3.6499C14.1962 3.6499 15.4717 3.89195 16.3031 4.60453C17.0762 5.2672 17.2988 6.18464 17.3415 7.11385C18.2271 7.36083 18.9775 7.7341 19.5803 8.2976C20.7613 9.40148 21.1877 11.0593 21.3091 13.2388C21.3356 13.3211 21.3499 13.4088 21.3499 13.4999C21.3499 13.6576 21.3468 13.8168 21.3386 13.9765C21.3465 14.2792 21.3499 14.591 21.3499 14.9117C21.3499 17.3465 21.032 19.3445 19.5662 20.654C18.1392 21.9289 15.8373 22.3499 12.4999 22.3499C10.8151 22.3499 9.41591 22.2679 8.27115 22.0395C7.12212 21.8104 6.17013 21.4226 5.43458 20.7675C3.95516 19.4499 3.6499 17.3221 3.6499 14.4999C3.6499 14.2797 3.65176 14.0638 3.65589 13.8521C3.65164 13.7342 3.6499 13.6166 3.6499 13.4999C3.6499 13.433 3.65763 13.3679 3.67226 13.3054C3.76444 11.072 4.17174 9.35705 5.43458 8.23234C6.03519 7.69742 6.78011 7.34072 7.65879 7.10308ZM5.3569 13.8409C5.41084 11.4191 5.77958 10.2016 6.56523 9.50184C6.99635 9.11787 7.62768 8.82209 8.60366 8.62743C9.58389 8.43192 10.8514 8.3499 12.4999 8.3499C14.1492 8.3499 15.4141 8.43206 16.3913 8.63288C17.3622 8.8324 17.9891 9.13726 18.4195 9.53952C19.1916 10.2613 19.5645 11.5151 19.6367 13.9589C19.6136 14.3252 19.5585 14.6212 19.4612 14.8694C19.3369 15.1867 19.1281 15.4657 18.7261 15.7151C17.8433 16.2629 16.0691 16.6499 12.5059 16.6499C8.94313 16.6499 7.16513 16.263 6.27886 15.7146C5.87493 15.4647 5.66491 15.185 5.53987 14.8678C5.43186 14.5939 5.37542 14.2616 5.3569 13.8409ZM19.4825 17.2429C19.3013 18.2422 18.9646 18.9118 18.4336 19.3862C17.5273 20.1959 15.8292 20.6499 12.4999 20.6499C10.8514 20.6499 9.58389 20.5679 8.60366 20.3724C7.62768 20.1777 6.99635 19.8819 6.56523 19.498C6.0476 19.037 5.71095 18.3512 5.52607 17.2443C6.87561 18.0115 9.0683 18.3499 12.5059 18.3499C15.9446 18.3499 18.1356 18.0113 19.4825 17.2429ZM9.6499 14.4999C9.6499 14.0305 10.0305 13.6499 10.4999 13.6499H14.4999C14.9693 13.6499 15.3499 14.0305 15.3499 14.4999C15.3499 14.9693 14.9693 15.3499 14.4999 15.3499L10.4999 15.3499C10.0305 15.3499 9.6499 14.9693 9.6499 14.4999Z" fill="#FD026F"/>
</svg>
