<svg width="172" height="180" viewBox="0 0 172 180" fill="none" xmlns="http://www.w3.org/2000/svg">
<path d="M193.85 -32.0305C192.2 -32.5522 185.271 -36.0974 178.408 -39.9129C159.479 -50.5201 160.263 -48.4621 139.511 -43.6539C132.295 -41.9624 130.902 -37.945 123.332 -30.7465C105.038 -13.34 124.818 -0.945421 143.814 -7.59237C159.611 -13.1348 167.454 -13.1798 184.523 -7.70771C200.286 -2.64364 205.798 -3.12039 210.032 -9.82191C214.644 -17.1191 207.003 -27.7823 193.85 -32.0305ZM185.841 -13.7511C168.271 -19.7485 154.749 -21.1043 143.863 -17.5636C126.721 -12.0372 121.669 -11.7913 124.112 -16.8118C125.32 -19.3828 138.175 -30.3274 141.178 -31.4516L151.252 -35.1924C165.321 -40.4727 164.565 -40.4298 178.093 -32.8185C184.536 -29.1638 191.539 -25.5712 193.562 -24.8142C206.73 -19.931 198.63 -9.42072 185.841 -13.7511Z" fill="#FFE1EE"/>
<path d="M290.78 42.4546C289.983 33.8234 289.229 20.0106 289.055 11.8774C287.895 -36.5772 275.035 -52.8316 225.82 -67.7812C206.149 -73.7517 204.158 -75.2178 183.269 -101.026C156.459 -134.118 102.498 -135.291 91.1923 -97.9441C84.045 -74.432 84.3074 -74.6826 66.6103 -58.8791C41.8133 -36.6217 35.0412 -24.7509 33.2205 -0.269364C27.7856 73.2966 99.0225 115.395 153.779 71.1202C170.793 57.3861 175.85 54.3305 184.916 52.3494C200.862 48.8805 204.503 50.8686 210.939 67.2307C220.058 90.3939 233.299 103.242 251.639 106.703C279.847 112.025 294.889 87.5626 290.78 42.4546ZM222.741 69.1661C208.674 34.5406 180.257 31.6917 144.303 61.3819C122.29 79.5635 114.928 82.3095 94.2295 80.274C58.8322 76.7652 37.6096 35.3258 48.1682 -9.57875C52.135 -26.244 60.5377 -37.3972 84.0328 -56.9347C95.4333 -66.4017 97.3704 -69.1375 100.928 -80.5388C106.346 -97.8504 107.204 -99.7038 112.019 -104.684C132.947 -126.261 157.756 -119.023 179.586 -92.7248C198.9 -69.3709 204.81 -65.5324 233.935 -56.714C266.332 -46.9737 274.732 -35.2047 275.762 1.91436C276.221 18.6669 276.755 27.5489 278.233 42.0283C284.134 100.46 243.467 120.295 222.741 69.1661Z" fill="#FFE1EE"/>
<path d="M248.588 0.892416C238.917 -25.8496 248.247 -32.0406 214.668 -50.1339C198.819 -58.6904 203.545 -51.3282 172.458 -67.4298C149.837 -79.1197 129.088 -86.1879 115.349 -64.4452C111.443 -58.2649 109.047 -55.2981 105.362 -52.1045C77.8406 -28.3387 69.9795 12.9563 90.429 25.7745C103.73 34.0756 115.623 32.7343 138.971 20.1894C153.154 12.5848 168.202 9.38204 178.683 12.2538C180.258 12.7284 188.9 17.3556 197.875 22.6101C223.831 37.7619 234.115 38.6344 246.826 26.765C253.636 20.4404 253.985 15.7648 248.588 0.892416ZM195.708 16.9695C170.391 0.971311 158.617 1.13645 130.011 17.5487C79.4021 46.522 65.9154 -5.34506 114.218 -43.6946C121.314 -49.3175 121.934 -49.9685 125.13 -56.1803C133.604 -72.3937 147.546 -72.8564 176.595 -58.1469C193.024 -49.8489 197.594 -48.8365 208.717 -45.6628C214.573 -44.0465 223.296 -39.0545 227.199 -35.3378C230.852 -31.8837 232.282 -15.3508 238.389 1.53253C248.843 30.3325 228.593 37.6457 195.708 16.9695Z" fill="#FFE1EE"/>
</svg>
