<svg width="92" height="87" viewBox="0 0 92 87" fill="none" xmlns="http://www.w3.org/2000/svg">
<path fill-rule="evenodd" clip-rule="evenodd" d="M10.2139 -13.2297C-0.357372 1.02897 -2.66808 23.6357 4.27679 44.2794C13.2932 70.9396 26.633 91.0473 31.9006 85.7655C32.2298 85.4354 30.6165 82.7289 28.0624 79.4136C24.0093 74.1644 17.1635 62.0695 18.2665 62.0722C18.4871 62.0727 19.9314 64.0617 21.4327 66.4368C45.5679 105.212 103.035 83.2908 112.147 31.9113C124.691 -38.4321 52.4983 -70.3749 10.2139 -13.2297ZM32.3119 -27.5157C34.7845 -29.3297 36.3356 -28.0022 31.6196 -22.7191C25.6976 -16.0049 17.2159 -2.95453 14.456 7.35219C12.7783 13.5803 9.24324 12.579 10.262 6.90084C12.7843 -6.71557 21.1025 -19.3804 32.3119 -27.5157ZM43.0869 -23.5737C49.5717 -28.0804 58.382 -30.8166 65.2227 -30.4691C116.915 -27.6412 111.058 66.9301 59.2141 66.8043C15.8642 66.8094 4.56291 3.30212 43.0869 -23.5737ZM55.3291 72.8064C66.9107 72.7242 78.5816 68.561 88.7456 60.9196C94.0748 56.9064 94.3514 57.0725 90.902 61.9727C67.7972 95.0078 37.9934 69.3449 37.8277 69.2894C40.5339 70.0129 46.1742 72.8945 55.3291 72.8064Z" fill="#FFE1EE"/>
</svg>
