<svg width="130" height="162" viewBox="0 0 130 162" fill="none" xmlns="http://www.w3.org/2000/svg">
<path d="M123.249 -37.9933C122.565 -36.404 118.341 -29.8662 113.856 -23.4218C101.401 -5.65385 103.527 -6.22652 106.227 14.9031C107.185 22.253 111.042 24.042 117.444 32.2973C132.925 52.2464 147.243 33.8121 142.538 14.2444C138.61 -2.02985 139.353 -9.83778 146.512 -26.2704C153.134 -41.4455 153.213 -46.9767 146.971 -51.8633C140.174 -57.1842 128.797 -50.6533 123.249 -37.9933ZM140.632 -28.1891C132.9 -11.3102 130.193 2.00753 132.622 13.1938C136.399 30.804 136.136 35.8557 131.386 32.9206C128.95 31.4606 119.352 17.571 118.535 14.4706L115.825 4.07122C111.984 -10.4568 111.951 -9.69979 120.883 -22.3955C125.166 -28.4388 129.444 -35.0456 130.4 -36.9816C136.581 -49.5933 146.225 -40.4781 140.632 -28.1891Z" fill="#FFE1EE"/>
<path d="M207.094 -126.952C198.427 -127.025 184.608 -127.663 176.498 -128.307C128.172 -132.02 110.708 -120.857 90.8909 -73.393C82.9747 -54.4211 81.316 -52.5875 53.5403 -34.3963C17.9227 -11.0459 11.3349 42.5243 47.3577 57.524C70.0329 66.9969 69.8099 66.7107 83.7559 85.9056C103.41 112.813 114.541 120.743 138.715 125.014C211.363 137.811 260.404 71.1626 221.854 12.2362C209.898 -6.07181 207.366 -11.41 206.305 -20.6297C204.456 -36.8433 206.799 -40.266 223.725 -45.0259C247.687 -51.7723 261.8 -63.656 267.087 -81.5546C275.215 -109.086 252.387 -126.509 207.094 -126.952ZM226.836 -56.5732C190.973 -46.0555 185.284 -18.069 211.213 20.6855C227.091 44.4136 229.084 52.0138 224.98 72.4036C217.933 107.269 174.571 124.222 130.954 109.207C114.772 103.586 104.519 94.1053 87.4405 68.7666C79.1665 56.4727 76.6392 54.2707 65.6529 49.5856C48.973 42.4568 47.2152 41.4164 42.7434 36.126C23.3784 13.1364 33.0716 -10.8206 61.4295 -29.8984C86.6053 -46.769 91.018 -52.2636 102.717 -80.3551C115.663 -111.61 128.216 -118.786 165.251 -116.082C181.964 -114.855 190.855 -114.495 205.41 -114.511C264.138 -114.513 279.788 -72.0589 226.836 -56.5732Z" fill="#FFE1EE"/>
<path d="M161.504 -89.1477C133.926 -82.2117 128.703 -92.1168 107.329 -60.5252C97.2235 -45.6159 105.023 -49.5778 85.8804 -20.2659C71.9774 1.06668 62.8608 21.0005 83.1134 36.8546C88.8702 41.3611 91.5813 44.0429 94.3886 48.0303C115.27 77.7998 155.566 89.7691 170.374 70.7106C179.969 58.3105 179.829 46.3434 169.693 21.8531C163.551 6.97794 161.876 -8.31581 165.786 -18.4547C166.417 -19.9746 171.889 -28.108 178.018 -36.5095C195.7 -60.8122 197.601 -70.9575 187.069 -84.7958C181.46 -92.2065 176.843 -93.0241 161.504 -89.1477ZM172.188 -34.9206C153.728 -11.3388 152.71 0.392661 166.166 30.502C189.909 83.7657 136.949 91.9743 103.646 40.0635C98.7638 32.4387 98.1784 31.7568 92.319 27.953C77.0388 17.893 77.9789 3.97509 95.5319 -23.4491C105.438 -38.9615 106.904 -43.4068 111.179 -54.1549C113.376 -59.8185 119.219 -67.9967 123.309 -71.5066C127.112 -74.7934 143.705 -74.5561 161.116 -78.9359C190.821 -86.4446 196.063 -65.5619 172.188 -34.9206Z" fill="#FFE1EE"/>
</svg>
