<svg width="141" height="156" viewBox="0 0 141 156" fill="none" xmlns="http://www.w3.org/2000/svg">
<path fill-rule="evenodd" clip-rule="evenodd" d="M151.52 71.5446C148.234 64.9364 141.762 76.2973 139.453 92.7137L138.278 101.2C125.468 76.3945 113.893 52.95 90.7036 37.2817C84.5849 33.1405 83.3581 31.8703 82.0077 28.2174C72.7888 3.17802 42.4337 -24.0872 15.8393 -31.3432C6.05327 -34.0466 1.88522 -33.024 0.971181 -27.7843C-0.0015839 -22.171 0.924713 -21.1499 11.2025 -17.1098C35.5905 -7.62777 67.935 17.063 68.8216 26.8356C68.8382 27.0182 67.2347 26.7033 65.2473 26.239C37.375 19.191 20.8194 47.0295 36.8016 74.1257C50.4733 97.1957 84.7733 85.2433 86.0127 57.0451C86.5643 44.7477 111.148 72.7212 126.918 103.612C130.413 110.478 133.273 116.48 133.315 116.937C133.364 117.485 128.298 113.708 122.18 108.554C103.049 92.7015 94.9509 89.2004 92.6581 95.5781C90.75 101.092 94.0363 106.687 102.801 112.43C118.954 123.028 130.079 133.345 141.001 147.548C153.926 164.424 155.565 148.805 151.062 138.992C144.516 125.036 144.163 93.5755 150.568 82.4968C152.424 79.4737 152.871 74.1846 151.52 71.5446ZM76.5393 60.8515C68.3692 75.9579 44.7209 71.5652 38.9376 53.765C35.3293 42.5818 57.4389 38.1819 75.3386 46.5951C79.4044 48.5283 79.9512 54.5564 76.5393 60.8515Z" fill="#FFE1EE"/>
</svg>
