<svg width="21" height="20" viewBox="0 0 21 20" fill="none" xmlns="http://www.w3.org/2000/svg">
<path d="M13.0001 15.202C13.1509 15.0513 13.2433 14.8417 13.243 14.6116L13.243 14.5103C13.243 14.0495 12.8699 13.6765 12.4097 13.6771L7.8568 13.6771L15.5586 5.97534C15.8838 5.65007 15.8838 5.1221 15.5585 4.79683C15.2333 4.47156 14.7053 4.47156 14.38 4.79683L6.67828 12.4986V7.94567C6.67828 7.48487 6.30525 7.11183 5.84504 7.11242H5.74376C5.28296 7.11242 4.90993 7.48546 4.91052 7.94567V14.6116C4.91052 15.0724 5.28355 15.4455 5.74376 15.4449L12.4097 15.4449C12.6401 15.4449 12.8493 15.3528 13.0001 15.202Z" fill="#FF3B30"/>
</svg>
