<svg width="28" height="298" viewBox="0 0 28 298" fill="none" xmlns="http://www.w3.org/2000/svg">
<path fill-rule="evenodd" clip-rule="evenodd" d="M27.2951 68.6665C30.8773 77.2895 14.5655 74.2373 -3.10435 62.9856L-12.2237 57.1516C0.823954 89.9828 13.6017 120.495 9.19672 155.897C8.04108 165.243 8.231 167.479 10.6015 171.793C26.8815 201.328 27.5907 253.221 12.2696 285.015C6.66391 296.742 2.19228 299.949 -3.59599 296.53C-9.79163 292.861 -9.99449 291.122 -5.25809 277.819C6.08099 246.339 9.50601 194.63 0.880906 185.736C0.719689 185.569 -0.321605 187.386 -1.54121 189.697C-18.1321 222.561 -58.6852 215.759 -71.2716 177.964C-81.9339 145.723 -41.7456 122.234 -13.6773 144.208C-1.42734 153.78 -7.65009 106.911 -24.0512 66.2021C-27.7053 57.165 -31.063 49.4531 -31.466 49.0375C-31.9497 48.5388 -32.5735 56.5636 -32.7575 66.7422C-33.5861 98.3526 -37.0137 109.096 -45.0478 106.081C-51.9317 103.402 -54.5422 95.6108 -52.7052 82.3775C-49.3337 57.9786 -49.9045 38.6925 -54.3705 16.4102C-59.7213 -10.0141 -43.3759 1.23219 -37.7413 13.6714C-29.8471 31.5 0.0144523 57.703 15.9995 60.5885C20.4521 61.2705 25.8962 65.1843 27.2951 68.6665ZM-25.2613 150.28C-46.5857 145.798 -62.1836 172.377 -49.9651 192.625C-42.2676 205.322 -19.53 187.465 -12.6013 163.164C-11.0488 157.627 -16.3691 152.141 -25.2613 150.28Z" fill="#FFDFEE"/>
</svg>
