<svg width="103" height="65" viewBox="0 0 103 65" fill="none" xmlns="http://www.w3.org/2000/svg">
<path fill-rule="evenodd" clip-rule="evenodd" d="M52.5934 2.60817C49.3632 4.0185 44.7251 6.42467 42.2404 7.91796C28.6572 15.9651 12.4239 17.6246 7.28878 11.5685C4.14145 7.83532 0 7.33707 0 10.6555C0 16.1309 8.44807 20.1959 19.8778 20.1959H27.7461L23.6049 26.0031C11.761 42.5123 10.6846 57.8601 20.9548 63.0866C28.8231 67.1516 40.17 64.912 62.3669 54.7079C68.6615 51.8043 69.1585 51.6377 68.5787 53.214C64.4375 64.0818 89.6157 65.7415 100.963 55.3714C105.684 51.0575 101.626 49.7301 94.6684 53.2974C81.9134 59.8513 76.861 54.542 85.806 43.9231C89.2018 39.941 85.806 34.0501 63.4435 44.5031C33.7095 58.3575 28.7401 59.7685 27.829 54.7079C25.3443 40.0239 40.7494 17.7899 59.9647 8.4154C76.6952 0.202324 64.1888 -2.53537 52.5934 2.60817Z" fill="#FFDFEE"/>
</svg>
