<svg width="102" height="105" viewBox="0 0 102 105" fill="none" xmlns="http://www.w3.org/2000/svg">
<path d="M49.1365 49.323C56.6438 47.0725 44.1164 17.2654 35.2524 16.2734C31.9968 15.8666 29.9371 18.1937 30.3169 21.8354C31.689 37.6573 41.277 51.6546 49.1365 49.323Z" fill="#DFDBF7"/>
<path d="M22.3608 68.9607C27.103 69.0037 41.2014 62.5108 40.9894 60.357C40.4431 55.4233 27.8829 57.9859 19.1938 64.6736C16.8175 66.5724 18.5984 68.9104 22.3608 68.9607Z" fill="#DFDBF7"/>
<path d="M68.1982 88.291C73.2734 85.7059 62.7563 62.7416 55.9282 61.4993C53.1425 61.0499 49.0056 63.3536 48.9819 65.4308C48.6511 78.8748 60.0779 92.4272 68.1982 88.291Z" fill="#DFDBF7"/>
<path d="M76.8879 44.923C84.662 41.6516 86.7218 39.3241 83.6489 37.1525C80.3005 34.8262 57.1255 43.3853 57.5039 46.831C57.8852 50.6686 64.9727 49.9105 76.8879 44.923Z" fill="#DFDBF7"/>
</svg>
