<svg width="99" height="271" viewBox="0 0 99 271" fill="none" xmlns="http://www.w3.org/2000/svg">
<path d="M74.5776 129.946C74.571 131.422 73.4404 137.962 72.073 144.517C68.2337 162.618 69.7108 161.459 78.8853 177.137C82.0915 182.584 85.7156 182.7 93.4956 187.039C112.305 197.523 117.384 178.276 107.157 164.494C98.6408 153.036 96.6164 146.661 96.7459 131.376C96.8741 117.258 95.0891 112.891 88.5592 111.141C81.4489 109.236 74.703 118.16 74.5776 129.946ZM91.4911 131.834C91.0608 147.661 93.3841 159.015 99.0259 166.981C107.87 179.538 109.351 183.589 104.644 182.872C102.244 182.541 90.0748 174.847 88.3984 172.687L82.7991 165.432C74.9341 155.315 75.1608 155.92 77.9294 142.976C79.2723 136.803 80.4226 130.191 80.5264 128.352C81.1649 116.392 91.7758 120.324 91.4911 131.834Z" fill="#3977FC" fill-opacity="0.16"/>
<path d="M110.66 32.1444C103.834 34.9813 92.7782 39.0953 86.2 41.2987C47.0405 54.5238 37.0649 69.1144 37.3656 112.976C37.4898 130.506 36.8006 132.499 21.0811 156.048C0.931229 186.265 13.6518 230.5 46.9267 230.239C67.8825 230.1 67.6119 229.95 84.9649 240.354C109.372 254.904 120.754 257.409 141.15 252.687C202.427 238.467 218.65 169.794 168.723 136.431C153.228 126.058 149.458 122.715 145.547 115.835C138.681 103.73 139.377 100.262 151.069 90.8745C167.618 77.5787 174.723 63.541 172.894 47.7314C170.078 23.4144 146.347 17.3668 110.66 32.1444ZM149.654 80.7748C125.025 101.004 129.908 124.864 163.195 146.614C183.578 159.93 187.68 165.228 191.269 182.598C197.383 212.309 169.02 240.092 129.781 242.875C115.206 243.869 103.995 239.854 82.1325 225.675C71.5347 218.792 68.8162 217.908 58.6311 217.901C43.1624 217.877 41.4358 217.648 36.1601 214.99C13.2878 203.418 12.8932 181.383 28.7734 156.943C42.894 135.298 44.5215 129.513 44.3203 103.564C44.0404 74.7162 51.494 64.8933 81.4567 54.6473C94.9811 50.0282 102.078 47.3417 113.493 42.4684C159.574 22.855 186.031 50.9405 149.654 80.7748Z" fill="#3977FC" fill-opacity="0.16"/>
<path d="M87.5116 77.0325C68.1884 91.6846 60.7827 85.6565 54.5608 117.583C51.6106 132.657 56.4076 126.943 51.1759 156.336C47.3907 177.718 46.8942 196.403 68.0801 202.08C74.1021 203.694 77.1251 204.893 80.6594 207.084C106.986 223.47 142.602 219.404 147.856 199.505C151.244 186.571 147.138 177.227 131.006 161.396C121.219 151.775 114.797 140.334 114.48 131.072C114.467 129.669 116.044 121.46 118.048 112.821C123.807 87.8464 121.91 79.2509 109.025 71.9099C102.149 67.968 98.2532 68.8682 87.5116 77.0325ZM114.004 116.014C107.394 140.683 110.513 150.228 131.126 169.36C167.544 203.225 128.73 227.352 85.2625 197.741C78.8857 193.389 78.1986 193.049 72.3307 192.021C56.9814 189.23 53.0711 177.995 57.6859 150.615C60.2786 135.135 59.9447 131.157 59.7097 121.296C59.5417 116.118 61.3953 107.75 63.4325 103.63C65.3192 99.7809 78.4184 94.4258 90.6177 85.1747C111.418 69.3631 122.505 83.9983 114.004 116.014Z" fill="#3977FC" fill-opacity="0.16"/>
</svg>
