<svg width="16" height="43" viewBox="0 0 16 43" fill="none" xmlns="http://www.w3.org/2000/svg">
<path d="M1.72338 41.7054C3.20271 41.1678 4.80197 40.9078 6.30561 40.4391C8.74303 39.6792 11.1105 38.6911 13.5611 37.9751C11.973 36.9525 10.2483 36.1332 8.67884 35.0821C6.9065 33.8951 5.11507 32.4822 3.17104 31.5938C6.76488 30.3621 10.3628 29.1366 13.9643 27.9258C10.7825 25.7771 7.45235 23.5388 4.10635 21.6803L14.6548 17.5123C11.5524 14.929 7.96647 12.9071 4.8514 10.3039C7.95567 9.40248 11.0811 8.17719 14.2062 7.43919C11.573 5.35261 8.39513 3.56195 5.54977 1.78538" stroke="#FD026F" stroke-width="2" stroke-miterlimit="1.5" stroke-linecap="round" stroke-linejoin="round"/>
</svg>
