<svg width="259" height="154" viewBox="0 0 259 154" fill="none" xmlns="http://www.w3.org/2000/svg">
<path d="M127.428 185C126.171 183.077 122.027 173.612 118.179 163.924C107.633 137.118 106.71 139.892 81.3398 127.4C72.501 123.075 67.6944 126.035 53.865 127.074C20.4378 129.597 30.3554 158.954 55.4656 168.082C76.3599 175.657 84.4595 182.2 97.4067 202.165C109.355 220.614 115.421 224.754 125.404 221.423C136.274 217.797 137.379 200.417 127.428 185ZM103.839 197.06C90.8177 176.134 78.0574 163.38 63.8935 157.874C41.6307 149.153 36.2307 145.16 42.9599 142.053C46.3614 140.425 68.7703 139.975 72.8012 141.342L86.2995 145.961C105.197 152.354 104.383 151.762 111.894 170.952C115.447 180.121 119.627 189.698 121.069 192.175C130.503 208.258 113.346 212.256 103.839 197.06Z" fill="#3977FC" fill-opacity="0.16"/>
<path d="M164.483 342.997C170.915 333.455 181.745 318.625 188.399 310.118C227.916 259.338 228.353 231.826 190.326 175.112C175.122 152.448 174.307 149.268 174.518 105.191C174.763 48.6518 120.283 2.11049 77.2852 31.0009C50.1851 49.1639 50.6653 49.1267 19.1976 50.5028C-24.9903 52.5478 -41.9245 59.0601 -64.364 82.6945C-131.757 153.746 -93.9017 256.867 -0.421813 257.361C28.6058 257.539 36.3707 258.646 47.3545 264.227C66.6594 274.058 68.7314 279.161 61.6003 301.386C51.5133 332.857 54.3296 357.188 70.2718 376.153C94.7954 405.322 130.809 392.815 164.483 342.997ZM72.1048 313.291C86.736 265.881 59.9208 239.079 -1.97984 239.391C-39.882 239.585 -49.7559 236.223 -69.322 216.74C-102.758 183.395 -89.7576 122.97 -41.1783 85.6839C-23.0996 71.8866 -5.09226 67.4818 35.4723 67.1388C55.1444 66.986 59.4339 65.8013 72.6697 57.0713C92.7823 43.8281 95.2219 42.6445 104.355 41.5698C143.994 36.9746 163.415 65.2578 163.759 110.629C163.991 150.861 166.841 159.772 189.369 193.305C214.486 230.535 213.233 249.69 183.106 288.709C169.503 306.314 162.59 315.893 151.945 332.018C108.919 397.036 50.4535 383.258 72.1048 313.291Z" fill="#3977FC" fill-opacity="0.16"/>
<path d="M156.033 264.829C168.559 229.216 183.351 230.691 164.037 183.882C154.935 161.772 153.607 173.309 135.181 130.641C121.75 99.6204 106.361 74.9231 73.9715 85.7288C64.7649 88.8002 59.8096 89.8369 53.3386 90.0234C5.08292 91.3298 -37.6911 127.172 -27.4406 157.528C-20.7427 177.235 -7.3917 185.848 27.1472 192.569C48.1146 196.669 66.2732 206.019 74.6332 217.776C75.8539 219.588 80.8492 231.604 85.6596 244.545C99.6096 281.926 109.448 291.464 132.485 289.942C144.798 289.162 149.086 284.65 156.033 264.829ZM88.1717 236.927C75.5898 199.213 63.3482 189.491 20.1564 182.328C-56.2059 169.59 -26.4928 104.946 55.3762 106.108C67.394 106.29 68.5779 106.142 77.0819 102.442C99.414 92.8959 114.134 104.134 131.634 143.658C141.55 165.99 145.397 170.871 154.164 183.478C158.824 190.059 163.597 202.519 164.487 209.619C165.339 216.237 152.919 234.433 145.012 256.918C131.561 295.304 104.602 285.808 88.1717 236.927Z" fill="#3977FC" fill-opacity="0.16"/>
</svg>
