<svg width="25" height="25" viewBox="0 0 25 25" fill="none" xmlns="http://www.w3.org/2000/svg">
<g clip-path="url(#clip0_2966_48306)">
<path d="M12.4996 21.4997C13.7399 21.4997 14.7453 20.4943 14.7453 19.254C14.7453 18.0137 13.7399 17.0083 12.4996 17.0083C11.2593 17.0083 10.2539 18.0137 10.2539 19.254C10.2539 20.4943 11.2593 21.4997 12.4996 21.4997Z" stroke="#FD026F" stroke-width="1.64286" stroke-linecap="round" stroke-linejoin="round"/>
<path d="M8.26541 14.2139C8.82285 13.6416 9.48927 13.1868 10.2253 12.8762C10.9614 12.5657 11.7522 12.4057 12.5511 12.4057C13.35 12.4057 14.1408 12.5657 14.8769 12.8762C15.613 13.1868 16.2794 13.6416 16.8368 14.2139M4.54541 11.3168C5.58892 10.2672 6.82963 9.43425 8.1962 8.86587C9.56276 8.29749 11.0282 8.00488 12.5083 8.00488C13.9883 8.00488 15.4538 8.29749 16.8203 8.86587C18.1869 9.43425 19.4276 10.2672 20.4711 11.3168" stroke="#FD026F" stroke-width="1.64286" stroke-linecap="round" stroke-linejoin="round"/>
<path d="M1.35693 8.12845C2.81996 6.66466 4.55706 5.50348 6.469 4.71124C8.38093 3.919 10.4302 3.51123 12.4998 3.51123C14.5694 3.51123 16.6187 3.919 18.5306 4.71124C20.4425 5.50348 22.1796 6.66466 23.6426 8.12845" stroke="#FD026F" stroke-width="1.64286" stroke-linecap="round" stroke-linejoin="round"/>
</g>
<defs>
<clipPath id="clip0_2966_48306">
<rect width="24" height="24" fill="white" transform="translate(0.5 0.5)"/>
</clipPath>
</defs>
</svg>
