<svg width="67" height="67" viewBox="0 0 67 67" fill="none" xmlns="http://www.w3.org/2000/svg">
<circle cx="33.3529" cy="33.3529" r="33.3529" fill="#3977FC"/>
<path d="M33.0642 43.9741C30.4948 43.9741 28.5183 43.3614 27.1348 42.136C25.771 40.9106 25.0891 39.1614 25.0891 36.8885H29.9216C29.9216 37.9558 30.1983 38.776 30.7517 39.3492C31.3249 39.9224 32.1253 40.2089 33.1531 40.2089C34.0228 40.2089 34.7145 39.9718 35.2284 39.4974C35.762 39.0231 36.0289 38.3906 36.0289 37.6C36.0289 35.8014 34.9715 34.9021 32.8566 34.9021H30.8406V31.2259H32.8863C34.7837 31.2259 35.7324 30.4057 35.7324 28.7652C35.7324 28.0734 35.4952 27.52 35.0209 27.1049C34.5465 26.6899 33.9239 26.4824 33.1531 26.4824C32.2637 26.4824 31.562 26.7393 31.0482 27.2532C30.5343 27.7473 30.2773 28.4391 30.2773 29.3285H25.5338C25.5338 27.3915 26.2256 25.84 27.6091 24.6739C28.9926 23.5078 30.8802 22.9247 33.2717 22.9247C35.4656 22.9247 37.2246 23.4287 38.5489 24.4367C39.8731 25.4447 40.5352 26.8085 40.5352 28.528C40.5352 30.8207 39.2999 32.3129 36.8293 33.0047C38.0943 33.2419 39.0825 33.7854 39.7941 34.6353C40.5253 35.4852 40.891 36.5426 40.891 37.8075C40.891 39.6457 40.1696 41.1379 38.7268 42.2842C37.3037 43.4108 35.4162 43.9741 33.0642 43.9741Z" fill="white"/>
</svg>
