<svg width="67" height="67" viewBox="0 0 67 67" fill="none" xmlns="http://www.w3.org/2000/svg">
<circle cx="33.3529" cy="33.3529" r="33.3529" fill="#3977FC"/>
<path d="M26.3313 43.5294C26.3313 41.0984 26.7365 39.1417 27.5468 37.6593C28.3572 36.1572 29.6913 34.9219 31.5492 33.9534L34.7807 32.2635C36.2631 31.4927 37.0042 30.4254 37.0042 29.0617C37.0042 28.3304 36.7769 27.7473 36.3223 27.3125C35.8875 26.8579 35.3045 26.6306 34.5732 26.6306C33.6442 26.6306 32.9228 26.9369 32.4089 27.5497C31.9148 28.1426 31.6678 29.0024 31.6678 30.1289H26.776C26.776 27.9548 27.4776 26.2155 28.8809 24.9111C30.304 23.5868 32.1915 22.9247 34.5435 22.9247C36.856 22.9247 38.6645 23.4584 39.9689 24.5257C41.2734 25.5732 41.9256 27.0259 41.9256 28.8838C41.9256 31.5718 40.5915 33.6174 37.9233 35.0207L34.9289 36.6217C34.0593 37.096 33.4367 37.5407 33.0612 37.9558C32.7054 38.3708 32.4287 38.9242 32.2311 39.616H41.7478V43.5294H26.3313Z" fill="white"/>
</svg>
