<svg width="50" height="54" viewBox="0 0 50 54" fill="none" xmlns="http://www.w3.org/2000/svg">
<path fill-rule="evenodd" clip-rule="evenodd" d="M48.2972 53.062L49.4764 51.8827C48.9709 50.9066 48.2502 50.1283 47.549 49.4457C47.3193 49.2221 47.0962 49.0124 46.8802 48.8092C46.336 48.2976 45.8369 47.8284 45.3921 47.2878C45.1524 46.9966 45.0011 46.5932 44.896 46.0537C44.7425 45.2661 44.6834 44.4688 44.5366 43.6795C46.0338 43.2783 48.6102 41.6132 49.2582 39.914C49.5789 39.0731 49.6965 38.1511 49.7848 37.3569C49.9729 35.6648 49.1358 33.8981 47.3179 33.1868C46.5291 32.8781 45.8421 32.8838 45.256 33.2705C44.8168 33.5602 44.4933 34.0451 44.2306 34.4389C44.2075 34.4735 44.1849 34.5075 44.1627 34.5405C42.9449 36.3521 42.5288 38.5588 42.5291 40.6858C42.5292 41.2021 42.5846 41.7347 42.6626 42.2583C41.9903 42.2104 41.1677 41.928 40.2978 41.5052C39.4006 41.0692 38.5268 40.5207 37.8323 40.0503C37.0233 39.5025 36.2273 38.8696 35.7931 38.1909C35.5867 37.8683 35.4802 37.4442 35.4241 36.8875C35.3981 36.6289 35.3846 36.3657 35.3702 36.0836L35.3675 36.031C35.3598 35.8812 35.3516 35.7253 35.3404 35.5677C35.4557 35.5754 35.5707 35.5809 35.6852 35.5843C36.7888 35.6165 37.969 35.4483 38.8384 34.9374C39.6504 34.4604 40.3879 33.6608 40.9143 32.774C41.4383 31.8913 41.8055 30.8335 41.7669 29.8072C41.6902 27.7675 39.8928 26.5203 38.4337 26.027C37.3637 25.6653 36.4409 25.8998 35.7236 26.3915C35.0332 26.8649 34.5228 27.578 34.1639 28.242C33.4759 29.5147 33.5317 31.5524 33.5757 33.1585C33.5801 33.3183 33.5843 33.4739 33.5877 33.624C33.4206 33.5672 33.2656 33.5047 33.126 33.4376C32.2828 33.0325 31.3318 32.506 30.4825 31.8846C29.6248 31.2569 28.9247 30.5712 28.519 29.8626C28.1332 29.1887 27.7825 28.4977 27.5374 27.8134C28.58 27.4531 29.5758 26.8323 30.3898 26.0832C31.7776 24.8061 32.8459 22.9586 32.5747 21.0085C32.4688 20.2474 32.0879 19.4905 31.5031 18.951C30.9012 18.3956 30.0709 18.0667 29.1638 18.2502C28.1764 18.4499 27.4989 19.1841 27.055 19.9043C26.601 20.6407 26.3119 21.489 26.1531 22.151C26.1253 22.2672 26.0965 22.3848 26.0675 22.5039C25.7714 23.7164 25.4396 25.0758 25.6048 26.5353C25.4981 26.5382 25.3933 26.5359 25.2909 26.5284C23.4087 26.3906 21.5685 25.2319 20.1582 23.7284C19.0633 22.5612 18.4088 21.1784 18.0401 19.6775C21.133 19.0372 24.5954 14.3259 22.2963 10.7993C21.8142 10.0599 21.0553 9.59801 20.0761 9.41351C19.1048 9.2305 18.2975 9.44406 17.6788 9.95041C17.0892 10.4329 16.7259 11.1349 16.4937 11.8418C16.0308 13.2504 15.9959 14.9755 16.0127 16.0347C16.0239 16.7445 16.0658 17.4679 16.1548 18.1923C14.919 18.1154 13.6168 17.6431 12.4353 16.7612C11.0826 15.7515 10.3191 14.2404 9.90976 12.4871C9.85752 12.2634 9.81141 12.0371 9.77079 11.8092C9.96689 11.7711 10.165 11.7202 10.3652 11.6554C11.8543 11.1731 13.4295 9.49407 14.4356 8.23108C14.8191 7.74965 15.1683 7.15758 15.2792 6.41727C15.4673 5.16254 14.9936 3.94399 14.3025 2.95641C13.6105 1.96753 12.6502 1.13281 11.7031 0.598052C11.273 0.355226 10.8131 0.241902 10.3568 0.323259C9.91082 0.402783 9.57021 0.650274 9.31862 0.933177C8.83682 1.47495 8.54821 2.2967 8.36091 3.06239C7.97678 4.63268 7.90536 6.47578 7.89332 6.96656C7.8691 7.95386 7.86737 9.0615 7.9577 10.1996C7.02323 10.0012 6.06209 9.46034 4.96056 8.72746C4.38024 8.34136 3.85653 7.71194 3.36727 6.92183C2.8927 6.15543 2.49142 5.30722 2.10982 4.497L0.932646 5.67418C1.24535 6.32675 1.60111 7.03318 2.01132 7.69565C2.55856 8.5794 3.24629 9.45885 4.1377 10.0519C5.36336 10.8674 6.70039 11.6568 8.15963 11.8526C8.21018 12.15 8.26919 12.4464 8.33784 12.7405C8.79954 14.718 9.71957 16.676 11.5331 18.0297C13.0547 19.1655 14.7811 19.7727 16.4409 19.8167C16.857 21.5888 17.6343 23.3088 19.0195 24.7855C20.6097 26.4808 22.8367 27.9597 25.294 28.1396C25.5211 28.1562 25.7505 28.1559 25.9809 28.1402C26.2838 29.0209 26.7136 29.8535 27.1316 30.5837C27.7134 31.5999 28.6374 32.4631 29.594 33.1632C30.5592 33.8695 31.6127 34.4495 32.5177 34.8843C32.8768 35.0568 33.2807 35.1987 33.7078 35.3088C33.7288 35.517 33.7413 35.7418 33.7542 35.9925L33.7573 36.0537L33.7573 36.0539C33.7712 36.3272 33.7866 36.6286 33.8169 36.9291C33.8813 37.568 34.0212 38.3149 34.4511 38.9869C35.0994 40.0003 36.1708 40.8071 36.9973 41.3667C37.7262 41.8602 38.6784 42.4605 39.6823 42.9484C40.671 43.4289 41.7868 43.8391 42.8208 43.8779C42.8646 43.8796 42.9083 43.8807 42.952 43.8813C43.2254 45.3363 43.1685 47.0325 44.1761 48.257C44.7 48.8937 45.326 49.4821 45.8984 50.0202C46.0967 50.2066 46.2887 50.3871 46.4677 50.5613C47.1997 51.274 47.794 51.9489 48.1582 52.7546L48.2972 53.062ZM44.1446 40.8068C44.1447 41.2181 44.1844 41.6282 44.2452 42.0471C45.2185 41.7326 47.2861 40.4396 47.743 39.2416C47.9871 38.6015 48.0902 37.8592 48.179 37.0603C48.2986 35.9846 47.7853 35.0596 46.8296 34.6857C46.4004 34.5177 46.2833 34.5937 46.2143 34.6393C46.037 34.7562 45.8718 34.9926 45.5245 35.5093C44.5255 36.9953 44.1443 38.8707 44.1446 40.8068ZM9.50828 7.12714C9.48456 8.09429 9.48505 9.13255 9.56642 10.1728C9.63245 10.1556 9.69866 10.1362 9.7651 10.1147C10.9611 9.72731 12.3296 8.18885 13.1429 7.16789C13.4381 6.79724 13.6241 6.44258 13.6812 6.06173C13.7874 5.35292 13.532 4.57176 13.0018 3.81407C12.4725 3.05768 11.7191 2.4016 10.9912 1.99063C10.8317 1.90059 10.7663 1.91232 10.755 1.91434L10.7547 1.9144C10.734 1.91809 10.6664 1.93762 10.5609 2.05621C10.3286 2.31745 10.1078 2.83669 9.93192 3.55559C9.58972 4.95449 9.51987 6.65498 9.50828 7.12714ZM17.6279 16.1305C17.6383 16.7833 17.6761 17.4288 17.7514 18.0607C18.701 17.8335 24.1098 11.7948 19.8937 11.0004C19.3622 10.9002 19.0184 11.017 18.7568 11.2311C18.4659 11.4691 18.2197 11.8776 18.0324 12.4479C17.6559 13.5936 17.6114 15.0894 17.6279 16.1305ZM27.6481 22.9591C27.3685 24.1138 27.1236 25.1253 27.1847 26.1787C27.899 25.8904 28.6178 25.4379 29.2486 24.8574C30.4659 23.7371 31.1455 22.3383 30.9749 21.112C30.9204 20.7201 30.7208 20.3434 30.4569 20.0998C30.21 19.8721 29.9232 19.7686 29.5968 19.8346C29.2016 19.9146 28.8054 20.2447 28.4479 20.8248C28.1004 21.3885 27.8604 22.0763 27.7258 22.6375C27.6997 22.746 27.6738 22.8532 27.6481 22.9591ZM35.1921 33.5111C35.1986 33.666 35.2047 33.8121 35.2095 33.9471C35.3423 33.958 35.4764 33.9656 35.611 33.9695C36.5654 33.9974 37.4156 33.8393 37.9443 33.5286C38.4996 33.2024 39.0774 32.601 39.5089 31.8742C39.9428 31.1432 40.1762 30.3746 40.1526 29.7465C40.1165 28.7864 39.2337 27.9635 38.0218 27.5537C37.5192 27.3838 37.1005 27.4736 36.7034 27.7458C36.2796 28.0365 35.9029 28.5271 35.5983 29.0906C35.0494 30.106 35.1349 32.1465 35.1921 33.5111Z" fill="#FD026F"/>
</svg>
