<svg width="153" height="432" viewBox="0 0 153 432" fill="none" xmlns="http://www.w3.org/2000/svg">
<path d="M21.4284 185C20.1707 183.077 16.027 173.612 12.1789 163.924C1.63344 137.118 0.709662 139.892 -24.6602 127.4C-33.499 123.075 -38.3056 126.035 -52.135 127.074C-85.5622 129.597 -75.6446 158.954 -50.5344 168.082C-29.6401 175.657 -21.5405 182.2 -8.59326 202.165C3.3552 220.614 9.42067 224.754 19.4038 221.423C30.2744 217.797 31.3793 200.417 21.4284 185ZM-2.16081 197.06C-15.1823 176.134 -27.9426 163.38 -42.1065 157.874C-64.3693 149.153 -69.7693 145.16 -63.0401 142.053C-59.6386 140.425 -37.2297 139.975 -33.1988 141.342L-19.7005 145.961C-0.803232 152.354 -1.61691 151.762 5.89441 170.952C9.44658 180.121 13.6266 189.698 15.0694 192.175C24.5027 208.258 7.3463 212.256 -2.16081 197.06Z" fill="#3977FC" fill-opacity="0.16"/>
<path d="M58.4832 342.997C64.9149 333.455 75.7455 318.625 82.3993 310.118C121.916 259.338 122.353 231.826 84.3258 175.112C69.1222 152.448 68.3075 149.268 68.5182 105.191C68.7628 48.6518 14.2831 2.11049 -28.7148 31.0009C-55.8149 49.1639 -55.3347 49.1267 -86.8024 50.5028C-130.99 52.5478 -147.924 59.0601 -170.364 82.6945C-237.757 153.746 -199.902 256.867 -106.422 257.361C-77.3942 257.539 -69.6293 258.646 -58.6455 264.227C-39.3406 274.058 -37.2686 279.161 -44.3997 301.386C-54.4867 332.857 -51.6704 357.188 -35.7282 376.153C-11.2046 405.322 24.809 392.815 58.4832 342.997ZM-33.8952 313.291C-19.264 265.881 -46.0792 239.079 -107.98 239.391C-145.882 239.585 -155.756 236.223 -175.322 216.74C-208.758 183.395 -195.758 122.97 -147.178 85.6839C-129.1 71.8866 -111.092 67.4818 -70.5277 67.1388C-50.8556 66.986 -46.5661 65.8013 -33.3303 57.0713C-13.2177 43.8281 -10.7781 42.6445 -1.64487 41.5698C37.9941 36.9746 57.4146 65.2578 57.7588 110.629C57.9908 150.861 60.8408 159.772 83.3687 193.305C108.486 230.535 107.233 249.69 77.1061 288.709C63.5027 306.314 56.5903 315.893 45.9447 332.018C2.91899 397.036 -55.5465 383.258 -33.8952 313.291Z" fill="#3977FC" fill-opacity="0.16"/>
<path d="M50.0329 264.829C62.5594 229.216 77.3513 230.691 58.0371 183.882C48.935 161.772 47.6067 173.309 29.1811 130.641C15.7503 99.6204 0.361345 74.9231 -32.0285 85.7288C-41.2351 88.8002 -46.1904 89.8369 -52.6614 90.0234C-100.917 91.3298 -143.691 127.172 -133.441 157.528C-126.743 177.235 -113.392 185.848 -78.8528 192.569C-57.8854 196.669 -39.7268 206.019 -31.3668 217.776C-30.1461 219.588 -25.1508 231.604 -20.3404 244.545C-6.39041 281.926 3.44831 291.464 26.4851 289.942C38.7985 289.162 43.0861 284.65 50.0329 264.829ZM-17.8283 236.927C-30.4102 199.213 -42.6518 189.491 -85.8436 182.328C-162.206 169.59 -132.493 104.946 -50.6238 106.108C-38.606 106.29 -37.4221 106.142 -28.9181 102.442C-6.58598 92.8959 8.13355 104.134 25.634 143.658C35.5497 165.99 39.3966 170.871 48.1635 183.478C52.8244 190.059 57.5974 202.519 58.4867 209.619C59.3388 216.237 46.9193 234.433 39.0117 256.918C25.5615 295.304 -1.39786 285.808 -17.8283 236.927Z" fill="#3977FC" fill-opacity="0.16"/>
</svg>
