<svg width="101" height="101" viewBox="0 0 101 101" fill="none" xmlns="http://www.w3.org/2000/svg">
<path d="M70.2472 26.175C71.9026 27.38 73.5688 28.6318 75.3271 29.6852" stroke="#E55733" stroke-width="2.78569" stroke-miterlimit="1.5" stroke-linecap="round" stroke-linejoin="round"/>
<path fill-rule="evenodd" clip-rule="evenodd" d="M49.9563 28.6124C59.7833 32.3278 69.5984 36.2197 77.5739 43.248C79.576 45.0122 84.8144 50.0469 81.4122 52.8301C78.3278 55.3529 73.2763 52.1476 70.799 50.2164C62.8225 43.9975 57.2863 35.5301 49.9563 28.6124Z" stroke="#F5BD33" stroke-width="2.78569" stroke-miterlimit="1.5" stroke-linecap="round" stroke-linejoin="round"/>
<path fill-rule="evenodd" clip-rule="evenodd" d="M27.4202 35.1153C36.1922 41.6895 47.4423 47.3461 52.4334 57.4308C53.7799 60.152 55.8808 68.3187 51.0476 69.2687C46.3298 70.1957 43.5687 66.0097 41.5146 62.5513C37.7783 56.2616 35.1798 49.4285 31.8636 42.9226C30.5081 40.263 28.6402 37.8469 27.4202 35.1153Z" stroke="#F5BD33" stroke-width="2.78569" stroke-miterlimit="1.5" stroke-linecap="round" stroke-linejoin="round"/>
</svg>
