<svg width="16" height="40" viewBox="0 0 16 40" fill="none" xmlns="http://www.w3.org/2000/svg">
<path d="M13.6243 5.95538e-07L14.9539 6.53655e-07C14.982 0.276984 14.9366 0.609332 14.6916 0.906231C14.4397 1.2116 14.089 1.43635 13.7227 1.60887C13.3498 1.78454 12.9159 1.92669 12.4537 2.04422C11.5296 2.27918 10.4267 2.43183 9.33201 2.53714C8.5046 2.61674 7.66968 2.67036 6.90338 2.71086C7.63968 2.77956 8.46768 2.84767 9.38962 2.91426C9.61125 2.93026 9.86624 2.94392 10.1414 2.95866L10.1415 2.95866C10.933 3.00104 11.8917 3.05238 12.7052 3.19438C13.2553 3.29039 13.8159 3.43853 14.2546 3.69608C14.7081 3.96239 15.1266 4.41171 15.1266 5.09595C15.1266 5.36505 15.021 5.58503 14.9138 5.74071C14.8061 5.89718 14.6698 6.02893 14.5375 6.13726C14.2733 6.35369 13.9391 6.5459 13.6218 6.70578C12.4764 7.28288 11.2606 7.64972 10.023 7.94864C9.19846 8.14781 8.37201 8.33414 7.54466 8.50858C7.96095 8.51161 8.37718 8.51698 8.79286 8.52584C10.7599 8.56775 12.7866 8.83281 14.5444 9.80372C14.9923 10.0511 15.4778 10.4047 15.8086 10.9385C15.9978 11.2438 16.0727 11.6185 15.9129 11.9833C15.7772 12.2929 15.5223 12.4707 15.3506 12.5667C14.3562 13.1227 13.0555 13.2289 11.8957 13.3236C11.6289 13.3453 11.3696 13.3665 11.1231 13.3924L11.1229 13.3924L11.1227 13.3925C10.6958 13.4373 10.2785 13.4812 9.87776 13.5334C9.14141 13.6293 8.40731 13.7346 7.67555 13.8533C8.45669 13.8672 9.24882 13.9337 10.0333 14.1018C11.5879 14.435 13.5533 14.9515 14.5718 16.3521C14.7635 16.6156 15.008 17.0934 14.804 17.6509C14.2861 19.0665 11.4915 19.6998 9.87197 20.0669C9.58219 20.1325 9.33003 20.1897 9.13525 20.2413C10.4044 20.4763 11.619 20.8537 12.8251 21.3172L12.8251 21.3172C13.0031 21.3857 13.3049 21.5016 13.569 21.6611C13.902 21.8622 14.3136 22.2083 14.4509 22.7899C14.5582 23.2443 14.3682 23.6107 14.1429 23.8404C13.9384 24.0489 13.676 24.1831 13.4674 24.2705C13.2476 24.3626 13.0232 24.4287 12.8505 24.4746C12.6011 24.5408 12.352 24.6074 12.1031 24.674L12.1025 24.6742C10.5617 25.0862 9.02556 25.497 7.45855 25.8121C8.07359 25.8355 8.6919 25.881 9.30657 25.9662C10.9435 26.1932 12.794 26.7183 14.1837 27.7148C14.3124 27.8072 14.4702 27.9386 14.5946 28.1126C14.7221 28.2911 14.8466 28.5627 14.8012 28.8959C14.7432 29.3208 14.4488 29.5722 14.2885 29.6866C13.1073 30.5292 11.519 30.7386 10.0614 30.9308L10.0613 30.9308C9.71072 30.977 9.36771 31.0222 9.03973 31.075C10.7127 31.2071 12.4835 31.4623 14.0725 32.0784C14.3686 32.1932 14.8965 32.4442 15.0895 33.0051C15.2604 33.5019 14.9927 33.894 14.809 34.084C14.618 34.2814 14.369 34.4307 14.1641 34.5364C13.777 34.7362 13.3551 34.8751 13.2421 34.9124C11.7969 35.3864 10.465 35.5582 9.02175 35.7444L9.02167 35.7444C8.04415 35.8706 7.01556 36.0033 5.86612 36.2409C5.39217 36.3389 6.2566 36.5362 7.61605 36.8466C10.2373 37.4449 14.699 38.4634 14.9551 40L13.6159 40C12.6101 39.674 11.5723 39.4367 10.5387 39.2003C10.1582 39.1132 9.77831 39.0263 9.40078 38.9352C6.14791 38.15 2.11467 37.1764 1.55536 36.8782C0.679974 36.4116 0.860705 35.4237 1.31617 35.2524C3.972 34.2536 13.6159 33.3261 13.6159 33.3261L13.2707 33.2185C13.2707 33.2185 8.05278 32.2923 4.67944 32.2953C4.09713 32.2959 3.29438 32.2953 3.29438 32.2953C3.28997 32.2953 3.28411 32.2954 3.27688 32.2954L3.25984 32.2956C2.92654 32.2989 0.82957 32.3198 0.892753 31.5671C0.995761 30.3399 6.88683 30.038 8.7961 29.7818C10.3143 29.578 11.9407 29.3597 13.304 28.7198C12.0279 27.9856 10.5793 27.4881 9.13358 27.2876C7.85473 27.1102 6.5674 27.118 5.23323 27.1261C4.95196 27.1279 4.66862 27.1296 4.38282 27.1296C4.05238 27.1296 3.70916 27.1358 3.35898 27.1422C3.19773 27.1452 2.99281 27.1685 2.76563 27.1943C2.0546 27.2751 1.12558 27.3806 0.635237 26.965C0.550999 26.8936 0.41215 26.7352 0.399014 26.4842C0.361476 25.7668 1.29904 25.627 1.89547 25.5381L1.89558 25.5381C2.00985 25.5211 2.11159 25.5059 2.19155 25.4889C4.11784 25.0791 12.4733 24.2591 12.9788 23.0357C13.206 22.4857 9.68435 21.6859 7.45855 21.3844C5.54036 21.1246 2.50435 21.3844 2.50435 21.3844C2.41183 21.3914 2.30266 21.4068 2.18395 21.4235C1.7057 21.4908 1.07262 21.58 0.749862 21.2302C0.677531 21.1518 0.595018 21.023 0.574869 20.8459C0.554673 20.6684 0.635242 20.519 1.31617 20.2413C2.60261 19.7165 12.986 17.7045 12.986 17.7045C12.986 17.7045 13.4301 17.5885 13.481 17.3524C13.5299 17.1252 13.206 16.828 13.206 16.828C12.2525 16.0233 10.9917 15.6692 9.76918 15.4071C8.38261 15.1099 6.93707 15.167 5.44055 15.2527C4.57936 15.302 3.76092 15.4065 2.91859 15.514C2.81297 15.5275 2.70738 15.5413 2.60179 15.5551C1.94387 15.6409 1.28608 15.7268 0.622919 15.7406C0.217821 15.7491 0.0465456 15.435 0.00659298 15.1235C-0.0526665 14.6614 0.297196 14.4102 0.667039 14.2453C1.80463 13.7379 2.99265 13.4523 4.09713 13.1954C5.96706 12.7604 7.8429 12.4544 9.71512 12.2106C11.2997 12.0042 12.9228 11.9538 14.4646 11.4994C12.4988 10.4137 11.2004 9.91075 8.76605 9.85889C7.31355 9.82794 5.82905 9.72767 4.38061 9.89644C3.28594 10.024 1.1851 10.2688 0.935443 9.26511C0.846681 8.90827 1.05646 8.66817 1.11717 8.6073C1.96921 7.75296 5.17701 7.31703 7.52313 6.99819C8.46715 6.86991 9.27165 6.76058 9.72705 6.65058C10.8696 6.3746 11.9944 6.0412 13.0522 5.50824C13.3382 5.36414 13.575 5.22165 13.7309 5.09397C13.7309 5.09397 12.9976 4.67347 12.4886 4.50895C11.2183 4.0983 9.26667 4.21905 7.93073 4.22561C5.86867 4.23573 2.68916 4.25134 1.66396 2.99048C1.56436 2.86798 1.46834 2.66119 1.51546 2.40796C1.55626 2.18872 1.68399 2.0561 1.74804 1.99934C2.40124 1.42053 3.74989 1.43488 4.77542 1.44579C5.05287 1.44874 5.30667 1.45144 5.51664 1.44208C5.70933 1.43348 5.90997 1.42453 6.11616 1.41492C7.05836 1.37097 8.14491 1.3122 9.21145 1.20959C10.2819 1.10662 11.3109 0.961367 12.143 0.749795C12.5589 0.644052 12.9091 0.525771 13.1837 0.396469C13.2038 0.387001 13.2275 0.376668 13.2535 0.365389C13.4232 0.291595 13.6861 0.177316 13.6243 5.95538e-07Z" fill="#3977FC"/>
</svg>
