<svg width="50" height="54" viewBox="0 0 50 54" fill="none" xmlns="http://www.w3.org/2000/svg">
<path fill-rule="evenodd" clip-rule="evenodd" d="M48.2969 53.0617L49.4762 51.8825C48.9707 50.9063 48.2499 50.1281 47.5488 49.4455C47.3191 49.2219 47.096 49.0121 46.8799 48.809C46.3358 48.2974 45.8367 47.8281 45.3919 47.2876C45.1522 46.9964 45.0008 46.5929 44.8957 46.0535C44.7422 45.2658 44.6831 44.4686 44.5364 43.6793C46.0335 43.278 48.6099 41.613 49.2579 39.9137C49.5786 39.0729 49.6963 38.1509 49.7846 37.3567C49.9727 35.6646 49.1355 33.8979 47.3176 33.1865C46.5289 32.8779 45.8419 32.8836 45.2558 33.2702C44.8166 33.5599 44.4931 34.0449 44.2304 34.4387C44.2072 34.4733 44.1846 34.5072 44.1624 34.5403C42.9446 36.3519 42.5286 38.5586 42.5289 40.6855C42.529 41.2019 42.5843 41.7345 42.6624 42.2581C41.99 42.2102 41.1674 41.9277 40.2976 41.505C39.4004 41.0689 38.5266 40.5204 37.832 40.0501C37.023 39.5023 36.2271 38.8694 35.7928 38.1907C35.5864 37.868 35.48 37.4439 35.4239 36.8872C35.3978 36.6286 35.3843 36.3654 35.3699 36.0834L35.3672 36.0307C35.3595 35.881 35.3513 35.725 35.3402 35.5674C35.4554 35.5751 35.5705 35.5807 35.6849 35.584C36.7885 35.6163 37.9687 35.4481 38.8382 34.9372C39.6501 34.4601 40.3876 33.6605 40.9141 32.7737C41.4381 31.891 41.8052 30.8333 41.7666 29.807C41.6899 27.7673 39.8926 26.5201 38.4335 26.0268C37.3635 25.6651 36.4406 25.8995 35.7234 26.3913C35.033 26.8646 34.5226 27.5778 34.1636 28.2417C33.4756 29.5145 33.5314 31.5522 33.5754 33.1583C33.5798 33.3181 33.5841 33.4737 33.5875 33.6238C33.4203 33.5669 33.2654 33.5045 33.1258 33.4374C32.2826 33.0323 31.3315 32.5058 30.4823 31.8843C29.6246 31.2567 28.9244 30.571 28.5188 29.8624C28.1329 29.1885 27.7823 28.4975 27.5371 27.8131C28.5797 27.4528 29.5756 26.8321 30.3896 26.0829C31.7773 24.8058 32.8457 22.9584 32.5744 21.0082C32.4686 20.2472 32.0876 19.4903 31.5028 18.9507C30.9009 18.3954 30.0707 18.0664 29.1636 18.2499C28.1762 18.4497 27.4986 19.1839 27.0547 19.904C26.6008 20.6405 26.3117 21.4888 26.1529 22.1507C26.125 22.2669 26.0963 22.3846 26.0672 22.5037C25.7712 23.7162 25.4393 25.0755 25.6046 26.535C25.4978 26.5379 25.3931 26.5357 25.2907 26.5282C23.4084 26.3904 21.5683 25.2317 20.158 23.7281C19.0631 22.5609 18.4085 21.1782 18.0399 19.6772C21.1327 19.0369 24.5951 14.3257 22.296 10.7991C21.8139 10.0596 21.0551 9.59777 20.0759 9.41327C19.1046 9.23026 18.2973 9.44382 17.6785 9.95017C17.089 10.4326 16.7257 11.1346 16.4934 11.8415C16.0306 13.2502 15.9956 14.9753 16.0124 16.0345C16.0237 16.7442 16.0656 17.4677 16.1545 18.1921C14.9188 18.1152 13.6166 17.6429 12.435 16.761C11.0824 15.7513 10.3189 14.2402 9.90952 12.4868C9.85728 12.2631 9.81116 12.0369 9.77054 11.809C9.96665 11.7709 10.1648 11.72 10.365 11.6551C11.8541 11.1728 13.4292 9.49383 14.4353 8.23084C14.8188 7.7494 15.168 7.15733 15.279 6.41702C15.4671 5.1623 14.9934 3.94375 14.3023 2.95616C13.6102 1.96729 12.65 1.13256 11.7029 0.597808C11.2728 0.354982 10.8128 0.241658 10.3566 0.323015C9.91057 0.402539 9.56997 0.65003 9.31838 0.932933C8.83658 1.47471 8.54797 2.29645 8.36067 3.06215C7.97654 4.63244 7.90512 6.47553 7.89308 6.96632C7.86886 7.95362 7.86713 9.06125 7.95746 10.1993C7.02299 10.001 6.06185 9.4601 4.96032 8.72722C4.37999 8.34112 3.85629 7.7117 3.36703 6.92159C2.89246 6.15519 2.49118 5.30698 2.10958 4.49676L0.932402 5.67394C1.24511 6.32651 1.60086 7.03294 2.01108 7.6954C2.55832 8.57916 3.24605 9.45861 4.13745 10.0517C5.36312 10.8671 6.70015 11.6566 8.15938 11.8524C8.20994 12.1497 8.26894 12.4462 8.3376 12.7403C8.7993 14.7178 9.71933 16.6758 11.5328 18.0295C13.0545 19.1653 14.7808 19.7725 16.4407 19.8164C16.8568 21.5886 17.634 23.3085 19.0192 24.7853C20.6095 26.4806 22.8364 27.9594 25.2937 28.1393C25.5208 28.1559 25.7503 28.1557 25.9807 28.14C26.2836 29.0207 26.7133 29.8532 27.1314 30.5835C27.7131 31.5996 28.6371 32.4629 29.5938 33.163C30.5589 33.8692 31.6125 34.4493 32.5175 34.884C32.8765 35.0565 33.2804 35.1985 33.7075 35.3086C33.7285 35.5168 33.741 35.7416 33.7539 35.9922L33.757 36.0535L33.757 36.0537C33.771 36.3269 33.7864 36.6283 33.8166 36.9288C33.881 37.5678 34.0209 38.3146 34.4509 38.9867C35.0992 40 36.1706 40.8068 36.9971 41.3664C37.7259 41.86 38.6782 42.4602 39.6821 42.9481C40.6708 43.4287 41.7865 43.8388 42.8206 43.8777C42.8644 43.8794 42.9081 43.8805 42.9517 43.8811C43.2251 45.336 43.1683 47.0323 44.1759 48.2568C44.6997 48.8934 45.3257 49.4819 45.8982 50.02C46.0965 50.2064 46.2884 50.3868 46.4674 50.5611C47.1995 51.2737 47.7937 51.9487 48.158 52.7544L48.2969 53.0617ZM44.1443 40.8066C44.1444 41.2179 44.1841 41.6279 44.245 42.0469C45.2183 41.7324 47.2859 40.4393 47.7427 39.2414C47.9868 38.6013 48.09 37.8589 48.1788 37.0601C48.2984 35.9843 47.7851 35.0594 46.8293 34.6854C46.4002 34.5175 46.2831 34.5935 46.2141 34.639C46.0368 34.756 45.8716 34.9923 45.5242 35.509C44.5253 36.9951 44.144 38.8705 44.1443 40.8066ZM9.50804 7.12689C9.48432 8.09405 9.48481 9.13231 9.56618 10.1726C9.6322 10.1553 9.69841 10.136 9.76485 10.1145C10.9609 9.72707 12.3294 8.1886 13.1427 7.16764C13.4379 6.797 13.6238 6.44234 13.6809 6.06149C13.7872 5.35268 13.5318 4.57151 13.0016 3.81383C12.4722 3.05744 11.7188 2.40135 10.991 1.99038C10.8315 1.90034 10.766 1.91208 10.7547 1.9141L10.7544 1.91416C10.7337 1.91785 10.6661 1.93737 10.5607 2.05597C10.3283 2.3172 10.1075 2.83645 9.93167 3.55535C9.58948 4.95424 9.51962 6.65474 9.50804 7.12689ZM17.6277 16.1302C17.638 16.783 17.6758 17.4285 17.7511 18.0605C18.7008 17.8333 24.1095 11.7945 19.8934 11.0002C19.3619 10.9 19.0181 11.0168 18.7565 11.2309C18.4657 11.4689 18.2195 11.8774 18.0321 12.4476C17.6557 13.5933 17.6112 15.0892 17.6277 16.1302ZM27.6479 22.9589C27.3683 24.1136 27.1234 25.1251 27.1845 26.1784C27.8988 25.8902 28.6176 25.4376 29.2483 24.8571C30.4656 23.7368 31.1452 22.3381 30.9746 21.1117C30.9201 20.7199 30.7206 20.3431 30.4566 20.0996C30.2098 19.8718 29.923 19.7684 29.5965 19.8344C29.2013 19.9144 28.8052 20.2445 28.4476 20.8245C28.1002 21.3883 27.8602 22.076 27.7255 22.6373C27.6995 22.7458 27.6735 22.8529 27.6479 22.9589ZM35.1918 33.5109C35.1983 33.6657 35.2044 33.8119 35.2092 33.9468C35.342 33.9578 35.4761 33.9653 35.6108 33.9693C36.5652 33.9972 37.4154 33.839 37.9441 33.5284C38.4994 33.2021 39.0772 32.6008 39.5086 31.874C39.9425 31.143 40.1759 30.3743 40.1523 29.7463C40.1162 28.7862 39.2335 27.9632 38.0215 27.5535C37.519 27.3836 37.1003 27.4733 36.7032 27.7456C36.2793 28.0362 35.9027 28.5268 35.5981 29.0904C35.0491 30.1058 35.1346 32.1463 35.1918 33.5109Z" fill="#FFCC4D"/>
</svg>
