<svg width="21" height="21" viewBox="0 0 21 21" fill="none" xmlns="http://www.w3.org/2000/svg">
<path d="M7.71375 5.29651C7.56297 5.44728 7.47061 5.65681 7.47091 5.88692L7.47091 5.98819C7.47091 6.44899 7.84394 6.82203 8.30415 6.82144L12.8571 6.82144L5.15532 14.5232C4.83005 14.8485 4.83005 15.3764 5.15532 15.7017C5.48059 16.027 6.00856 16.027 6.33383 15.7017L14.0356 7.99995V12.5529C14.0356 13.0137 14.4086 13.3867 14.8688 13.3861H14.9701C15.4309 13.3861 15.8039 13.0131 15.8034 12.5529V5.88692C15.8034 5.42612 15.4303 5.05308 14.9701 5.05367L8.30415 5.05367C8.07375 5.05367 7.86452 5.14573 7.71375 5.29651Z" fill="#34C759"/>
</svg>
