<svg width="102" height="101" viewBox="0 0 102 101" fill="none" xmlns="http://www.w3.org/2000/svg">
<path d="M70.5629 26.175C72.2183 27.38 73.8845 28.6318 75.6428 29.6852" stroke="#E55733" stroke-width="2.78569" stroke-miterlimit="1.5" stroke-linecap="round" stroke-linejoin="round"/>
<path fill-rule="evenodd" clip-rule="evenodd" d="M50.2719 28.6124C60.099 32.3278 69.914 36.2197 77.8895 43.248C79.8916 45.0122 85.13 50.0469 81.7278 52.8301C78.6434 55.3529 73.5919 52.1476 71.1147 50.2164C63.1381 43.9975 57.602 35.5301 50.2719 28.6124Z" stroke="#F5BD33" stroke-width="2.78569" stroke-miterlimit="1.5" stroke-linecap="round" stroke-linejoin="round"/>
<path fill-rule="evenodd" clip-rule="evenodd" d="M27.7357 35.1153C36.5077 41.6895 47.7579 47.3461 52.749 57.4308C54.0955 60.152 56.1963 68.3187 51.3631 69.2687C46.6453 70.1957 43.8843 66.0097 41.8301 62.5513C38.0939 56.2616 35.4954 49.4285 32.1792 42.9226C30.8237 40.263 28.9557 37.8469 27.7357 35.1153Z" stroke="#F5BD33" stroke-width="2.78569" stroke-miterlimit="1.5" stroke-linecap="round" stroke-linejoin="round"/>
</svg>
