<svg width="73" height="72" viewBox="0 0 73 72" fill="none" xmlns="http://www.w3.org/2000/svg">
<path d="M47.5761 16.3295C44.3796 18.3457 40.3831 20.987 39.1799 24.8126C37.9696 28.6598 41.9998 34.0876 46.2748 32.9512C50.4957 31.8287 52.6625 27.7993 54.6684 24.3015" stroke="#E55733" stroke-width="2.38039" stroke-miterlimit="1.5" stroke-linecap="round" stroke-linejoin="round"/>
<path d="M60.8104 28.4971C60.8313 31.0417 59.2936 33.5807 58.0827 35.724C55.7786 39.8018 52.7996 43.4808 48.1061 44.8445C40.2044 47.1394 30.1936 42.4019 27.8994 34.3417C27.1092 31.5647 27.6905 28.9479 28.3633 26.2154C29.1601 22.9795 30.9458 20.0672 33.0614 17.5046C35.6086 14.4187 38.722 11.2743 42.3752 9.52083" stroke="#E55733" stroke-width="2.38039" stroke-miterlimit="1.5" stroke-linecap="round" stroke-linejoin="round"/>
<path d="M67.3142 32.4533C67.5582 35.7826 65.3606 39.1666 64.321 42.182C60.0369 54.6056 45.8194 63.561 32.7219 59.8421C21.259 56.5876 10.6343 44.7063 11.0344 31.9588C11.524 16.3628 27.9667 6.14565 37.2074 4.46533" stroke="#E55733" stroke-width="2.38039" stroke-miterlimit="1.5" stroke-linecap="round" stroke-linejoin="round"/>
</svg>
