<svg width="16" height="43" viewBox="0 0 16 43" fill="none" xmlns="http://www.w3.org/2000/svg">
<path d="M1.72362 41.7054C3.20295 41.1678 4.80222 40.9078 6.30585 40.4391C8.74327 39.6792 11.1107 38.6911 13.5613 37.9751C11.9733 36.9525 10.2486 36.1332 8.67908 35.0821C6.90674 33.8951 5.11531 32.4822 3.17128 31.5938C6.76513 30.3621 10.363 29.1366 13.9645 27.9258C10.7827 25.7771 7.4526 23.5388 4.10659 21.6803L14.655 17.5123C11.5526 14.929 7.96671 12.9071 4.85165 10.3039C7.95591 9.40248 11.0813 8.17719 14.2065 7.43919C11.5732 5.35261 8.39538 3.56195 5.55002 1.78538" stroke="#FFCC4D" stroke-width="2" stroke-miterlimit="1.5" stroke-linecap="round" stroke-linejoin="round"/>
</svg>
