<svg width="22" height="161" viewBox="0 0 22 161" fill="none" xmlns="http://www.w3.org/2000/svg">
<g opacity="0.5">
<path d="M0.000120536 2.37539C0.000126755 1.90506 0.139743 1.44531 0.401307 1.05441C0.66287 0.663507 1.03461 0.359058 1.46938 0.179635C1.90415 0.000212072 2.38239 -0.0461056 2.84351 0.0465527C3.30463 0.139211 3.72786 0.366673 4.05957 0.700115C4.39129 1.03356 4.61656 1.45797 4.70682 1.91956C4.79708 2.38116 4.74829 2.85916 4.56661 3.29299C4.38493 3.72682 4.07855 4.09696 3.6863 4.35649C3.29404 4.61601 2.83355 4.75326 2.36322 4.75082C1.73535 4.74757 1.13432 4.49587 0.691501 4.05074C0.248681 3.60561 0.000111925 3.00327 0.000120536 2.37539Z" fill="white"/>
<path d="M0.00012149 24.7021C0.000127709 24.2318 0.139744 23.772 0.401308 23.3811C0.662871 22.9902 1.03462 22.6858 1.46939 22.5064C1.90416 22.3269 2.38239 22.2806 2.84351 22.3733C3.30463 22.4659 3.72786 22.6934 4.05958 23.0268C4.39129 23.3603 4.61656 23.7847 4.70682 24.2463C4.79708 24.7079 4.74829 25.1859 4.56661 25.6197C4.38493 26.0535 4.07855 26.4237 3.6863 26.6832C3.29404 26.9427 2.83355 27.08 2.36322 27.0775C2.05185 27.0775 1.74356 27.016 1.45605 26.8965C1.16854 26.777 0.907494 26.6018 0.687896 26.3811C0.468299 26.1603 0.294501 25.8984 0.176469 25.6102C0.0584372 25.3221 -0.00150025 25.0135 0.00012149 24.7021Z" fill="white"/>
<path d="M0.00012149 47.0162C0.000127709 46.5459 0.139744 46.0861 0.401308 45.6952C0.662871 45.3043 1.03462 44.9999 1.46939 44.8204C1.90416 44.641 2.38239 44.5947 2.84351 44.6874C3.30463 44.78 3.72786 45.0075 4.05958 45.3409C4.39129 45.6744 4.61656 46.0988 4.70682 46.5604C4.79708 47.022 4.74829 47.5 4.56661 47.9338C4.38493 48.3676 4.07855 48.7378 3.6863 48.9973C3.29404 49.2568 2.83355 49.3941 2.36322 49.3916C2.05185 49.3916 1.74356 49.3301 1.45605 49.2106C1.16854 49.0911 0.907494 48.9159 0.687896 48.6951C0.468299 48.4744 0.294501 48.2124 0.176469 47.9243C0.0584372 47.6362 -0.00150025 47.3276 0.00012149 47.0162Z" fill="white"/>
<path d="M0.000120536 69.3429C0.000126755 68.8726 0.139743 68.4128 0.401307 68.0219C0.66287 67.631 1.03461 67.3266 1.46938 67.1472C1.90415 66.9677 2.38239 66.9214 2.84351 67.0141C3.30463 67.1067 3.72786 67.3342 4.05957 67.6676C4.39129 68.0011 4.61656 68.4255 4.70682 68.8871C4.79708 69.3487 4.74829 69.8267 4.56661 70.2605C4.38493 70.6944 4.07855 71.0645 3.6863 71.324C3.29404 71.5835 2.83355 71.7208 2.36322 71.7184C1.73535 71.7151 1.13432 71.4634 0.691501 71.0183C0.248681 70.5731 0.000111925 69.9708 0.000120536 69.3429Z" fill="white"/>
<path d="M0.00012149 91.657C0.000127709 91.1867 0.139744 90.7269 0.401308 90.336C0.662871 89.9451 1.03462 89.6407 1.46939 89.4613C1.90416 89.2818 2.38239 89.2355 2.84351 89.3282C3.30463 89.4208 3.72786 89.6483 4.05958 89.9817C4.39129 90.3152 4.61656 90.7396 4.70682 91.2012C4.79708 91.6628 4.74829 92.1408 4.56661 92.5746C4.38493 93.0084 4.07855 93.3786 3.6863 93.6381C3.29404 93.8976 2.83355 94.0349 2.36322 94.0324C2.05185 94.0324 1.74356 93.9709 1.45605 93.8514C1.16854 93.7319 0.907494 93.5567 0.687896 93.336C0.468299 93.1152 0.294501 92.8532 0.176469 92.5651C0.0584372 92.277 -0.00150025 91.9684 0.00012149 91.657Z" fill="white"/>
<path d="M0.000120536 113.984C0.000126755 113.513 0.139743 113.054 0.401307 112.663C0.66287 112.272 1.03461 111.967 1.46938 111.788C1.90415 111.609 2.38239 111.562 2.84351 111.655C3.30463 111.748 3.72786 111.975 4.05957 112.308C4.39129 112.642 4.61656 113.066 4.70682 113.528C4.79708 113.989 4.74829 114.468 4.56661 114.901C4.38493 115.335 4.07855 115.705 3.6863 115.965C3.29404 116.224 2.83355 116.362 2.36322 116.359C1.73535 116.356 1.13432 116.104 0.691501 115.659C0.248681 115.214 0.000111925 114.612 0.000120536 113.984Z" fill="white"/>
<path d="M-2.10852e-05 136.335C-0.00245436 135.864 0.135079 135.403 0.395156 135.01C0.655232 134.618 1.02613 134.312 1.46068 134.13C1.89523 133.949 2.37385 133.901 2.83578 133.992C3.29771 134.083 3.72209 134.31 4.05504 134.643C4.38799 134.976 4.61448 135.4 4.70574 135.862C4.79701 136.324 4.74894 136.803 4.56763 137.237C4.38632 137.672 4.07995 138.043 3.68743 138.303C3.29491 138.563 2.83393 138.7 2.36308 138.698C1.73634 138.698 1.13528 138.449 0.692111 138.006C0.24894 137.563 -2.11126e-05 136.962 -2.10852e-05 136.335Z" fill="white"/>
<path d="M0.000120536 158.625C0.000126755 158.154 0.139743 157.694 0.401307 157.304C0.66287 156.913 1.03461 156.608 1.46938 156.429C1.90415 156.249 2.38239 156.203 2.84351 156.296C3.30463 156.388 3.72786 156.616 4.05957 156.949C4.39129 157.283 4.61656 157.707 4.70682 158.169C4.79708 158.63 4.74829 159.108 4.56661 159.542C4.38493 159.976 4.07855 160.346 3.6863 160.606C3.29404 160.865 2.83355 161.002 2.36322 161C1.73535 160.997 1.13432 160.745 0.691501 160.3C0.248681 159.855 0.000111925 159.252 0.000120536 158.625Z" fill="white"/>
<path d="M17.2312 2.37539C17.2312 1.90506 17.3708 1.44531 17.6324 1.05441C17.8939 0.663507 18.2657 0.359058 18.7005 0.179635C19.1352 0.000212072 19.6135 -0.0461056 20.0746 0.0465527C20.5357 0.139211 20.9589 0.366673 21.2907 0.700115C21.6224 1.03356 21.8476 1.45797 21.9379 1.91956C22.0282 2.38116 21.9794 2.85916 21.7977 3.29299C21.616 3.72682 21.3096 4.09696 20.9174 4.35649C20.5251 4.61601 20.0646 4.75326 19.5943 4.75082C18.9664 4.74757 18.3654 4.49587 17.9226 4.05074C17.4798 3.60561 17.2312 3.00327 17.2312 2.37539Z" fill="white"/>
<path d="M17.2312 24.7021C17.2312 24.2318 17.3708 23.772 17.6324 23.3811C17.894 22.9902 18.2657 22.6858 18.7005 22.5064C19.1352 22.3269 19.6135 22.2806 20.0746 22.3733C20.5357 22.4659 20.9589 22.6934 21.2907 23.0268C21.6224 23.3603 21.8476 23.7847 21.9379 24.2463C22.0282 24.7079 21.9794 25.1859 21.7977 25.6197C21.616 26.0535 21.3096 26.4237 20.9174 26.6832C20.5251 26.9427 20.0646 27.08 19.5943 27.0775C19.2829 27.0775 18.9746 27.016 18.6871 26.8965C18.3996 26.777 18.1386 26.6018 17.919 26.3811C17.6994 26.1603 17.5256 25.8984 17.4075 25.6102C17.2895 25.3221 17.2296 25.0135 17.2312 24.7021Z" fill="white"/>
<path d="M17.2312 47.0162C17.2312 46.5459 17.3708 46.0861 17.6324 45.6952C17.894 45.3043 18.2657 44.9999 18.7005 44.8204C19.1352 44.641 19.6135 44.5947 20.0746 44.6874C20.5357 44.78 20.9589 45.0075 21.2907 45.3409C21.6224 45.6744 21.8476 46.0988 21.9379 46.5604C22.0282 47.022 21.9794 47.5 21.7977 47.9338C21.616 48.3676 21.3096 48.7378 20.9174 48.9973C20.5251 49.2568 20.0646 49.3941 19.5943 49.3916C19.2829 49.3916 18.9746 49.3301 18.6871 49.2106C18.3996 49.0911 18.1386 48.9159 17.919 48.6951C17.6994 48.4744 17.5256 48.2124 17.4075 47.9243C17.2895 47.6362 17.2296 47.3276 17.2312 47.0162Z" fill="white"/>
<path d="M17.2312 69.3429C17.2312 68.8726 17.3708 68.4128 17.6324 68.0219C17.8939 67.631 18.2657 67.3266 18.7005 67.1472C19.1352 66.9677 19.6135 66.9214 20.0746 67.0141C20.5357 67.1067 20.9589 67.3342 21.2907 67.6676C21.6224 68.0011 21.8476 68.4255 21.9379 68.8871C22.0282 69.3487 21.9794 69.8267 21.7977 70.2605C21.616 70.6944 21.3096 71.0645 20.9174 71.324C20.5251 71.5835 20.0646 71.7208 19.5943 71.7184C18.9664 71.7151 18.3654 71.4634 17.9226 71.0183C17.4798 70.5731 17.2312 69.9708 17.2312 69.3429Z" fill="white"/>
<path d="M17.2312 91.657C17.2312 91.1867 17.3708 90.7269 17.6324 90.336C17.894 89.9451 18.2657 89.6407 18.7005 89.4613C19.1352 89.2818 19.6135 89.2355 20.0746 89.3282C20.5357 89.4208 20.9589 89.6483 21.2907 89.9817C21.6224 90.3152 21.8476 90.7396 21.9379 91.2012C22.0282 91.6628 21.9794 92.1408 21.7977 92.5746C21.616 93.0084 21.3096 93.3786 20.9174 93.6381C20.5251 93.8976 20.0646 94.0349 19.5943 94.0324C19.2829 94.0324 18.9746 93.9709 18.6871 93.8514C18.3996 93.7319 18.1386 93.5567 17.919 93.336C17.6994 93.1152 17.5256 92.8532 17.4075 92.5651C17.2895 92.277 17.2296 91.9684 17.2312 91.657Z" fill="white"/>
<path d="M17.2312 113.984C17.2312 113.513 17.3708 113.054 17.6324 112.663C17.8939 112.272 18.2657 111.967 18.7005 111.788C19.1352 111.609 19.6135 111.562 20.0746 111.655C20.5357 111.748 20.9589 111.975 21.2907 112.308C21.6224 112.642 21.8476 113.066 21.9379 113.528C22.0282 113.989 21.9794 114.468 21.7977 114.901C21.616 115.335 21.3096 115.705 20.9174 115.965C20.5251 116.224 20.0646 116.362 19.5943 116.359C18.9664 116.356 18.3654 116.104 17.9226 115.659C17.4798 115.214 17.2312 114.612 17.2312 113.984Z" fill="white"/>
<path d="M17.2311 136.335C17.2287 135.864 17.3662 135.403 17.6263 135.01C17.8864 134.618 18.2573 134.312 18.6918 134.13C19.1264 133.949 19.605 133.901 20.0669 133.992C20.5289 134.083 20.9532 134.31 21.2862 134.643C21.6191 134.976 21.8456 135.4 21.9369 135.862C22.0281 136.324 21.9801 136.803 21.7988 137.237C21.6175 137.672 21.3111 138.043 20.9186 138.303C20.5261 138.563 20.0651 138.7 19.5942 138.698C18.9675 138.698 18.3664 138.449 17.9233 138.006C17.4801 137.563 17.2311 136.962 17.2311 136.335Z" fill="white"/>
<path d="M17.2312 158.625C17.2312 158.154 17.3708 157.694 17.6324 157.304C17.8939 156.913 18.2657 156.608 18.7005 156.429C19.1352 156.249 19.6135 156.203 20.0746 156.296C20.5357 156.388 20.9589 156.616 21.2907 156.949C21.6224 157.283 21.8476 157.707 21.9379 158.169C22.0282 158.63 21.9794 159.108 21.7977 159.542C21.616 159.976 21.3096 160.346 20.9174 160.606C20.5251 160.865 20.0646 161.002 19.5943 161C18.9664 160.997 18.3654 160.745 17.9226 160.3C17.4798 159.855 17.2312 159.252 17.2312 158.625Z" fill="white"/>
</g>
</svg>
