<svg width="35" height="148" viewBox="0 0 35 148" fill="none" xmlns="http://www.w3.org/2000/svg">
<g opacity="0.5">
<path d="M34.5166 108.886C34.5166 109.624 34.2974 110.346 33.8866 110.96C33.4759 111.574 32.8922 112.052 32.2095 112.334C31.5268 112.615 30.7759 112.688 30.0518 112.543C29.3277 112.397 28.6631 112.04 28.1423 111.516C27.6214 110.993 27.2676 110.326 27.1259 109.602C26.9842 108.877 27.0608 108.126 27.3461 107.445C27.6314 106.764 28.1125 106.182 28.7284 105.775C29.3443 105.367 30.0674 105.152 30.806 105.156C31.7919 105.161 32.7356 105.556 33.431 106.255C34.1263 106.954 34.5166 107.9 34.5166 108.886Z" fill="white"/>
<path d="M34.5167 143.886C34.5167 144.624 34.2975 145.346 33.8868 145.96C33.476 146.574 32.8923 147.052 32.2096 147.334C31.5269 147.615 30.776 147.688 30.0519 147.543C29.3278 147.397 28.6632 147.04 28.1424 146.516C27.6215 145.993 27.2678 145.326 27.126 144.602C26.9843 143.877 27.0609 143.126 27.3462 142.445C27.6315 141.764 28.1126 141.182 28.7285 140.775C29.3444 140.367 30.0675 140.152 30.8061 140.156C31.792 140.161 32.7358 140.556 33.4311 141.255C34.1264 141.954 34.5167 142.9 34.5167 143.886Z" fill="white"/>
<path d="M34.5166 73.8273C34.5166 74.5658 34.2974 75.2877 33.8866 75.9015C33.4759 76.5153 32.8922 76.9934 32.2095 77.2751C31.5268 77.5569 30.7759 77.6296 30.0518 77.4841C29.3277 77.3386 28.6631 76.9815 28.1423 76.4579C27.6214 75.9343 27.2676 75.2678 27.1259 74.543C26.9842 73.8182 27.0608 73.0676 27.3461 72.3864C27.6314 71.7052 28.1125 71.124 28.7284 70.7165C29.3443 70.3089 30.0674 70.0934 30.806 70.0972C31.2949 70.0972 31.779 70.1939 32.2304 70.3815C32.6819 70.5692 33.0918 70.8443 33.4366 71.1909C33.7815 71.5375 34.0544 71.9489 34.2397 72.4013C34.425 72.8537 34.5192 73.3383 34.5166 73.8273Z" fill="white"/>
<path d="M34.5166 38.7886C34.5166 39.5271 34.2974 40.249 33.8866 40.8628C33.4759 41.4766 32.8922 41.9547 32.2095 42.2365C31.5268 42.5182 30.7759 42.5909 30.0518 42.4454C29.3277 42.2999 28.6631 41.9427 28.1423 41.4192C27.6214 40.8956 27.2676 40.2291 27.1259 39.5043C26.9842 38.7795 27.0608 38.0289 27.3461 37.3477C27.6314 36.6665 28.1125 36.0853 28.7284 35.6777C29.3443 35.2702 30.0674 35.0547 30.806 35.0585C31.2949 35.0585 31.779 35.1552 32.2304 35.3428C32.6819 35.5305 33.0918 35.8056 33.4366 36.1522C33.7815 36.4988 34.0544 36.9102 34.2397 37.3626C34.425 37.815 34.5192 38.2996 34.5166 38.7886Z" fill="white"/>
<path d="M34.5166 3.73003C34.5166 4.46857 34.2974 5.19049 33.8866 5.8043C33.4759 6.41811 32.8922 6.89619 32.2095 7.17792C31.5268 7.45966 30.7759 7.53239 30.0518 7.38689C29.3277 7.24139 28.6631 6.88421 28.1423 6.36063C27.6214 5.83704 27.2676 5.17061 27.1259 4.44579C26.9842 3.72097 27.0608 2.97039 27.3461 2.28917C27.6314 1.60794 28.1125 1.02674 28.7284 0.619213C29.3443 0.211687 30.0674 -0.0038134 30.806 1.31875e-05C31.7919 0.0051215 32.7356 0.400362 33.431 1.09932C34.1263 1.79828 34.5166 2.7441 34.5166 3.73003Z" fill="white"/>
<path d="M7.45948 108.886C7.45947 109.624 7.24024 110.346 6.82952 110.96C6.4188 111.574 5.83507 112.052 5.15237 112.334C4.46967 112.615 3.71873 112.688 2.99465 112.543C2.27058 112.397 1.606 112.04 1.08512 111.516C0.56425 110.993 0.210518 110.326 0.0687841 109.602C-0.0729493 108.877 0.00367391 108.126 0.288956 107.445C0.574237 106.764 1.05533 106.182 1.67126 105.775C2.2872 105.367 3.01029 105.152 3.74883 105.156C4.73473 105.161 5.6785 105.556 6.37384 106.255C7.06918 106.954 7.45949 107.9 7.45948 108.886Z" fill="white"/>
<path d="M7.51612 143.886C7.51611 144.624 7.29688 145.346 6.88616 145.96C6.47544 146.574 5.89171 147.052 5.20901 147.334C4.52631 147.615 3.77537 147.688 3.05129 147.543C2.32722 147.397 1.66264 147.04 1.14176 146.516C0.62089 145.993 0.267158 145.326 0.125425 144.602C-0.0163086 143.877 0.0603145 143.126 0.345596 142.445C0.630878 141.764 1.11197 141.182 1.7279 140.775C2.34384 140.367 3.06693 140.152 3.80547 140.156C4.79138 140.161 5.73514 140.556 6.43048 141.255C7.12582 141.954 7.51613 142.9 7.51612 143.886Z" fill="white"/>
<path d="M7.45948 73.8273C7.45947 74.5658 7.24024 75.2877 6.82952 75.9015C6.4188 76.5153 5.83507 76.9934 5.15237 77.2751C4.46967 77.5569 3.71873 77.6296 2.99465 77.4841C2.27058 77.3386 1.606 76.9815 1.08512 76.4579C0.56425 75.9343 0.210518 75.2678 0.0687841 74.543C-0.0729493 73.8182 0.00367391 73.0676 0.288956 72.3864C0.574237 71.7052 1.05533 71.124 1.67126 70.7165C2.2872 70.3089 3.01029 70.0934 3.74883 70.0972C4.23775 70.0972 4.72184 70.1939 5.17331 70.3815C5.62477 70.5692 6.03468 70.8443 6.3795 71.1909C6.72432 71.5375 6.99723 71.9489 7.18257 72.4013C7.36791 72.8537 7.46203 73.3383 7.45948 73.8273Z" fill="white"/>
<path d="M7.45948 38.7886C7.45947 39.5271 7.24024 40.249 6.82952 40.8628C6.4188 41.4766 5.83507 41.9547 5.15237 42.2365C4.46967 42.5182 3.71873 42.5909 2.99465 42.4454C2.27058 42.2999 1.606 41.9427 1.08512 41.4192C0.56425 40.8956 0.210518 40.2291 0.0687841 39.5043C-0.0729493 38.7795 0.00367391 38.0289 0.288956 37.3477C0.574237 36.6665 1.05533 36.0853 1.67126 35.6777C2.2872 35.2702 3.01029 35.0547 3.74883 35.0585C4.23775 35.0585 4.72184 35.1552 5.17331 35.3428C5.62477 35.5305 6.03468 35.8056 6.3795 36.1522C6.72432 36.4988 6.99723 36.9102 7.18257 37.3626C7.36791 37.815 7.46203 38.2996 7.45948 38.7886Z" fill="white"/>
<path d="M7.45948 3.73006C7.45947 4.4686 7.24024 5.19052 6.82952 5.80433C6.4188 6.41814 5.83507 6.89622 5.15237 7.17795C4.46967 7.45969 3.71873 7.53242 2.99465 7.38692C2.27058 7.24142 1.606 6.88424 1.08512 6.36066C0.56425 5.83707 0.210518 5.17064 0.0687841 4.44582C-0.0729493 3.721 0.00367391 2.97042 0.288956 2.2892C0.574237 1.60797 1.05533 1.02677 1.67126 0.619243C2.2872 0.211717 3.01029 -0.00378288 3.74883 4.37051e-05C4.73473 0.00515202 5.6785 0.400393 6.37384 1.09935C7.06918 1.79831 7.45949 2.74414 7.45948 3.73006Z" fill="white"/>
</g>
</svg>
