<svg width="35" height="117" viewBox="0 0 35 117" fill="none" xmlns="http://www.w3.org/2000/svg">
<g opacity="0.5">
<path d="M-6.83508e-05 38.73C-5.83049e-05 37.9914 0.219175 37.2695 0.629895 36.6557C1.04061 36.0419 1.62435 35.5638 2.30704 35.2821C2.98974 35.0003 3.74068 34.9276 4.46476 35.0731C5.18883 35.2186 5.85341 35.5758 6.37429 36.0994C6.89516 36.6229 7.24889 37.2894 7.39063 38.0142C7.53236 38.739 7.45574 39.4896 7.17046 40.1708C6.88517 40.852 6.40408 41.4332 5.78815 41.8408C5.17221 42.2483 4.44912 42.4638 3.71058 42.46C2.72468 42.4549 1.78091 42.0596 1.08557 41.3607C0.390234 40.6617 -8.17453e-05 39.7159 -6.83508e-05 38.73Z" fill="white"/>
<path d="M-6.83508e-05 3.72996C-5.83049e-05 2.99141 0.219175 2.26949 0.629895 1.65568C1.04061 1.04187 1.62435 0.563811 2.30704 0.282072C2.98974 0.000333006 3.74068 -0.0723974 4.46476 0.0730994C5.18883 0.218596 5.85341 0.575768 6.37429 1.09935C6.89516 1.62294 7.24889 2.28937 7.39063 3.01419C7.53236 3.73901 7.45574 4.48959 7.17046 5.17082C6.88517 5.85204 6.40408 6.43324 5.78815 6.84077C5.17221 7.2483 4.44912 7.4638 3.71058 7.45998C2.72468 7.45487 1.78091 7.05963 1.08557 6.36067C0.390234 5.66171 -8.17453e-05 4.71588 -6.83508e-05 3.72996Z" fill="white"/>
<path d="M-6.83508e-05 73.7885C-5.83049e-05 73.0499 0.219175 72.328 0.629895 71.7142C1.04061 71.1004 1.62435 70.6223 2.30704 70.3406C2.98974 70.0589 3.74068 69.9861 4.46476 70.1316C5.18883 70.2771 5.85341 70.6343 6.37429 71.1579C6.89516 71.6815 7.24889 72.3479 7.39063 73.0727C7.53236 73.7975 7.45574 74.5481 7.17046 75.2294C6.88517 75.9106 6.40408 76.4918 5.78815 76.8993C5.17221 77.3068 4.44912 77.5223 3.71058 77.5185C3.22166 77.5185 2.73757 77.4219 2.28611 77.2342C1.83464 77.0465 1.42473 76.7715 1.07991 76.4249C0.735087 76.0782 0.46218 75.6669 0.276841 75.2144C0.0915025 74.762 -0.00261468 74.2774 -6.83508e-05 73.7885Z" fill="white"/>
<path d="M-6.83508e-05 108.827C-5.83049e-05 108.089 0.219175 107.367 0.629895 106.753C1.04061 106.139 1.62435 105.661 2.30704 105.379C2.98974 105.098 3.74068 105.025 4.46476 105.17C5.18883 105.316 5.85341 105.673 6.37429 106.197C6.89516 106.72 7.24889 107.387 7.39063 108.111C7.53236 108.836 7.45574 109.587 7.17046 110.268C6.88517 110.949 6.40408 111.53 5.78815 111.938C5.17221 112.346 4.44912 112.561 3.71058 112.557C3.22166 112.557 2.73757 112.461 2.28611 112.273C1.83464 112.085 1.42473 111.81 1.07991 111.464C0.735087 111.117 0.46218 110.706 0.276841 110.253C0.0915025 109.801 -0.00261468 109.316 -6.83508e-05 108.827Z" fill="white"/>
<path d="M27.0571 38.73C27.0571 37.9914 27.2763 37.2695 27.687 36.6557C28.0977 36.0419 28.6815 35.5638 29.3642 35.2821C30.0469 35.0003 30.7978 34.9276 31.5219 35.0731C32.246 35.2186 32.9105 35.5758 33.4314 36.0994C33.9523 36.6229 34.306 37.2894 34.4478 38.0142C34.5895 38.739 34.5129 39.4896 34.2276 40.1708C33.9423 40.852 33.4612 41.4332 32.8453 41.8408C32.2293 42.2483 31.5063 42.4638 30.7677 42.46C29.7818 42.4549 28.838 42.0596 28.1427 41.3607C27.4474 40.6617 27.057 39.7159 27.0571 38.73Z" fill="white"/>
<path d="M27.0004 3.72996C27.0004 2.99141 27.2197 2.26949 27.6304 1.65568C28.0411 1.04187 28.6248 0.563811 29.3075 0.282072C29.9902 0.000333006 30.7412 -0.0723974 31.4652 0.0730994C32.1893 0.218596 32.8539 0.575768 33.3748 1.09935C33.8957 1.62294 34.2494 2.28937 34.3911 3.01419C34.5328 3.73901 34.4562 4.48959 34.1709 5.17082C33.8857 5.85204 33.4046 6.43324 32.7886 6.84077C32.1727 7.2483 31.4496 7.4638 30.7111 7.45998C29.7252 7.45487 28.7814 7.05963 28.0861 6.36067C27.3907 5.66171 27.0004 4.71588 27.0004 3.72996Z" fill="white"/>
<path d="M27.0571 73.7885C27.0571 73.0499 27.2763 72.328 27.687 71.7142C28.0977 71.1004 28.6815 70.6223 29.3642 70.3406C30.0469 70.0588 30.7978 69.9861 31.5219 70.1316C32.246 70.2771 32.9105 70.6343 33.4314 71.1579C33.9523 71.6814 34.306 72.3479 34.4478 73.0727C34.5895 73.7975 34.5129 74.5481 34.2276 75.2293C33.9423 75.9106 33.4612 76.4917 32.8453 76.8993C32.2293 77.3068 31.5063 77.5223 30.7677 77.5185C30.2788 77.5185 29.7947 77.4219 29.3432 77.2342C28.8918 77.0465 28.4819 76.7714 28.137 76.4248C27.7922 76.0782 27.5193 75.6669 27.334 75.2144C27.1486 74.762 27.0545 74.2774 27.0571 73.7885Z" fill="white"/>
<path d="M27.0571 108.827C27.0571 108.089 27.2763 107.367 27.687 106.753C28.0977 106.139 28.6815 105.661 29.3642 105.379C30.0469 105.097 30.7978 105.025 31.5219 105.17C32.246 105.316 32.9105 105.673 33.4314 106.197C33.9523 106.72 34.306 107.387 34.4478 108.111C34.5895 108.836 34.5129 109.587 34.2276 110.268C33.9423 110.949 33.4612 111.53 32.8453 111.938C32.2293 112.345 31.5063 112.561 30.7677 112.557C30.2788 112.557 29.7947 112.461 29.3432 112.273C28.8918 112.085 28.4819 111.81 28.137 111.463C27.7922 111.117 27.5193 110.706 27.334 110.253C27.1486 109.801 27.0545 109.316 27.0571 108.827Z" fill="white"/>
</g>
</svg>
