<svg width="148" height="35" viewBox="0 0 148 35" fill="none" xmlns="http://www.w3.org/2000/svg">
<g opacity="0.5">
<path d="M38.73 34.5171C37.9914 34.5171 37.2695 34.2979 36.6557 33.8872C36.0419 33.4764 35.5638 32.8927 35.2821 32.21C35.0003 31.5273 34.9276 30.7764 35.0731 30.0523C35.2186 29.3282 35.5758 28.6636 36.0994 28.1428C36.6229 27.6219 37.2894 27.2682 38.0142 27.1264C38.739 26.9847 39.4896 27.0613 40.1708 27.3466C40.852 27.6319 41.4332 28.113 41.8408 28.7289C42.2483 29.3448 42.4638 30.0679 42.46 30.8065C42.4549 31.7924 42.0596 32.7361 41.3607 33.4315C40.6617 34.1268 39.7159 34.5171 38.73 34.5171Z" fill="white"/>
<path d="M3.72996 34.5172C2.99142 34.5172 2.26949 34.298 1.65568 33.8873C1.04187 33.4766 0.563811 32.8928 0.282072 32.2101C0.000333201 31.5274 -0.0723972 30.7765 0.0730995 30.0524C0.218596 29.3283 0.575768 28.6638 1.09935 28.1429C1.62294 27.622 2.28937 27.2683 3.01419 27.1266C3.73901 26.9848 4.48959 27.0614 5.17082 27.3467C5.85204 27.632 6.43324 28.1131 6.84077 28.729C7.2483 29.345 7.4638 30.0681 7.45998 30.8066C7.45487 31.7925 7.05963 32.7363 6.36067 33.4316C5.66171 34.1269 4.71588 34.5173 3.72996 34.5172Z" fill="white"/>
<path d="M73.7886 34.5171C73.05 34.5171 72.3281 34.2979 71.7143 33.8872C71.1005 33.4764 70.6224 32.8927 70.3407 32.21C70.0589 31.5273 69.9862 30.7764 70.1317 30.0523C70.2772 29.3282 70.6344 28.6636 71.1579 28.1428C71.6815 27.6219 72.348 27.2682 73.0728 27.1264C73.7976 26.9847 74.5482 27.0613 75.2294 27.3466C75.9106 27.6319 76.4918 28.113 76.8994 28.7289C77.3069 29.3448 77.5224 30.0679 77.5186 30.8065C77.5186 31.2954 77.422 31.7795 77.2343 32.231C77.0466 32.6824 76.7715 33.0923 76.4249 33.4371C76.0783 33.782 75.6669 34.0549 75.2145 34.2402C74.7621 34.4256 74.2775 34.5197 73.7886 34.5171Z" fill="white"/>
<path d="M108.827 34.5171C108.089 34.5171 107.367 34.2979 106.753 33.8871C106.139 33.4764 105.661 32.8927 105.379 32.21C105.097 31.5273 105.025 30.7764 105.17 30.0523C105.316 29.3282 105.673 28.6636 106.197 28.1428C106.72 27.6219 107.387 27.2682 108.111 27.1264C108.836 26.9847 109.587 27.0613 110.268 27.3466C110.949 27.6319 111.53 28.113 111.938 28.7289C112.345 29.3448 112.561 30.0679 112.557 30.8065C112.557 31.2954 112.461 31.7795 112.273 32.2309C112.085 32.6824 111.81 33.0923 111.463 33.4371C111.117 33.782 110.706 34.0549 110.253 34.2402C109.801 34.4255 109.316 34.5197 108.827 34.5171Z" fill="white"/>
<path d="M143.885 34.5171C143.147 34.5171 142.425 34.2979 141.811 33.8871C141.197 33.4764 140.719 32.8927 140.437 32.21C140.156 31.5273 140.083 30.7764 140.228 30.0523C140.374 29.3282 140.731 28.6636 141.255 28.1428C141.778 27.6219 142.445 27.2682 143.169 27.1264C143.894 26.9847 144.645 27.0613 145.326 27.3466C146.007 27.6319 146.589 28.113 146.996 28.7289C147.404 29.3448 147.619 30.0679 147.615 30.8065C147.61 31.7924 147.215 32.7361 146.516 33.4315C145.817 34.1268 144.871 34.5171 143.885 34.5171Z" fill="white"/>
<path d="M38.73 7.46004C37.9914 7.46003 37.2695 7.24079 36.6557 6.83007C36.0419 6.41935 35.5638 5.83562 35.2821 5.15293C35.0003 4.47023 34.9276 3.71928 35.0731 2.99521C35.2186 2.27114 35.5758 1.60655 36.0994 1.08568C36.6229 0.564807 37.2894 0.211075 38.0142 0.0693412C38.739 -0.0723922 39.4896 0.00423105 40.1708 0.289513C40.852 0.574794 41.4332 1.05589 41.8408 1.67182C42.2483 2.28776 42.4638 3.01085 42.46 3.74938C42.4549 4.73529 42.0596 5.67906 41.3607 6.3744C40.6617 7.06973 39.7159 7.46005 38.73 7.46004Z" fill="white"/>
<path d="M3.72996 7.51665C2.99142 7.51664 2.26949 7.2974 1.65568 6.88668C1.04187 6.47596 0.563811 5.89223 0.282072 5.20954C0.000333201 4.52684 -0.0723972 3.77589 0.0730995 3.05182C0.218596 2.32775 0.575768 1.66316 1.09935 1.14229C1.62294 0.621417 2.28937 0.267685 3.01419 0.125951C3.73901 -0.015782 4.48959 0.0608412 5.17082 0.346123C5.85204 0.631404 6.43324 1.1125 6.84077 1.72843C7.2483 2.34437 7.4638 3.06746 7.45998 3.80599C7.45487 4.7919 7.05963 5.73567 6.36067 6.43101C5.66171 7.12634 4.71588 7.51666 3.72996 7.51665Z" fill="white"/>
<path d="M73.7886 7.46004C73.05 7.46003 72.3281 7.24079 71.7143 6.83007C71.1005 6.41935 70.6224 5.83562 70.3407 5.15293C70.0589 4.47023 69.9862 3.71928 70.1317 2.99521C70.2772 2.27114 70.6344 1.60655 71.1579 1.08568C71.6815 0.564807 72.348 0.211075 73.0728 0.0693412C73.7976 -0.0723922 74.5482 0.00423105 75.2294 0.289513C75.9106 0.574794 76.4918 1.05589 76.8994 1.67182C77.3069 2.28776 77.5224 3.01085 77.5186 3.74938C77.5186 4.23831 77.422 4.7224 77.2343 5.17386C77.0466 5.62533 76.7715 6.03524 76.4249 6.38006C76.0783 6.72488 75.6669 6.99779 75.2145 7.18313C74.7621 7.36847 74.2775 7.46258 73.7886 7.46004Z" fill="white"/>
<path d="M108.827 7.46004C108.089 7.46003 107.367 7.24079 106.753 6.83007C106.139 6.41935 105.661 5.83562 105.379 5.15293C105.097 4.47023 105.025 3.71928 105.17 2.99521C105.316 2.27114 105.673 1.60655 106.197 1.08568C106.72 0.564807 107.387 0.211075 108.111 0.0693412C108.836 -0.0723922 109.587 0.00423105 110.268 0.289513C110.949 0.574794 111.53 1.05589 111.938 1.67182C112.345 2.28776 112.561 3.01085 112.557 3.74938C112.557 4.23831 112.461 4.7224 112.273 5.17386C112.085 5.62533 111.81 6.03524 111.463 6.38006C111.117 6.72488 110.706 6.99779 110.253 7.18313C109.801 7.36847 109.316 7.46258 108.827 7.46004Z" fill="white"/>
<path d="M143.885 7.46004C143.147 7.46003 142.425 7.24079 141.811 6.83007C141.197 6.41935 140.719 5.83562 140.437 5.15293C140.156 4.47023 140.083 3.71928 140.228 2.99521C140.374 2.27114 140.731 1.60655 141.255 1.08568C141.778 0.564807 142.445 0.211075 143.169 0.0693412C143.894 -0.0723922 144.645 0.00423105 145.326 0.289513C146.007 0.574794 146.589 1.05589 146.996 1.67182C147.404 2.28776 147.619 3.01085 147.615 3.74938C147.61 4.73529 147.215 5.67906 146.516 6.3744C145.817 7.06973 144.871 7.46005 143.885 7.46004Z" fill="white"/>
</g>
</svg>
