<svg width="101" height="101" viewBox="0 0 101 101" fill="none" xmlns="http://www.w3.org/2000/svg">
<path d="M74.9242 70.1521C73.7264 71.8129 72.482 73.4845 71.4363 75.2474" stroke="white" stroke-width="2.78569" stroke-miterlimit="1.5" stroke-linecap="round" stroke-linejoin="round"/>
<path fill-rule="evenodd" clip-rule="evenodd" d="M72.3979 49.8721C68.7256 59.7154 64.8769 69.5474 57.8835 77.5537C56.1282 79.5635 51.1165 84.8239 48.3184 81.434C45.782 78.3607 48.9652 73.2952 50.8855 70.8095C57.0694 62.8057 65.5124 57.2325 72.3979 49.8721Z" stroke="#F5BD33" stroke-width="2.78569" stroke-miterlimit="1.5" stroke-linecap="round" stroke-linejoin="round"/>
<path fill-rule="evenodd" clip-rule="evenodd" d="M65.7961 27.3647C59.2604 36.1655 53.6533 47.4403 43.5906 52.4756C40.8753 53.8341 32.7179 55.9707 31.7467 51.1417C30.799 46.4281 34.9728 43.6487 38.4223 41.5794C44.6955 37.8155 51.5171 35.1871 58.0084 31.8424C60.662 30.4752 63.0699 28.5967 65.7961 27.3647Z" stroke="#F5BD33" stroke-width="2.78569" stroke-miterlimit="1.5" stroke-linecap="round" stroke-linejoin="round"/>
</svg>
