<svg width="206" height="53" viewBox="0 0 206 53" fill="none" xmlns="http://www.w3.org/2000/svg">
<path d="M6.27398 42.7807C6.7875 43.3813 7.32924 43.9572 7.89738 44.5067C9.81244 46.3856 12.0962 47.965 14.5461 49.1595C15.4488 49.5808 16.2814 50.0173 17.2569 50.3931C17.5006 50.4865 17.7497 50.5864 18.0114 50.6764C18.2754 50.7598 18.549 50.8432 18.8351 50.9258C19.1196 51.0144 19.4229 51.0773 19.74 51.1428C20.0575 51.2063 20.3871 51.2789 20.7411 51.3151C18.985 50.9461 17.2734 50.3916 15.6352 49.6612C13.9867 48.9199 12.4204 48.0091 10.9616 46.9437C8.04002 44.8102 5.54109 42.0708 3.71577 38.9395C3.64043 38.8459 3.52604 38.6675 3.38893 38.4403L3.16845 38.068L2.94604 37.6398C2.79813 37.3427 2.62778 37.0412 2.49732 36.7491C2.38034 36.4936 2.25789 36.2406 2.13004 35.9903C2.6973 37.3988 3.35209 38.6308 4.08526 39.8023C4.42298 40.3396 4.78043 40.8643 5.15691 41.3753C5.10373 41.3038 5.04833 41.2342 4.99543 41.1624C5.39887 41.7164 5.8239 42.2544 6.26955 42.7752L6.27398 42.7807ZM0.368158 29.2794L0.234375 28.2095C0.305283 28.8625 0.387546 29.5922 0.537948 30.3228L0.447375 29.804C0.413943 29.6303 0.387516 29.4553 0.368158 29.2794ZM23.7668 51.2394C25.6093 51.4252 27.5415 51.3697 29.4342 51.0713C31.3279 50.7739 33.1801 50.2465 34.9021 49.5667C31.7306 50.8101 28.3647 51.3631 25.072 51.2706C24.6313 51.2637 24.197 51.2706 23.7668 51.2394Z" fill="white"/>
<path d="M12.8608 47.482L12.7891 47.4365C12.8132 47.4517 12.8367 47.4671 12.8608 47.482ZM15.534 48.9501C17.0522 49.6543 18.6424 50.1927 20.2767 50.556C17.5933 49.9458 15.0681 48.8692 12.8608 47.482C13.7084 48.0196 14.5994 48.5172 15.534 48.9501ZM49.0281 29.5698C49.0552 29.1336 49.1101 28.6758 49.1239 28.4579C49.2885 27.0577 49.3372 25.8622 49.3303 24.6628C49.2998 24.4466 49.2126 24.0415 49.1779 23.5809C49.1356 23.1193 49.0732 22.6673 49.0206 22.2214C48.9406 21.7793 48.8716 21.3417 48.7841 20.9126C49.4142 24.1202 49.4037 27.3402 48.824 30.3783C48.8877 30.1077 48.9557 29.8382 49.0281 29.5698Z" fill="white"/>
<path d="M0.24578 23.0504C0.480661 21.1453 0.980615 19.2881 1.45619 18.0509L1.26369 18.9565C1.38252 18.6912 1.57447 18.0746 1.83621 17.4222L2.02512 16.9246L2.23368 16.4422C2.37218 16.13 2.48851 15.834 2.61121 15.607C2.52729 15.8199 2.44641 16.0493 2.34891 16.2796C2.25335 16.5107 2.14616 16.7454 2.04395 16.9815L2.4633 16.0402C2.04018 17.0968 1.67595 18.176 1.37227 19.2727C1.05845 20.4743 0.810271 21.7372 0.676765 22.871C0.637988 23.1537 0.624415 23.4298 0.59921 23.6932C0.580652 23.9566 0.548522 24.2079 0.546029 24.4453C0.534396 24.92 0.518331 25.3355 0.526364 25.668C0.555447 26.3331 0.595609 26.6647 0.653499 26.4795C0.767338 26.1114 0.765123 24.2187 1.16232 21.8499C1.37476 20.6692 1.67972 19.3743 2.09353 18.1055C2.5043 16.8357 3.04275 15.6045 3.60032 14.5183L3.43634 14.875L3.28539 15.2425L2.97627 15.9855L2.69264 16.7531L2.54834 17.1402C2.50596 17.2717 2.46303 17.4037 2.42065 17.5362C2.05503 18.5874 1.78165 19.6943 1.54344 20.8101L1.38861 21.6527C1.33183 21.9327 1.30773 22.2177 1.26563 22.4996C1.17755 23.0631 1.14542 23.6308 1.09639 24.1919C1.04127 25.3168 1.03019 26.4278 1.1324 27.4903C1.12825 27.2379 1.12409 27.0137 1.12769 26.7967L1.15955 26.1465C1.17284 25.9231 1.17035 25.6862 1.1914 25.4148C1.21079 25.1434 1.22851 24.8374 1.24403 24.4754C1.35233 22.6509 1.67944 20.8446 2.18798 19.0965C2.6727 17.341 3.24439 15.795 4.09612 14.3943L4.31798 13.973C4.4681 13.6902 4.59302 13.4114 4.75173 13.127C4.9326 12.815 5.10572 12.5814 5.24587 12.3674C5.39018 12.1556 5.51261 11.9695 5.65276 11.7889L6.67261 10.3857C6.69338 10.3832 6.66651 10.4368 6.61721 10.5163C6.78536 10.2775 6.9665 10.0479 7.15982 9.8288C7.36894 9.58721 7.57197 9.33097 7.74398 9.11947C7.78442 9.11754 7.82375 9.11644 7.91654 9.05017C10.3124 6.51077 13.2609 4.44131 16.5836 3.13668L17.3223 2.8498L18.0702 2.60157L18.4422 2.47788L18.8189 2.37295L19.5695 2.16504C19.9988 2.06205 20.4337 1.95768 20.8771 1.8638L21.5521 1.74618C21.779 1.70725 22.0069 1.66335 22.2401 1.64181C22.7038 1.58631 23.1082 1.46924 23.3262 1.44052C24.5363 1.37177 25.7442 1.38558 27.1621 1.50016C27.2721 1.5021 27.4433 1.51204 27.6419 1.52281C27.8405 1.53413 28.0676 1.53965 28.2878 1.5598C28.5459 1.61779 28.8215 1.67522 29.1107 1.73127C30.8748 2.00407 32.5805 2.49168 34.2033 3.14027L34.2014 3.13254L34.8229 3.37938L35.4572 3.67151C35.8923 3.86037 36.3186 4.10197 36.759 4.32948C36.98 4.44186 37.1894 4.57909 37.4066 4.70334C37.6199 4.83422 37.8431 4.95018 38.0492 5.09321C38.4669 5.36987 38.8904 5.63467 39.2807 5.93038C39.9099 6.38303 40.5198 6.86186 41.1088 7.36561C41.1215 7.37721 41.1348 7.38798 41.1475 7.3993L41.1592 7.40979L41.5627 7.77481L41.9488 8.15888L42.3352 8.54323C42.4632 8.67217 42.5817 8.81023 42.7056 8.94331C42.6457 8.84667 42.6479 8.80774 42.6502 8.76936C42.4593 8.58713 42.2336 8.37149 42.0106 8.15916C42.3826 8.49656 42.7072 8.80167 42.9737 9.05072C43.0764 9.1816 43.1886 9.31027 43.295 9.45081L43.6235 9.8832L43.9728 10.333L44.3204 10.8167C44.9369 11.6003 45.4812 12.4386 45.998 13.2935C46.2374 13.7319 46.5013 14.158 46.7143 14.6116L47.0503 15.2842L47.3528 15.9737C47.4397 16.1208 47.406 15.9798 47.4168 15.9549C47.7561 16.7727 48.0289 17.6232 48.276 18.4802C48.7482 20.0291 49.0645 21.621 49.2199 23.2324C49.2822 23.6129 49.3088 23.9978 49.3639 24.3791L49.3299 25.1864C49.3296 25.491 49.3457 25.7955 49.3326 26.1006L49.2972 27.019C49.2928 27.2261 49.2628 27.4522 49.2454 27.6979C49.2221 27.9431 49.2099 28.2076 49.1745 28.4865L49.0604 29.3679C49.0238 29.6768 48.9532 29.9944 48.8989 30.3263C48.6285 31.7836 48.2289 33.2142 47.7045 34.601C47.6375 34.8291 47.5863 35.0113 47.5406 35.1132C47.3669 35.5276 47.1816 35.9288 47.0027 36.324C46.8024 36.7089 46.6188 37.0938 46.4135 37.4582C45.7788 38.6581 45.0422 39.8016 44.2118 40.8762C44.1187 40.9974 44.032 41.1206 43.9384 41.2343L43.662 41.5673C43.4792 41.7824 43.3158 41.9975 43.1424 42.1842C42.7959 42.5575 42.505 42.9037 42.2322 43.1641C41.9198 43.4893 41.9477 43.5045 42.1641 43.3477C42.3159 43.2359 42.4644 43.1197 42.6094 42.9992L43.1972 42.4708C43.4121 42.2838 43.6179 42.0729 43.8163 41.8741C44.0124 41.6739 44.2085 41.4914 44.3597 41.3263C44.6647 40.9974 44.8649 40.7945 44.8223 40.8848C44.3301 41.8084 43.4337 42.9476 42.1236 44.2078C41.4553 44.8227 40.7032 45.4909 39.8139 46.135C39.3801 46.4722 38.8979 46.7806 38.4062 47.1174C37.8982 47.4275 37.3792 47.7671 36.8116 48.0687C35.5697 48.7429 37.7437 47.6614 37.8024 47.6512C37.5927 47.8158 37.3728 47.967 37.144 48.104C36.7346 48.321 36.3289 48.5449 35.9048 48.7316C35.6569 48.8451 35.4134 48.9677 35.1628 49.0737L34.4069 49.3835L34.8068 49.2267C35.6245 48.9028 36.3887 48.5212 37.0787 48.1438C36.8194 48.3 36.5358 48.4809 36.225 48.6441C35.8918 48.8158 35.5469 49.0036 35.201 49.1712L34.1969 49.6367C37.7888 48.3359 41.0896 46.1834 43.7027 43.3772C45.0109 41.9785 46.1775 40.4419 47.1287 38.7797C48.0858 37.1209 48.8557 35.3616 49.4243 33.5338C48.5507 36.2756 47.1888 38.7943 45.5518 40.924C48.5277 36.9184 50.3021 32.0075 50.5372 26.9428C50.537 27.2219 50.5093 27.5 50.4907 27.778C50.4677 28.0561 50.4566 28.3352 50.424 28.6124C50.3528 29.166 50.3018 29.7227 50.1949 30.2716C50.0221 31.376 49.7417 32.4614 49.4243 33.5338C50.0509 31.5953 50.4251 29.5512 50.5724 27.4956C50.7259 25.4382 50.5979 23.3685 50.2796 21.3628C50.8264 24.0196 50.917 27.0298 50.4511 30.0046C50.7785 28.0859 50.8616 26.1081 50.7358 24.1471C50.7076 23.3981 50.619 22.6542 50.5461 21.9656C50.4417 21.2819 50.3627 20.6507 50.2616 20.1402C50.6619 22.0249 50.8198 23.6325 50.8968 25.1478C50.8228 21.8408 50.1356 18.4902 48.7862 15.3428C49.5227 17.0522 50.1273 18.8911 50.4965 20.7816C50.8677 22.6702 51.022 24.6025 50.9342 26.4612C50.93 26.2437 50.9391 26.0264 50.9264 25.808L50.8968 25.1478C50.9763 28.1436 50.5134 31.1129 49.5961 33.9052C49.1357 35.3012 48.5671 36.6578 47.8788 37.9486C47.1918 39.2374 46.3988 40.4672 45.5078 41.6253C46.5252 40.4408 47.5993 38.7664 48.4565 36.9273C49.3099 35.0842 49.9434 33.091 50.3791 31.3501C49.7381 34.4762 48.466 37.5609 46.6202 40.3157C44.7793 43.0727 42.3682 45.4967 39.5784 47.3571C36.792 49.2234 33.6305 50.515 30.3862 51.1531C28.7753 51.472 27.1378 51.6392 25.4955 51.6526C23.8831 51.6612 22.2734 51.5211 20.6868 51.2343L21.5192 51.3919C21.7967 51.4444 22.0781 51.4734 22.3573 51.5148C22.9157 51.6043 23.4805 51.638 24.0433 51.6896C25.1714 51.7528 26.3057 51.7741 27.4363 51.6882C28.5689 51.6283 29.6943 51.4599 30.8144 51.2542C31.37 51.1283 31.9323 51.0253 32.481 50.8637C32.7563 50.787 33.035 50.7199 33.3084 50.6346L34.1269 50.37C33.7136 50.4976 33.2787 50.6666 32.8142 50.7906L32.2323 50.9612C33.4535 50.6366 34.6488 50.2216 35.8081 49.7198C36.3385 49.4891 36.8605 49.24 37.3734 48.9729C36.4125 49.481 35.4215 49.9302 34.4058 50.3181C32.469 51.0387 30.4562 51.5372 28.4063 51.8042C28.0989 51.8528 27.8186 51.868 27.5673 51.8942L26.8948 51.9605C26.499 51.9917 26.2068 52.0057 26.0024 52.0281C25.5933 52.0687 25.5351 52.1065 25.698 52.1377C25.8606 52.1689 26.2439 52.1938 26.7153 52.207C27.1854 52.2043 27.743 52.1791 28.2501 52.133C33.3458 51.612 38.0243 49.6185 41.7735 46.634C45.5252 43.6489 48.3987 39.6837 50.0002 35.1844C50.1007 34.9232 50.178 34.6538 50.2616 34.3865C50.3428 34.1184 50.4325 33.853 50.5059 33.5824C50.6419 33.0385 50.8029 32.5009 50.907 31.9487L51.0785 31.1245L51.2134 30.2928L51.2801 29.8767L51.3277 29.4579L51.4225 28.6202C51.6158 26.3798 51.5394 24.1154 51.1976 21.8932C51.0148 20.6358 50.6935 19.1429 50.2794 17.8131L49.9608 16.8512C49.85 16.5455 49.7323 16.2572 49.6276 15.9861L49.4734 15.5954L49.3152 15.2445L49.0435 14.658C48.1754 12.9022 47.0847 11.2276 45.8078 9.67004C44.5323 8.11194 43.0667 6.66926 41.4145 5.41295L40.793 4.94273L40.1485 4.49874L39.8255 4.27619L39.4923 4.06745L38.8228 3.65108C37.9102 3.12536 36.9753 2.61869 35.9898 2.19845C35.0146 1.75722 33.9939 1.39911 32.9549 1.07882C32.4301 0.935239 31.9077 0.775094 31.3695 0.664925C31.1014 0.607218 30.8355 0.537085 30.5643 0.488766L29.7489 0.344912C27.7989 0.00280881 25.7706 -0.0786442 23.7442 0.0732174C21.7189 0.229221 19.685 0.612464 17.7347 1.27403L17.0049 1.52612C16.7609 1.60812 16.5257 1.71443 16.2856 1.80748C16.0479 1.9066 15.805 1.9933 15.5718 2.10264L14.8705 2.42652C14.6345 2.53034 14.4065 2.64962 14.1791 2.77028L13.4952 3.1284L12.8299 3.51827C12.6083 3.64859 12.3851 3.77588 12.1729 3.92084L11.5292 4.34274C11.3126 4.47996 11.1121 4.64039 10.903 4.78783C10.6977 4.9408 10.4847 5.08327 10.2864 5.24452L9.68895 5.72413C9.48703 5.88013 9.29646 6.04939 9.10645 6.21892L8.53504 6.7242L7.98911 7.25406C7.80741 7.4305 7.62377 7.605 7.45453 7.79276C6.06103 9.2556 4.83677 10.8515 3.83548 12.5402C2.85359 14.1968 2.04897 15.9517 1.43487 17.7759C0.223068 21.3432 -0.124546 24.9611 0.0372122 28.2289C0.00231242 26.8837 -0.00350421 24.9545 0.24578 23.0504ZM39.3369 48.0236C40.1786 47.4813 40.9891 46.8924 41.7646 46.2596C40.978 46.9054 40.1698 47.5018 39.3369 48.0236ZM50.4763 33.0357C50.3935 33.2845 50.3234 33.5303 50.232 33.765L49.9669 34.4616L49.8379 34.8062L49.6958 35.1461C49.6009 35.3751 49.5088 35.6053 49.4196 35.8366C48.9068 37.11 48.2968 38.3423 47.5951 39.5227C46.8969 40.7031 46.0875 41.8092 45.2228 42.8471C44.7957 43.3714 44.3303 43.8577 43.8728 44.3439L43.1579 45.0405C42.9233 45.2747 42.6665 45.4834 42.4233 45.7043C42.2195 45.881 42.0139 46.0539 41.807 46.2239C42.5755 45.5947 43.3058 44.9206 43.9941 44.205C42.9982 45.234 41.915 46.1752 40.7564 47.018C40.4695 47.2174 40.1922 47.4311 39.8942 47.6189L38.9948 48.1901L38.0448 48.7283C37.7215 48.9072 37.3803 49.0662 37.0382 49.2405C37.2832 49.0966 37.5312 48.9577 37.7819 48.8241C38.0647 48.6675 38.3614 48.4825 38.6511 48.3133C38.943 48.1473 39.2084 47.9651 39.4289 47.8127C39.6493 47.6603 39.8222 47.5338 39.9122 47.4521C39.7837 47.5391 39.6529 47.6225 39.5228 47.7072C39.6628 47.6152 39.8019 47.5217 39.9402 47.427C39.9343 47.4333 39.9222 47.4433 39.9122 47.4521C42.9402 45.3906 45.5197 42.6817 47.4525 39.5934C49.3939 36.5078 50.6572 33.0272 51.1807 29.4874C51.0671 30.9072 50.8062 32.0409 50.4763 33.0357ZM46.2933 11.4852C47.1269 12.7402 47.8473 14.0663 48.4463 15.448C48.5155 15.5995 48.5809 15.7533 48.6455 15.9074C50.0201 19.2633 50.6455 22.8632 50.5539 26.4096C50.5771 25.2361 50.499 24.0632 50.3686 22.9002C50.2209 21.56 49.9481 20.2357 49.5864 18.9405C48.8767 16.3431 47.7242 13.8813 46.2612 11.6371C46.3955 11.8221 46.5371 12.0225 46.6836 12.2351C46.8405 12.4552 46.9874 12.6821 47.124 12.9152L46.9473 12.609L46.7564 12.3111L46.3747 11.7158C46.1149 11.3226 45.8332 10.9437 45.5621 10.5583C45.2679 10.19 44.989 9.80948 44.6829 9.45081C44.4514 9.18767 44.2295 8.9157 43.9946 8.65588C44.8234 9.52702 45.6014 10.4617 46.2933 11.4852ZM26.8358 0.318129C27.2422 0.339665 27.6493 0.379149 28.0565 0.409522C28.39 0.437409 28.7218 0.486557 29.0503 0.523556C29.1489 0.527698 29.2531 0.534324 29.3838 0.548958C29.5143 0.566906 29.6702 0.600315 29.8738 0.646702C31.3886 0.898516 32.7707 1.27707 33.7518 1.66804C35.6347 2.37848 37.3867 3.26231 38.9757 4.2831C40.5653 5.30195 41.9918 6.46079 43.1986 7.72649C43.7548 8.32814 43.5925 8.19698 43.2858 7.90486L43.7462 8.39192C43.5423 8.18925 43.3421 7.98383 43.1352 7.78558L42.4978 7.2085C42.6529 7.3438 43.0291 7.66768 43.2858 7.90486C41.2392 5.82325 38.8469 4.09479 36.2574 2.82329C33.666 1.55235 30.8754 0.767363 28.0859 0.453976C28.534 0.503676 28.7539 0.51472 28.9633 0.520243C28.6628 0.485176 28.3615 0.437133 28.0565 0.409522C27.6468 0.382739 27.238 0.346292 26.8314 0.326412L25.6238 0.297973C26.0237 0.297696 26.4289 0.308741 26.8358 0.318129Z" fill="white"/>
<path d="M32.1156 50.9953L32.2335 50.9608C32.11 50.994 31.9884 51.0304 31.8641 51.0619C31.9483 51.0409 32.0327 51.0205 32.1156 50.9953ZM44.4363 40.3543C45.6093 38.8116 46.6458 36.9683 47.3075 35.3804L47.2995 35.382C45.6207 39.3365 42.8977 42.7432 39.4996 45.2514C40.103 44.8334 40.6957 44.4004 41.2773 43.9528C42.0246 43.1742 43.2752 41.9079 44.4363 40.3543ZM9.79297 44.9639C11.7795 46.7344 14.1751 48.2751 16.8416 49.313C17.8814 49.7031 18.9425 50.045 20.0278 50.2857C20.5662 50.4243 21.116 50.5099 21.6617 50.6118C21.9351 50.6601 22.212 50.6869 22.4868 50.7256C22.7621 50.7612 23.0369 50.8015 23.3142 50.8175C22.0625 50.6792 20.8199 50.4721 19.6103 50.1438C18.4016 49.8166 17.2167 49.4121 16.0736 48.9154C14.9364 48.4107 13.8356 47.8282 12.7791 47.172C11.7305 46.5071 10.7361 45.7647 9.79297 44.9639ZM34.3134 48.1202L33.6988 48.3607L33.0711 48.5694C32.6557 48.7185 32.2272 48.8301 31.7998 48.9485C32.2294 48.8408 32.6615 48.7403 33.0806 48.6023L33.7129 48.4095L34.3306 48.1845C34.3068 48.1724 34.1661 48.1997 34.3134 48.1202ZM27.0581 49.6907C26.7368 49.718 26.4139 49.7156 26.0904 49.7189C25.7668 49.7227 25.4428 49.7296 25.1184 49.7084L25.5549 49.7492C25.6884 49.7578 25.8087 49.768 25.9136 49.7804C26.2962 49.7479 26.6759 49.7387 27.0581 49.6907ZM14.2499 46.7208C14.6213 46.9381 15.0158 47.1295 15.4071 47.3404C15.5052 47.394 15.683 47.455 15.906 47.5362C15.4293 47.3322 14.9725 47.0792 14.5083 46.8445C14.2784 46.7228 14.0571 46.5864 13.8317 46.4594C13.6067 46.3312 13.3827 46.2034 13.1699 46.0604L13.4295 46.2332L13.7001 46.3945L14.2499 46.7208Z" fill="white"/>
<path d="M42.239 15.5117C42.2916 15.6166 42.2916 15.7214 42.2127 15.8001C42.1602 15.8787 42.055 15.9573 41.9498 16.0098C41.7394 16.0884 41.5028 16.0622 41.2135 15.8787C41.082 15.8263 40.9768 15.7739 40.8717 15.7214C40.8717 15.7214 40.8454 15.7214 40.8454 15.6952L13.9448 15.2496C14.5233 15.3807 15.1281 15.5117 15.7329 15.6952C17.5999 16.1933 19.2039 16.7962 20.5713 17.4515C22.3068 18.2903 23.5953 19.234 24.4368 20.3087C25.0153 21.0165 25.3834 21.7505 25.5412 22.5631C27.0401 19.1291 28.2234 16.4554 28.3549 16.2195C28.3549 16.2195 28.5652 15.9049 28.8282 16.0098C29.1174 16.1146 29.0386 16.534 29.0386 16.534C28.276 18.1855 26.9875 20.9903 25.6201 24.0834C25.6201 24.1096 25.6201 24.1096 25.5938 24.1359C23.2009 29.5096 21.4917 33.7299 20.7817 36.823C20.7554 36.823 20.7554 36.7968 20.7554 36.7968C20.7554 36.7968 20.6502 37.3473 20.3346 37.3997C19.9928 37.4521 19.7035 36.9803 19.7035 36.9803C19.5721 36.4036 22.149 30.2697 24.9627 23.8475C25.0416 22.7203 24.6997 21.6718 23.9372 20.7019C22.5172 18.9456 19.6246 17.4253 15.5751 16.3243C12.4722 15.4855 9.79002 15.171 9.76372 15.171C9.76372 15.171 9.47447 15.2234 9.42188 14.9088C9.42188 14.5943 9.71113 14.5418 9.79002 14.5156L40.898 15.0399C41.1872 15.0399 41.4502 15.0661 41.6868 15.1185C41.9761 15.171 42.1865 15.302 42.239 15.5117ZM35.2529 16.9797C35.5685 17.0845 35.4896 17.5301 35.4896 17.5301C34.1485 20.4398 32.9652 22.93 31.9922 25.5776C32.2289 25.5514 32.5181 25.5252 32.7548 25.5252H32.8337C33.0704 25.5252 33.4122 25.5514 33.4911 25.7611L33.5174 25.8397L33.4911 25.9183C33.3859 26.3378 32.1763 26.5213 31.7556 26.5999L31.7293 26.731H31.5715C31.0193 28.2775 30.546 29.9027 30.1252 31.7115C30.1252 31.6852 30.1252 31.6852 30.0989 31.6852C30.0989 31.6852 29.9937 32.2881 29.6256 32.3406C29.2575 32.4192 28.9419 31.8687 28.9419 31.8687C28.8367 31.4231 29.6519 29.195 30.6248 26.7572C30.02 26.8358 29.3889 26.9144 28.7578 26.9669C28.6001 26.9931 28.4686 26.9931 28.3108 26.9931C27.8901 26.9931 27.4956 26.862 27.4956 26.5212C27.4956 26.4164 27.5482 26.3115 27.6271 26.1543C28.2582 24.9485 28.863 23.7164 29.3889 22.4844L29.4415 22.4058C29.9412 21.1738 30.4145 19.968 30.8878 18.7359C31.0456 18.3165 31.2034 17.8709 31.3348 17.4515C31.5189 17.0059 31.703 16.4554 31.9396 16.036L32.0448 15.9049C32.2026 15.6952 32.413 15.5642 32.5707 15.5642C32.7285 15.5642 32.8863 15.7214 32.9126 16.0622V16.1146C32.9126 16.901 32.0185 18.3952 31.703 19.0767L31.3348 19.9155C31.3085 19.9417 31.3085 19.968 31.3085 20.0204C30.8615 21.0689 30.4145 22.1437 29.9412 23.1922C29.6782 23.8213 29.3889 24.4504 29.0997 25.0533C28.9682 25.3941 28.8104 25.7349 28.6527 26.0232C29.1523 25.997 29.6519 25.9183 30.1515 25.8397C30.4145 25.8135 30.7037 25.7611 30.993 25.7086L31.0719 25.6562C31.2296 25.2892 31.3874 24.896 31.5452 24.529C32.7548 21.6718 34.7007 17.2418 34.727 17.1894C34.727 17.1894 34.9637 16.8486 35.2529 16.9797Z" fill="white"/>
<path d="M67.1409 18.3185H63.4733V26.0995H61.536V18.3185H58V16.3874H67.1409V18.3185ZM74.828 22.8747H75.0913L73.1916 19.2748L70.8782 23.7184C71.3045 23.4934 71.7873 23.3121 72.3265 23.1746C73.1039 22.9746 73.9377 22.8747 74.828 22.8747ZM72.1948 17.3811L71.5553 16.1624H73.643L78.9094 26.0995H76.7841L76.0129 24.6371H74.8468C74.107 24.6371 73.3233 24.7246 72.4957 24.8996C71.7935 25.0371 71.1541 25.2246 70.5773 25.4621C70.0506 25.6621 69.7309 25.8371 69.618 25.9871L69.5616 26.0995H67.5303L72.1948 17.3811ZM88.1764 26.0995H80.9915V16.3874H83.004V24.1496H88.1764V26.0995ZM94.5845 22.3497L92.1205 26.0995H90.0704V16.3874H92.1205V22.6122L96.6158 16.3874H99.0985L95.8822 20.756L97.3117 23.1559C97.575 23.5184 97.8571 23.7621 98.1581 23.8871C98.3712 23.9746 98.6346 24.0184 98.948 24.0184H99.6251V26.0995H98.7788C98.39 26.0995 98.0766 26.0683 97.8383 26.0058C97.5374 25.9308 97.2427 25.7933 96.9543 25.5933C96.6409 25.3558 96.3023 25.0121 95.9387 24.5621L94.5845 22.3497ZM108.648 20.4747V14.3437L103.814 20.4747H108.648ZM112.033 22.5184H110.717V26.0995H108.648V22.5184H101.237V20.4747L108.177 12H110.717V20.4747H112.804L112.033 22.5184ZM117.557 22.6122V24.1496H123.67V26.0995H115.639V16.3874H123.313V18.3185H117.557V20.681C117.946 20.456 118.416 20.2997 118.968 20.2122C119.394 20.1497 119.94 20.1185 120.604 20.1185H122.034V22.0497H120.604C119.739 22.0497 119.112 22.0872 118.723 22.1622C118.385 22.2247 117.996 22.3747 117.557 22.6122ZM135.946 16.3874L131.639 26.0995H129.138L124.906 16.3874H127.087L130.379 24.1309L133.746 16.3874H135.946ZM139.947 22.6122V24.1496H146.06V26.0995H138.028V16.3874H145.702V18.3185H139.947V20.681C140.336 20.456 140.806 20.2997 141.357 20.2122C141.784 20.1497 142.329 20.1185 142.994 20.1185H144.423V22.0497H142.994C142.129 22.0497 141.502 22.0872 141.113 22.1622C140.774 22.2247 140.386 22.3747 139.947 22.6122ZM155.91 22.1434L156.512 23.1559C156.725 23.5059 156.994 23.7496 157.32 23.8871C157.546 23.9746 157.822 24.0184 158.148 24.0184H158.825V26.0995H157.979C157.565 26.0995 157.239 26.0745 157.001 26.0246C156.649 25.9496 156.33 25.8121 156.041 25.6121C155.728 25.3746 155.427 25.0246 155.138 24.5621L153.634 22.1247H153.502C152.787 22.1247 152.242 22.1684 151.866 22.2559C151.565 22.3184 151.201 22.4622 150.775 22.6872V26.0995H148.8V16.3874H155.082C155.671 16.3874 156.198 16.5124 156.662 16.7623C157.126 17.0123 157.49 17.3623 157.753 17.8123C158.016 18.2623 158.148 18.7623 158.148 19.3123C158.148 20.0372 157.957 20.6341 157.574 21.1028C157.192 21.5716 156.637 21.9184 155.91 22.1434ZM153.502 20.1935H155.082C155.396 20.1935 155.656 20.1122 155.863 19.9497C156.07 19.7873 156.173 19.556 156.173 19.256C156.173 18.8685 156.022 18.606 155.722 18.4685C155.508 18.3685 155.182 18.3185 154.743 18.3185H150.775V20.756C151.465 20.381 152.374 20.1935 153.502 20.1935ZM170.104 16.3874L166.079 22.1809V26.0995H164.161V22.1809L160.061 16.3874H162.506L165.101 20.2122L167.772 16.3874H170.104ZM180.632 21.1685C180.632 20.481 180.443 19.8872 180.067 19.3873C179.741 18.9498 179.284 18.6123 178.694 18.3748C178.155 18.1623 177.559 18.0561 176.907 18.0561C176.255 18.0561 175.654 18.1686 175.102 18.3935C174.513 18.631 174.055 18.981 173.729 19.4435C173.365 19.9435 173.183 20.5435 173.183 21.2435C173.183 21.9434 173.371 22.5434 173.748 23.0434C174.074 23.4934 174.531 23.8434 175.121 24.0934C175.672 24.3184 176.268 24.4309 176.907 24.4309C177.547 24.4309 178.149 24.3059 178.713 24.0559C179.29 23.7934 179.748 23.4246 180.086 22.9496C180.45 22.4372 180.632 21.8434 180.632 21.1685ZM182.663 21.1497C182.663 22.2122 182.381 23.1559 181.816 23.9809C181.302 24.7433 180.594 25.3433 179.691 25.7808C178.826 26.1933 177.892 26.3995 176.889 26.3995C175.886 26.3995 174.951 26.1933 174.086 25.7808C173.196 25.3558 172.494 24.7683 171.98 24.0184C171.428 23.1934 171.152 22.2559 171.152 21.206C171.152 20.156 171.434 19.2248 171.998 18.4123C172.513 17.6623 173.221 17.0811 174.124 16.6686C174.989 16.2686 175.923 16.0686 176.926 16.0686C177.929 16.0686 178.857 16.2561 179.71 16.6311C180.6 17.0311 181.302 17.5998 181.816 18.3373C182.381 19.1373 182.663 20.0747 182.663 21.1497ZM184.087 16.3874H186.513L192.4 23.1371V16.3874H194.337V26.0995H192.4L186.983 19.781V26.0995H185.046V17.8311L184.087 16.3874ZM199.843 22.6122V24.1496H205.955V26.0995H197.924V16.3874H205.598V18.3185H199.843V20.681C200.231 20.456 200.702 20.2997 201.253 20.2122C201.68 20.1497 202.225 20.1185 202.89 20.1185H204.319V22.0497H202.89C202.024 22.0497 201.397 22.0872 201.009 22.1622C200.67 22.2247 200.281 22.3747 199.843 22.6122Z" fill="white"/>
<path d="M64.7853 36.2288V36.7893H63.6607V40.657H63.0419V36.7893H61.9141V36.2288H64.7853ZM69.1886 36.2288H69.8137V40.657H69.1886V38.7154H67.0053V40.657H66.3739V36.2288H67.0053V38.161H69.1886V36.2288ZM74.3267 36.7893H72.5486V38.1672H74.1162V38.7247H72.5486V40.0932H74.3267V40.6568H71.9109V36.2287H74.3267V36.7893ZM79.3286 40.657L78.0752 36.2288H78.7255L79.7496 39.8299L80.8365 36.2288H81.3831L82.47 39.8299L83.4973 36.2288H84.1444L82.891 40.657H82.1402L81.1098 37.3627L80.0794 40.657H79.3286ZM87.6837 40.7165C86.424 40.7165 85.4627 39.8522 85.4627 38.4398C85.4627 37.0306 86.424 36.1694 87.6837 36.1694C88.9371 36.1694 89.9015 37.0306 89.9015 38.4398C89.9015 39.8522 88.9371 40.7165 87.6837 40.7165ZM87.6837 40.1309C88.5727 40.1309 89.2764 39.5171 89.2764 38.4398C89.2764 37.372 88.5727 36.7582 87.6837 36.7582C86.7915 36.7582 86.0847 37.372 86.0847 38.4398C86.0847 39.5171 86.7915 40.1309 87.6837 40.1309ZM94.0847 40.657L92.935 38.6653H92.313V40.657H91.6878V36.2288H93.1831C94.113 36.2288 94.5371 36.7956 94.5371 37.4908C94.5371 38.1077 94.1727 38.5367 93.5633 38.6401L94.8167 40.6568L94.0847 40.657ZM92.313 36.7675V38.1893H93.0983C93.6764 38.1893 93.9371 37.9012 93.9371 37.4815C93.9371 37.0682 93.6763 36.7675 93.0983 36.7675H92.313ZM97.0962 40.0933H98.6135V40.657H96.471V36.2288H97.0962V40.0933ZM100.205 40.657V36.2288H101.669C103.035 36.2288 103.73 37.1432 103.73 38.4397C103.73 39.7455 103.035 40.6568 101.669 40.6568L100.205 40.657ZM100.83 40.0933H101.644C102.615 40.0933 103.076 39.4513 103.076 38.4398C103.076 37.4346 102.615 36.7895 101.644 36.7895H100.83V40.0933ZM110.821 40.657L110.45 39.6235H108.465L108.094 40.657H107.444L109.08 36.2288H109.834L111.471 40.657H110.821ZM108.659 39.0786H110.255L109.457 36.8458L108.659 39.0786ZM115.428 36.2288V36.7893H114.303V40.657H113.685V36.7893H112.557V36.2288H115.428ZM122.437 36.2288L120.977 38.5462V40.6568H120.345V38.5493L118.881 36.2288H119.591L120.659 37.9856L121.73 36.2288H122.437ZM125.895 40.7165C124.635 40.7165 123.674 39.8522 123.674 38.4398C123.674 37.0306 124.635 36.1694 125.895 36.1694C127.148 36.1694 128.113 37.0306 128.113 38.4398C128.113 39.8522 127.148 40.7165 125.895 40.7165ZM125.895 40.1309C126.784 40.1309 127.488 39.5171 127.488 38.4398C127.488 37.372 126.784 36.7582 125.895 36.7582C125.003 36.7582 124.296 37.372 124.296 38.4398C124.296 39.5171 125.003 40.1309 125.895 40.1309ZM131.441 40.7165C130.521 40.7165 129.808 40.1747 129.808 39.1757V36.2289H130.433V39.088C130.433 39.8177 130.873 40.1528 131.442 40.1528C132.01 40.1528 132.459 39.8145 132.459 39.088V36.2289H133.085V39.1757C133.085 40.1747 132.368 40.7165 131.441 40.7165ZM137.484 40.657L136.335 38.6653H135.713V40.657H135.088V36.2288H136.583C137.513 36.2288 137.937 36.7956 137.937 37.4908C137.937 38.1077 137.572 38.5367 136.963 38.6401L138.216 40.6568L137.484 40.657ZM135.713 36.7675V38.1893H136.498C137.076 38.1893 137.337 37.9012 137.337 37.4815C137.337 37.0682 137.076 36.7675 136.498 36.7675H135.713ZM144.726 36.7893H142.923V38.1641H144.491V38.7246H142.923V40.6568H142.285V36.2286H144.726V36.7893ZM146.39 40.657V36.2288H147.015V40.657H146.39ZM152.106 36.2288H152.728V40.657H152.053L149.731 37.1434V40.657H149.112V36.2288H149.782L152.106 39.7267L152.106 36.2288ZM156.714 40.7165C155.47 40.7165 154.515 39.8678 154.515 38.4555C154.515 37.0306 155.476 36.1694 156.736 36.1694C157.552 36.1694 158.253 36.5264 158.636 37.2029L158.083 37.4972C157.804 36.9774 157.304 36.7363 156.736 36.7363C155.837 36.7363 155.143 37.3438 155.143 38.443C155.143 39.5265 155.821 40.156 156.758 40.156C157.511 40.156 158.102 39.7332 158.206 38.8939H156.754V38.3741H158.812V40.657H158.303V39.8616C158.011 40.4033 157.461 40.7165 156.714 40.7165ZM163.108 36.7893H161.33V38.1672H162.898V38.7247H161.33V40.0932H163.108V40.6568H160.693V36.2287H163.108V36.7893ZM167.307 40.657L166.158 38.6653H165.536V40.657H164.91V36.2288H166.406C167.336 36.2288 167.76 36.7956 167.76 37.4908C167.76 38.1077 167.395 38.5367 166.786 38.6401L168.039 40.6568L167.307 40.657ZM165.536 36.7675V38.1893H166.321C166.899 38.1893 167.16 37.9012 167.16 37.4815C167.16 37.0682 166.899 36.7675 166.321 36.7675H165.536ZM174.474 36.2288V36.7893H173.349V40.657H172.73V36.7893H171.602V36.2288H174.474ZM176.062 40.657V36.2288H176.687V40.657H176.062ZM180.497 36.2288C181.31 36.2288 181.835 36.8426 181.835 37.6004C181.835 38.3677 181.31 38.9595 180.497 38.9595H179.41V40.6568H178.785V36.2287L180.497 36.2288ZM180.402 38.421C180.924 38.421 181.216 38.0859 181.216 37.5911C181.216 37.1151 180.924 36.7644 180.402 36.7644H179.41V38.421H180.402ZM184.922 40.7165C183.995 40.7165 183.316 40.2749 183.166 39.5233L183.803 39.373C183.904 39.8897 184.353 40.1872 184.944 40.1872C185.418 40.1872 185.874 39.9931 185.864 39.4607C185.858 38.9346 185.286 38.7906 184.68 38.6246C183.992 38.4367 183.304 38.2206 183.304 37.4064C183.304 36.5828 183.986 36.1695 184.793 36.1695C185.575 36.1695 186.279 36.4983 186.445 37.2593L185.839 37.4127C185.729 36.921 185.318 36.7018 184.821 36.7018C184.375 36.7018 183.932 36.896 183.932 37.4002C183.932 37.8574 184.428 37.992 184.991 38.1424C185.698 38.3334 186.508 38.5526 186.508 39.4419C186.508 40.3376 185.754 40.7165 184.922 40.7165Z" fill="white"/>
</svg>
