<svg width="206" height="53" viewBox="0 0 206 53" fill="none" xmlns="http://www.w3.org/2000/svg">
<path d="M6.27398 43.2807C6.7875 43.8813 7.32924 44.4572 7.89738 45.0067C9.81244 46.8856 12.0962 48.465 14.5461 49.6595C15.4488 50.0808 16.2814 50.5173 17.2569 50.8931C17.5006 50.9865 17.7497 51.0864 18.0114 51.1764C18.2754 51.2598 18.549 51.3432 18.8351 51.4258C19.1196 51.5144 19.4229 51.5773 19.74 51.6428C20.0575 51.7063 20.3871 51.7789 20.7411 51.8151C18.985 51.4461 17.2734 50.8916 15.6352 50.1612C13.9867 49.4199 12.4204 48.5091 10.9616 47.4437C8.04002 45.3102 5.54109 42.5708 3.71577 39.4395C3.64043 39.3459 3.52604 39.1675 3.38893 38.9403L3.16845 38.568L2.94604 38.1398C2.79813 37.8427 2.62778 37.5412 2.49732 37.2491C2.38034 36.9936 2.25789 36.7406 2.13004 36.4903C2.6973 37.8988 3.35209 39.1308 4.08526 40.3023C4.42298 40.8396 4.78043 41.3643 5.15691 41.8753C5.10373 41.8038 5.04833 41.7342 4.99543 41.6624C5.39887 42.2164 5.8239 42.7544 6.26955 43.2752L6.27398 43.2807ZM0.368158 29.7794L0.234375 28.7095C0.305283 29.3625 0.387546 30.0922 0.537948 30.8228L0.447375 30.304C0.413943 30.1303 0.387516 29.9553 0.368158 29.7794ZM23.7668 51.7394C25.6093 51.9252 27.5415 51.8697 29.4342 51.5713C31.3279 51.2739 33.1801 50.7465 34.9021 50.0667C31.7306 51.3101 28.3647 51.8631 25.072 51.7706C24.6313 51.7637 24.197 51.7706 23.7668 51.7394Z" fill="#FD026F"/>
<path d="M12.8608 47.982L12.7891 47.9365C12.8132 47.9517 12.8367 47.9671 12.8608 47.982ZM15.534 49.4501C17.0522 50.1543 18.6424 50.6927 20.2767 51.056C17.5933 50.4458 15.0681 49.3692 12.8608 47.982C13.7084 48.5196 14.5994 49.0172 15.534 49.4501ZM49.0281 30.0698C49.0552 29.6336 49.1101 29.1758 49.1239 28.9579C49.2885 27.5577 49.3372 26.3622 49.3303 25.1628C49.2998 24.9466 49.2126 24.5415 49.1779 24.0809C49.1356 23.6193 49.0732 23.1673 49.0206 22.7214C48.9406 22.2793 48.8716 21.8417 48.7841 21.4126C49.4142 24.6202 49.4037 27.8402 48.824 30.8783C48.8877 30.6077 48.9557 30.3382 49.0281 30.0698Z" fill="#FD026F"/>
<path d="M0.24578 23.5504C0.480661 21.6453 0.980615 19.7881 1.45619 18.5509L1.26369 19.4565C1.38252 19.1912 1.57447 18.5746 1.83621 17.9222L2.02512 17.4246L2.23368 16.9422C2.37218 16.63 2.48851 16.334 2.61121 16.107C2.52729 16.3199 2.44641 16.5493 2.34891 16.7796C2.25335 17.0107 2.14616 17.2454 2.04395 17.4815L2.4633 16.5402C2.04018 17.5968 1.67595 18.676 1.37227 19.7727C1.05845 20.9743 0.810271 22.2372 0.676765 23.371C0.637988 23.6537 0.624415 23.9298 0.59921 24.1932C0.580652 24.4566 0.548522 24.7079 0.546029 24.9453C0.534396 25.42 0.518331 25.8355 0.526364 26.168C0.555447 26.8331 0.595609 27.1647 0.653499 26.9795C0.767338 26.6114 0.765123 24.7187 1.16232 22.3499C1.37476 21.1692 1.67972 19.8743 2.09353 18.6055C2.5043 17.3357 3.04275 16.1045 3.60032 15.0183L3.43634 15.375L3.28539 15.7425L2.97627 16.4855L2.69264 17.2531L2.54834 17.6402C2.50596 17.7717 2.46303 17.9037 2.42065 18.0362C2.05503 19.0874 1.78165 20.1943 1.54344 21.3101L1.38861 22.1527C1.33183 22.4327 1.30773 22.7177 1.26563 22.9996C1.17755 23.5631 1.14542 24.1308 1.09639 24.6919C1.04127 25.8168 1.03019 26.9278 1.1324 27.9903C1.12825 27.7379 1.12409 27.5137 1.12769 27.2967L1.15955 26.6465C1.17284 26.4231 1.17035 26.1862 1.1914 25.9148C1.21079 25.6434 1.22851 25.3374 1.24403 24.9754C1.35233 23.1509 1.67944 21.3446 2.18798 19.5965C2.6727 17.841 3.24439 16.295 4.09612 14.8943L4.31798 14.473C4.4681 14.1902 4.59302 13.9114 4.75173 13.627C4.9326 13.315 5.10572 13.0814 5.24587 12.8674C5.39018 12.6556 5.51261 12.4695 5.65276 12.2889L6.67261 10.8857C6.69338 10.8832 6.66651 10.9368 6.61721 11.0163C6.78536 10.7775 6.9665 10.5479 7.15982 10.3288C7.36894 10.0872 7.57197 9.83097 7.74398 9.61947C7.78442 9.61754 7.82375 9.61644 7.91654 9.55017C10.3124 7.01077 13.2609 4.94131 16.5836 3.63668L17.3223 3.3498L18.0702 3.10157L18.4422 2.97788L18.8189 2.87295L19.5695 2.66504C19.9988 2.56205 20.4337 2.45768 20.8771 2.3638L21.5521 2.24618C21.779 2.20725 22.0069 2.16335 22.2401 2.14181C22.7038 2.08631 23.1082 1.96924 23.3262 1.94052C24.5363 1.87177 25.7442 1.88558 27.1621 2.00016C27.2721 2.0021 27.4433 2.01204 27.6419 2.02281C27.8405 2.03413 28.0676 2.03965 28.2878 2.0598C28.5459 2.11779 28.8215 2.17522 29.1107 2.23127C30.8748 2.50407 32.5805 2.99168 34.2033 3.64027L34.2014 3.63254L34.8229 3.87938L35.4572 4.17151C35.8923 4.36037 36.3186 4.60197 36.759 4.82948C36.98 4.94186 37.1894 5.07909 37.4066 5.20334C37.6199 5.33422 37.8431 5.45018 38.0492 5.59321C38.4669 5.86987 38.8904 6.13467 39.2807 6.43038C39.9099 6.88303 40.5198 7.36186 41.1088 7.86561C41.1215 7.87721 41.1348 7.88798 41.1475 7.8993L41.1592 7.90979L41.5627 8.27481L41.9488 8.65888L42.3352 9.04323C42.4632 9.17217 42.5817 9.31023 42.7056 9.44331C42.6457 9.34667 42.6479 9.30774 42.6502 9.26936C42.4593 9.08713 42.2336 8.87149 42.0106 8.65916C42.3826 8.99656 42.7072 9.30167 42.9737 9.55072C43.0764 9.6816 43.1886 9.81027 43.295 9.95081L43.6235 10.3832L43.9728 10.833L44.3204 11.3167C44.9369 12.1003 45.4812 12.9386 45.998 13.7935C46.2374 14.2319 46.5013 14.658 46.7143 15.1116L47.0503 15.7842L47.3528 16.4737C47.4397 16.6208 47.406 16.4798 47.4168 16.4549C47.7561 17.2727 48.0289 18.1232 48.276 18.9802C48.7482 20.5291 49.0645 22.121 49.2199 23.7324C49.2822 24.1129 49.3088 24.4978 49.3639 24.8791L49.3299 25.6864C49.3296 25.991 49.3457 26.2955 49.3326 26.6006L49.2972 27.519C49.2928 27.7261 49.2628 27.9522 49.2454 28.1979C49.2221 28.4431 49.2099 28.7076 49.1745 28.9865L49.0604 29.8679C49.0238 30.1768 48.9532 30.4944 48.8989 30.8263C48.6285 32.2836 48.2289 33.7142 47.7045 35.101C47.6375 35.3291 47.5863 35.5113 47.5406 35.6132C47.3669 36.0276 47.1816 36.4288 47.0027 36.824C46.8024 37.2089 46.6188 37.5938 46.4135 37.9582C45.7788 39.1581 45.0422 40.3016 44.2118 41.3762C44.1187 41.4974 44.032 41.6206 43.9384 41.7343L43.662 42.0673C43.4792 42.2824 43.3158 42.4975 43.1424 42.6842C42.7959 43.0575 42.505 43.4037 42.2322 43.6641C41.9198 43.9893 41.9477 44.0045 42.1641 43.8477C42.3159 43.7359 42.4644 43.6197 42.6094 43.4992L43.1972 42.9708C43.4121 42.7838 43.6179 42.5729 43.8163 42.3741C44.0124 42.1739 44.2085 41.9914 44.3597 41.8263C44.6647 41.4974 44.8649 41.2945 44.8223 41.3848C44.3301 42.3084 43.4337 43.4476 42.1236 44.7078C41.4553 45.3227 40.7032 45.9909 39.8139 46.635C39.3801 46.9722 38.8979 47.2806 38.4062 47.6174C37.8982 47.9275 37.3792 48.2671 36.8116 48.5687C35.5697 49.2429 37.7437 48.1614 37.8024 48.1512C37.5927 48.3158 37.3728 48.467 37.144 48.604C36.7346 48.821 36.3289 49.0449 35.9048 49.2316C35.6569 49.3451 35.4134 49.4677 35.1628 49.5737L34.4069 49.8835L34.8068 49.7267C35.6245 49.4028 36.3887 49.0212 37.0787 48.6438C36.8194 48.8 36.5358 48.9809 36.225 49.1441C35.8918 49.3158 35.5469 49.5036 35.201 49.6712L34.1969 50.1367C37.7888 48.8359 41.0896 46.6834 43.7027 43.8772C45.0109 42.4785 46.1775 40.9419 47.1287 39.2797C48.0858 37.6209 48.8557 35.8616 49.4243 34.0338C48.5507 36.7756 47.1888 39.2943 45.5518 41.424C48.5277 37.4184 50.3021 32.5075 50.5372 27.4428C50.537 27.7219 50.5093 28 50.4907 28.278C50.4677 28.5561 50.4566 28.8352 50.424 29.1124C50.3528 29.666 50.3018 30.2227 50.1949 30.7716C50.0221 31.876 49.7417 32.9614 49.4243 34.0338C50.0509 32.0953 50.4251 30.0512 50.5724 27.9956C50.7259 25.9382 50.5979 23.8685 50.2796 21.8628C50.8264 24.5196 50.917 27.5298 50.4511 30.5046C50.7785 28.5859 50.8616 26.6081 50.7358 24.6471C50.7076 23.8981 50.619 23.1542 50.5461 22.4656C50.4417 21.7819 50.3627 21.1507 50.2616 20.6402C50.6619 22.5249 50.8198 24.1325 50.8968 25.6478C50.8228 22.3408 50.1356 18.9902 48.7862 15.8428C49.5227 17.5522 50.1273 19.3911 50.4965 21.2816C50.8677 23.1702 51.022 25.1025 50.9342 26.9612C50.93 26.7437 50.9391 26.5264 50.9264 26.308L50.8968 25.6478C50.9763 28.6436 50.5134 31.6129 49.5961 34.4052C49.1357 35.8012 48.5671 37.1578 47.8788 38.4486C47.1918 39.7374 46.3988 40.9672 45.5078 42.1253C46.5252 40.9408 47.5993 39.2664 48.4565 37.4273C49.3099 35.5842 49.9434 33.591 50.3791 31.8501C49.7381 34.9762 48.466 38.0609 46.6202 40.8157C44.7793 43.5727 42.3682 45.9967 39.5784 47.8571C36.792 49.7234 33.6305 51.015 30.3862 51.6531C28.7753 51.972 27.1378 52.1392 25.4955 52.1526C23.8831 52.1612 22.2734 52.0211 20.6868 51.7343L21.5192 51.8919C21.7967 51.9444 22.0781 51.9734 22.3573 52.0148C22.9157 52.1043 23.4805 52.138 24.0433 52.1896C25.1714 52.2528 26.3057 52.2741 27.4363 52.1882C28.5689 52.1283 29.6943 51.9599 30.8144 51.7542C31.37 51.6283 31.9323 51.5253 32.481 51.3637C32.7563 51.287 33.035 51.2199 33.3084 51.1346L34.1269 50.87C33.7136 50.9976 33.2787 51.1666 32.8142 51.2906L32.2323 51.4612C33.4535 51.1366 34.6488 50.7216 35.8081 50.2198C36.3385 49.9891 36.8605 49.74 37.3734 49.4729C36.4125 49.981 35.4215 50.4302 34.4058 50.8181C32.469 51.5387 30.4562 52.0372 28.4063 52.3042C28.0989 52.3528 27.8186 52.368 27.5673 52.3942L26.8948 52.4605C26.499 52.4917 26.2068 52.5057 26.0024 52.5281C25.5933 52.5687 25.5351 52.6065 25.698 52.6377C25.8606 52.6689 26.2439 52.6938 26.7153 52.707C27.1854 52.7043 27.743 52.6791 28.2501 52.633C33.3458 52.112 38.0243 50.1185 41.7735 47.134C45.5252 44.1489 48.3987 40.1837 50.0002 35.6844C50.1007 35.4232 50.178 35.1538 50.2616 34.8865C50.3428 34.6184 50.4325 34.353 50.5059 34.0824C50.6419 33.5385 50.8029 33.0009 50.907 32.4487L51.0785 31.6245L51.2134 30.7928L51.2801 30.3767L51.3277 29.9579L51.4225 29.1202C51.6158 26.8798 51.5394 24.6154 51.1976 22.3932C51.0148 21.1358 50.6935 19.6429 50.2794 18.3131L49.9608 17.3512C49.85 17.0455 49.7323 16.7572 49.6276 16.4861L49.4734 16.0954L49.3152 15.7445L49.0435 15.158C48.1754 13.4022 47.0847 11.7276 45.8078 10.17C44.5323 8.61194 43.0667 7.16926 41.4145 5.91295L40.793 5.44273L40.1485 4.99874L39.8255 4.77619L39.4923 4.56745L38.8228 4.15108C37.9102 3.62536 36.9753 3.11869 35.9898 2.69845C35.0146 2.25722 33.9939 1.89911 32.9549 1.57882C32.4301 1.43524 31.9077 1.27509 31.3695 1.16493C31.1014 1.10722 30.8355 1.03709 30.5643 0.988766L29.7489 0.844912C27.7989 0.502809 25.7706 0.421356 23.7442 0.573217C21.7189 0.729221 19.685 1.11246 17.7347 1.77403L17.0049 2.02612C16.7609 2.10812 16.5257 2.21443 16.2856 2.30748C16.0479 2.4066 15.805 2.4933 15.5718 2.60264L14.8705 2.92652C14.6345 3.03034 14.4065 3.14962 14.1791 3.27028L13.4952 3.6284L12.8299 4.01827C12.6083 4.14859 12.3851 4.27588 12.1729 4.42084L11.5292 4.84274C11.3126 4.97996 11.1121 5.14039 10.903 5.28783C10.6977 5.4408 10.4847 5.58327 10.2864 5.74452L9.68895 6.22413C9.48703 6.38013 9.29646 6.54939 9.10645 6.71892L8.53504 7.2242L7.98911 7.75406C7.80741 7.9305 7.62377 8.105 7.45453 8.29276C6.06103 9.7556 4.83677 11.3515 3.83548 13.0402C2.85359 14.6968 2.04897 16.4517 1.43487 18.2759C0.223068 21.8432 -0.124546 25.4611 0.0372122 28.7289C0.00231242 27.3837 -0.00350421 25.4545 0.24578 23.5504ZM39.3369 48.5236C40.1786 47.9813 40.9891 47.3924 41.7646 46.7596C40.978 47.4054 40.1698 48.0018 39.3369 48.5236ZM50.4763 33.5357C50.3935 33.7845 50.3234 34.0303 50.232 34.265L49.9669 34.9616L49.8379 35.3062L49.6958 35.6461C49.6009 35.8751 49.5088 36.1053 49.4196 36.3366C48.9068 37.61 48.2968 38.8423 47.5951 40.0227C46.8969 41.2031 46.0875 42.3092 45.2228 43.3471C44.7957 43.8714 44.3303 44.3577 43.8728 44.8439L43.1579 45.5405C42.9233 45.7747 42.6665 45.9834 42.4233 46.2043C42.2195 46.381 42.0139 46.5539 41.807 46.7239C42.5755 46.0947 43.3058 45.4206 43.9941 44.705C42.9982 45.734 41.915 46.6752 40.7564 47.518C40.4695 47.7174 40.1922 47.9311 39.8942 48.1189L38.9948 48.6901L38.0448 49.2283C37.7215 49.4072 37.3803 49.5662 37.0382 49.7405C37.2832 49.5966 37.5312 49.4577 37.7819 49.3241C38.0647 49.1675 38.3614 48.9825 38.6511 48.8133C38.943 48.6473 39.2084 48.4651 39.4289 48.3127C39.6493 48.1603 39.8222 48.0338 39.9122 47.9521C39.7837 48.0391 39.6529 48.1225 39.5228 48.2072C39.6628 48.1152 39.8019 48.0217 39.9402 47.927C39.9343 47.9333 39.9222 47.9433 39.9122 47.9521C42.9402 45.8906 45.5197 43.1817 47.4525 40.0934C49.3939 37.0078 50.6572 33.5272 51.1807 29.9874C51.0671 31.4072 50.8062 32.5409 50.4763 33.5357ZM46.2933 11.9852C47.1269 13.2402 47.8473 14.5663 48.4463 15.948C48.5155 16.0995 48.5809 16.2533 48.6455 16.4074C50.0201 19.7633 50.6455 23.3632 50.5539 26.9096C50.5771 25.7361 50.499 24.5632 50.3686 23.4002C50.2209 22.06 49.9481 20.7357 49.5864 19.4405C48.8767 16.8431 47.7242 14.3813 46.2612 12.1371C46.3955 12.3221 46.5371 12.5225 46.6836 12.7351C46.8405 12.9552 46.9874 13.1821 47.124 13.4152L46.9473 13.109L46.7564 12.8111L46.3747 12.2158C46.1149 11.8226 45.8332 11.4437 45.5621 11.0583C45.2679 10.69 44.989 10.3095 44.6829 9.95081C44.4514 9.68767 44.2295 9.4157 43.9946 9.15588C44.8234 10.027 45.6014 10.9617 46.2933 11.9852ZM26.8358 0.818129C27.2422 0.839665 27.6493 0.879149 28.0565 0.909522C28.39 0.937409 28.7218 0.986557 29.0503 1.02356C29.1489 1.0277 29.2531 1.03432 29.3838 1.04896C29.5143 1.06691 29.6702 1.10032 29.8738 1.1467C31.3886 1.39852 32.7707 1.77707 33.7518 2.16804C35.6347 2.87848 37.3867 3.76231 38.9757 4.7831C40.5653 5.80195 41.9918 6.96079 43.1986 8.22649C43.7548 8.82814 43.5925 8.69698 43.2858 8.40486L43.7462 8.89192C43.5423 8.68925 43.3421 8.48383 43.1352 8.28558L42.4978 7.7085C42.6529 7.8438 43.0291 8.16768 43.2858 8.40486C41.2392 6.32325 38.8469 4.59479 36.2574 3.32329C33.666 2.05235 30.8754 1.26736 28.0859 0.953976C28.534 1.00368 28.7539 1.01472 28.9633 1.02024C28.6628 0.985176 28.3615 0.937133 28.0565 0.909522C27.6468 0.882739 27.238 0.846292 26.8314 0.826412L25.6238 0.797973C26.0237 0.797696 26.4289 0.808741 26.8358 0.818129Z" fill="#FD026F"/>
<path d="M32.1156 51.4953L32.2335 51.4608C32.11 51.494 31.9884 51.5304 31.8641 51.5619C31.9483 51.5409 32.0327 51.5205 32.1156 51.4953ZM44.4363 40.8543C45.6093 39.3116 46.6458 37.4683 47.3075 35.8804L47.2995 35.882C45.6207 39.8365 42.8977 43.2432 39.4996 45.7514C40.103 45.3334 40.6957 44.9004 41.2773 44.4528C42.0246 43.6742 43.2752 42.4079 44.4363 40.8543ZM9.79297 45.4639C11.7795 47.2344 14.1751 48.7751 16.8416 49.813C17.8814 50.2031 18.9425 50.545 20.0278 50.7857C20.5662 50.9243 21.116 51.0099 21.6617 51.1118C21.9351 51.1601 22.212 51.1869 22.4868 51.2256C22.7621 51.2612 23.0369 51.3015 23.3142 51.3175C22.0625 51.1792 20.8199 50.9721 19.6103 50.6438C18.4016 50.3166 17.2167 49.9121 16.0736 49.4154C14.9364 48.9107 13.8356 48.3282 12.7791 47.672C11.7305 47.0071 10.7361 46.2647 9.79297 45.4639ZM34.3134 48.6202L33.6988 48.8607L33.0711 49.0694C32.6557 49.2185 32.2272 49.3301 31.7998 49.4485C32.2294 49.3408 32.6615 49.2403 33.0806 49.1023L33.7129 48.9095L34.3306 48.6845C34.3068 48.6724 34.1661 48.6997 34.3134 48.6202ZM27.0581 50.1907C26.7368 50.218 26.4139 50.2156 26.0904 50.2189C25.7668 50.2227 25.4428 50.2296 25.1184 50.2084L25.5549 50.2492C25.6884 50.2578 25.8087 50.268 25.9136 50.2804C26.2962 50.2479 26.6759 50.2387 27.0581 50.1907ZM14.2499 47.2208C14.6213 47.4381 15.0158 47.6295 15.4071 47.8404C15.5052 47.894 15.683 47.955 15.906 48.0362C15.4293 47.8322 14.9725 47.5792 14.5083 47.3445C14.2784 47.2228 14.0571 47.0864 13.8317 46.9594C13.6067 46.8312 13.3827 46.7034 13.1699 46.5604L13.4295 46.7332L13.7001 46.8945L14.2499 47.2208Z" fill="#FD026F"/>
<path d="M42.239 16.0117C42.2916 16.1166 42.2916 16.2214 42.2127 16.3001C42.1602 16.3787 42.055 16.4573 41.9498 16.5098C41.7394 16.5884 41.5028 16.5622 41.2135 16.3787C41.082 16.3263 40.9768 16.2739 40.8717 16.2214C40.8717 16.2214 40.8454 16.2214 40.8454 16.1952L13.9448 15.7496C14.5233 15.8807 15.1281 16.0117 15.7329 16.1952C17.5999 16.6933 19.2039 17.2962 20.5713 17.9515C22.3068 18.7903 23.5953 19.734 24.4368 20.8087C25.0153 21.5165 25.3834 22.2505 25.5412 23.0631C27.0401 19.6291 28.2234 16.9554 28.3549 16.7195C28.3549 16.7195 28.5652 16.4049 28.8282 16.5098C29.1174 16.6146 29.0386 17.034 29.0386 17.034C28.276 18.6855 26.9875 21.4903 25.6201 24.5834C25.6201 24.6096 25.6201 24.6096 25.5938 24.6359C23.2009 30.0096 21.4917 34.2299 20.7817 37.323C20.7554 37.323 20.7554 37.2968 20.7554 37.2968C20.7554 37.2968 20.6502 37.8473 20.3346 37.8997C19.9928 37.9521 19.7035 37.4803 19.7035 37.4803C19.5721 36.9036 22.149 30.7697 24.9627 24.3475C25.0416 23.2203 24.6997 22.1718 23.9372 21.2019C22.5172 19.4456 19.6246 17.9253 15.5751 16.8243C12.4722 15.9855 9.79002 15.671 9.76372 15.671C9.76372 15.671 9.47447 15.7234 9.42188 15.4088C9.42188 15.0943 9.71113 15.0418 9.79002 15.0156L40.898 15.5399C41.1872 15.5399 41.4502 15.5661 41.6868 15.6185C41.9761 15.671 42.1865 15.802 42.239 16.0117ZM35.2529 17.4797C35.5685 17.5845 35.4896 18.0301 35.4896 18.0301C34.1485 20.9398 32.9652 23.43 31.9922 26.0776C32.2289 26.0514 32.5181 26.0252 32.7548 26.0252H32.8337C33.0704 26.0252 33.4122 26.0514 33.4911 26.2611L33.5174 26.3397L33.4911 26.4183C33.3859 26.8378 32.1763 27.0213 31.7556 27.0999L31.7293 27.231H31.5715C31.0193 28.7775 30.546 30.4027 30.1252 32.2115C30.1252 32.1852 30.1252 32.1852 30.0989 32.1852C30.0989 32.1852 29.9937 32.7881 29.6256 32.8406C29.2575 32.9192 28.9419 32.3687 28.9419 32.3687C28.8367 31.9231 29.6519 29.695 30.6248 27.2572C30.02 27.3358 29.3889 27.4144 28.7578 27.4669C28.6001 27.4931 28.4686 27.4931 28.3108 27.4931C27.8901 27.4931 27.4956 27.362 27.4956 27.0212C27.4956 26.9164 27.5482 26.8115 27.6271 26.6543C28.2582 25.4485 28.863 24.2164 29.3889 22.9844L29.4415 22.9058C29.9412 21.6738 30.4145 20.468 30.8878 19.2359C31.0456 18.8165 31.2034 18.3709 31.3348 17.9515C31.5189 17.5059 31.703 16.9554 31.9396 16.536L32.0448 16.4049C32.2026 16.1952 32.413 16.0642 32.5707 16.0642C32.7285 16.0642 32.8863 16.2214 32.9126 16.5622V16.6146C32.9126 17.401 32.0185 18.8952 31.703 19.5767L31.3348 20.4155C31.3085 20.4417 31.3085 20.468 31.3085 20.5204C30.8615 21.5689 30.4145 22.6437 29.9412 23.6922C29.6782 24.3213 29.3889 24.9504 29.0997 25.5533C28.9682 25.8941 28.8104 26.2349 28.6527 26.5232C29.1523 26.497 29.6519 26.4183 30.1515 26.3397C30.4145 26.3135 30.7037 26.2611 30.993 26.2086L31.0719 26.1562C31.2296 25.7892 31.3874 25.396 31.5452 25.029C32.7548 22.1718 34.7007 17.7418 34.727 17.6894C34.727 17.6894 34.9637 17.3486 35.2529 17.4797Z" fill="#FD026F"/>
<path d="M67.1409 18.8185H63.4733V26.5995H61.536V18.8185H58V16.8874H67.1409V18.8185ZM74.828 23.3747H75.0913L73.1916 19.7748L70.8782 24.2184C71.3045 23.9934 71.7873 23.8121 72.3265 23.6746C73.1039 23.4746 73.9377 23.3747 74.828 23.3747ZM72.1948 17.8811L71.5553 16.6624H73.643L78.9094 26.5995H76.7841L76.0129 25.1371H74.8468C74.107 25.1371 73.3233 25.2246 72.4957 25.3996C71.7935 25.5371 71.1541 25.7246 70.5773 25.9621C70.0506 26.1621 69.7309 26.3371 69.618 26.4871L69.5616 26.5995H67.5303L72.1948 17.8811ZM88.1764 26.5995H80.9915V16.8874H83.004V24.6496H88.1764V26.5995ZM94.5845 22.8497L92.1205 26.5995H90.0704V16.8874H92.1205V23.1122L96.6158 16.8874H99.0985L95.8822 21.256L97.3117 23.6559C97.575 24.0184 97.8571 24.2621 98.1581 24.3871C98.3712 24.4746 98.6346 24.5184 98.948 24.5184H99.6251V26.5995H98.7788C98.39 26.5995 98.0766 26.5683 97.8383 26.5058C97.5374 26.4308 97.2427 26.2933 96.9543 26.0933C96.6409 25.8558 96.3023 25.5121 95.9387 25.0621L94.5845 22.8497ZM108.648 20.9747V14.8437L103.814 20.9747H108.648ZM112.033 23.0184H110.717V26.5995H108.648V23.0184H101.237V20.9747L108.177 12.5H110.717V20.9747H112.804L112.033 23.0184ZM117.557 23.1122V24.6496H123.67V26.5995H115.639V16.8874H123.313V18.8185H117.557V21.181C117.946 20.956 118.416 20.7997 118.968 20.7122C119.394 20.6497 119.94 20.6185 120.604 20.6185H122.034V22.5497H120.604C119.739 22.5497 119.112 22.5872 118.723 22.6622C118.385 22.7247 117.996 22.8747 117.557 23.1122ZM135.946 16.8874L131.639 26.5995H129.138L124.906 16.8874H127.087L130.379 24.6309L133.746 16.8874H135.946ZM139.947 23.1122V24.6496H146.06V26.5995H138.028V16.8874H145.702V18.8185H139.947V21.181C140.336 20.956 140.806 20.7997 141.357 20.7122C141.784 20.6497 142.329 20.6185 142.994 20.6185H144.423V22.5497H142.994C142.129 22.5497 141.502 22.5872 141.113 22.6622C140.774 22.7247 140.386 22.8747 139.947 23.1122ZM155.91 22.6434L156.512 23.6559C156.725 24.0059 156.994 24.2496 157.32 24.3871C157.546 24.4746 157.822 24.5184 158.148 24.5184H158.825V26.5995H157.979C157.565 26.5995 157.239 26.5745 157.001 26.5246C156.649 26.4496 156.33 26.3121 156.041 26.1121C155.728 25.8746 155.427 25.5246 155.138 25.0621L153.634 22.6247H153.502C152.787 22.6247 152.242 22.6684 151.866 22.7559C151.565 22.8184 151.201 22.9622 150.775 23.1872V26.5995H148.8V16.8874H155.082C155.671 16.8874 156.198 17.0124 156.662 17.2623C157.126 17.5123 157.49 17.8623 157.753 18.3123C158.016 18.7623 158.148 19.2623 158.148 19.8123C158.148 20.5372 157.957 21.1341 157.574 21.6028C157.192 22.0716 156.637 22.4184 155.91 22.6434ZM153.502 20.6935H155.082C155.396 20.6935 155.656 20.6122 155.863 20.4497C156.07 20.2873 156.173 20.056 156.173 19.756C156.173 19.3685 156.022 19.106 155.722 18.9685C155.508 18.8685 155.182 18.8185 154.743 18.8185H150.775V21.256C151.465 20.881 152.374 20.6935 153.502 20.6935ZM170.104 16.8874L166.079 22.6809V26.5995H164.161V22.6809L160.061 16.8874H162.506L165.101 20.7122L167.772 16.8874H170.104ZM180.632 21.6685C180.632 20.981 180.443 20.3872 180.067 19.8873C179.741 19.4498 179.284 19.1123 178.694 18.8748C178.155 18.6623 177.559 18.5561 176.907 18.5561C176.255 18.5561 175.654 18.6686 175.102 18.8935C174.513 19.131 174.055 19.481 173.729 19.9435C173.365 20.4435 173.183 21.0435 173.183 21.7435C173.183 22.4434 173.371 23.0434 173.748 23.5434C174.074 23.9934 174.531 24.3434 175.121 24.5934C175.672 24.8184 176.268 24.9309 176.907 24.9309C177.547 24.9309 178.149 24.8059 178.713 24.5559C179.29 24.2934 179.748 23.9246 180.086 23.4496C180.45 22.9372 180.632 22.3434 180.632 21.6685ZM182.663 21.6497C182.663 22.7122 182.381 23.6559 181.816 24.4809C181.302 25.2433 180.594 25.8433 179.691 26.2808C178.826 26.6933 177.892 26.8995 176.889 26.8995C175.886 26.8995 174.951 26.6933 174.086 26.2808C173.196 25.8558 172.494 25.2683 171.98 24.5184C171.428 23.6934 171.152 22.7559 171.152 21.706C171.152 20.656 171.434 19.7248 171.998 18.9123C172.513 18.1623 173.221 17.5811 174.124 17.1686C174.989 16.7686 175.923 16.5686 176.926 16.5686C177.929 16.5686 178.857 16.7561 179.71 17.1311C180.6 17.5311 181.302 18.0998 181.816 18.8373C182.381 19.6373 182.663 20.5747 182.663 21.6497ZM184.087 16.8874H186.513L192.4 23.6371V16.8874H194.337V26.5995H192.4L186.983 20.281V26.5995H185.046V18.3311L184.087 16.8874ZM199.843 23.1122V24.6496H205.955V26.5995H197.924V16.8874H205.598V18.8185H199.843V21.181C200.231 20.956 200.702 20.7997 201.253 20.7122C201.68 20.6497 202.225 20.6185 202.89 20.6185H204.319V22.5497H202.89C202.024 22.5497 201.397 22.5872 201.009 22.6622C200.67 22.7247 200.281 22.8747 199.843 23.1122Z" fill="#FD026F"/>
<path d="M64.7853 36.7288V37.2893H63.6607V41.157H63.0419V37.2893H61.9141V36.7288H64.7853ZM69.1886 36.7288H69.8137V41.157H69.1886V39.2154H67.0053V41.157H66.3739V36.7288H67.0053V38.661H69.1886V36.7288ZM74.3267 37.2893H72.5486V38.6672H74.1162V39.2247H72.5486V40.5932H74.3267V41.1568H71.9109V36.7287H74.3267V37.2893ZM79.3286 41.157L78.0752 36.7288H78.7255L79.7496 40.3299L80.8365 36.7288H81.3831L82.47 40.3299L83.4973 36.7288H84.1444L82.891 41.157H82.1402L81.1098 37.8627L80.0794 41.157H79.3286ZM87.6837 41.2165C86.424 41.2165 85.4627 40.3522 85.4627 38.9398C85.4627 37.5306 86.424 36.6694 87.6837 36.6694C88.9371 36.6694 89.9015 37.5306 89.9015 38.9398C89.9015 40.3522 88.9371 41.2165 87.6837 41.2165ZM87.6837 40.6309C88.5727 40.6309 89.2764 40.0171 89.2764 38.9398C89.2764 37.872 88.5727 37.2582 87.6837 37.2582C86.7915 37.2582 86.0847 37.872 86.0847 38.9398C86.0847 40.0171 86.7915 40.6309 87.6837 40.6309ZM94.0847 41.157L92.935 39.1653H92.313V41.157H91.6878V36.7288H93.1831C94.113 36.7288 94.5371 37.2956 94.5371 37.9908C94.5371 38.6077 94.1727 39.0367 93.5633 39.1401L94.8167 41.1568L94.0847 41.157ZM92.313 37.2675V38.6893H93.0983C93.6764 38.6893 93.9371 38.4012 93.9371 37.9815C93.9371 37.5682 93.6763 37.2675 93.0983 37.2675H92.313ZM97.0962 40.5933H98.6135V41.157H96.471V36.7288H97.0962V40.5933ZM100.205 41.157V36.7288H101.669C103.035 36.7288 103.73 37.6432 103.73 38.9397C103.73 40.2455 103.035 41.1568 101.669 41.1568L100.205 41.157ZM100.83 40.5933H101.644C102.615 40.5933 103.076 39.9513 103.076 38.9398C103.076 37.9346 102.615 37.2895 101.644 37.2895H100.83V40.5933ZM110.821 41.157L110.45 40.1235H108.465L108.094 41.157H107.444L109.08 36.7288H109.834L111.471 41.157H110.821ZM108.659 39.5786H110.255L109.457 37.3458L108.659 39.5786ZM115.428 36.7288V37.2893H114.303V41.157H113.685V37.2893H112.557V36.7288H115.428ZM122.437 36.7288L120.977 39.0462V41.1568H120.345V39.0493L118.881 36.7288H119.591L120.659 38.4856L121.73 36.7288H122.437ZM125.895 41.2165C124.635 41.2165 123.674 40.3522 123.674 38.9398C123.674 37.5306 124.635 36.6694 125.895 36.6694C127.148 36.6694 128.113 37.5306 128.113 38.9398C128.113 40.3522 127.148 41.2165 125.895 41.2165ZM125.895 40.6309C126.784 40.6309 127.488 40.0171 127.488 38.9398C127.488 37.872 126.784 37.2582 125.895 37.2582C125.003 37.2582 124.296 37.872 124.296 38.9398C124.296 40.0171 125.003 40.6309 125.895 40.6309ZM131.441 41.2165C130.521 41.2165 129.808 40.6747 129.808 39.6757V36.7289H130.433V39.588C130.433 40.3177 130.873 40.6528 131.442 40.6528C132.01 40.6528 132.459 40.3145 132.459 39.588V36.7289H133.085V39.6757C133.085 40.6747 132.368 41.2165 131.441 41.2165ZM137.484 41.157L136.335 39.1653H135.713V41.157H135.088V36.7288H136.583C137.513 36.7288 137.937 37.2956 137.937 37.9908C137.937 38.6077 137.572 39.0367 136.963 39.1401L138.216 41.1568L137.484 41.157ZM135.713 37.2675V38.6893H136.498C137.076 38.6893 137.337 38.4012 137.337 37.9815C137.337 37.5682 137.076 37.2675 136.498 37.2675H135.713ZM144.726 37.2893H142.923V38.6641H144.491V39.2246H142.923V41.1568H142.285V36.7286H144.726V37.2893ZM146.39 41.157V36.7288H147.015V41.157H146.39ZM152.106 36.7288H152.728V41.157H152.053L149.731 37.6434V41.157H149.112V36.7288H149.782L152.106 40.2267L152.106 36.7288ZM156.714 41.2165C155.47 41.2165 154.515 40.3678 154.515 38.9555C154.515 37.5306 155.476 36.6694 156.736 36.6694C157.552 36.6694 158.253 37.0264 158.636 37.7029L158.083 37.9972C157.804 37.4774 157.304 37.2363 156.736 37.2363C155.837 37.2363 155.143 37.8438 155.143 38.943C155.143 40.0265 155.821 40.656 156.758 40.656C157.511 40.656 158.102 40.2332 158.206 39.3939H156.754V38.8741H158.812V41.157H158.303V40.3616C158.011 40.9033 157.461 41.2165 156.714 41.2165ZM163.108 37.2893H161.33V38.6672H162.898V39.2247H161.33V40.5932H163.108V41.1568H160.693V36.7287H163.108V37.2893ZM167.307 41.157L166.158 39.1653H165.536V41.157H164.91V36.7288H166.406C167.336 36.7288 167.76 37.2956 167.76 37.9908C167.76 38.6077 167.395 39.0367 166.786 39.1401L168.039 41.1568L167.307 41.157ZM165.536 37.2675V38.6893H166.321C166.899 38.6893 167.16 38.4012 167.16 37.9815C167.16 37.5682 166.899 37.2675 166.321 37.2675H165.536ZM174.474 36.7288V37.2893H173.349V41.157H172.73V37.2893H171.602V36.7288H174.474ZM176.062 41.157V36.7288H176.687V41.157H176.062ZM180.497 36.7288C181.31 36.7288 181.835 37.3426 181.835 38.1004C181.835 38.8677 181.31 39.4595 180.497 39.4595H179.41V41.1568H178.785V36.7287L180.497 36.7288ZM180.402 38.921C180.924 38.921 181.216 38.5859 181.216 38.0911C181.216 37.6151 180.924 37.2644 180.402 37.2644H179.41V38.921H180.402ZM184.922 41.2165C183.995 41.2165 183.316 40.7749 183.166 40.0233L183.803 39.873C183.904 40.3897 184.353 40.6872 184.944 40.6872C185.418 40.6872 185.874 40.4931 185.864 39.9607C185.858 39.4346 185.286 39.2906 184.68 39.1246C183.992 38.9367 183.304 38.7206 183.304 37.9064C183.304 37.0828 183.986 36.6695 184.793 36.6695C185.575 36.6695 186.279 36.9983 186.445 37.7593L185.839 37.9127C185.729 37.421 185.318 37.2018 184.821 37.2018C184.375 37.2018 183.932 37.396 183.932 37.9002C183.932 38.3574 184.428 38.492 184.991 38.6424C185.698 38.8334 186.508 39.0526 186.508 39.9419C186.508 40.8376 185.754 41.2165 184.922 41.2165Z" fill="#FD026F"/>
</svg>
