<svg width="175" height="54" viewBox="0 0 175 54" fill="none" xmlns="http://www.w3.org/2000/svg">
<path d="M6.78133 43.8354C7.30008 44.4444 7.84734 45.0286 8.42127 45.5859C10.3558 47.4916 12.6628 49.0935 15.1377 50.3049C16.0496 50.7323 16.8907 51.175 17.8762 51.5562C18.1224 51.6508 18.374 51.7522 18.6384 51.8435C18.905 51.928 19.1815 52.0126 19.4705 52.0964C19.7579 52.1862 20.0643 52.2501 20.3846 52.3165C20.7053 52.3809 21.0383 52.4545 21.3959 52.4912C19.6219 52.1169 17.8928 51.5546 16.2379 50.8138C14.5727 50.0619 12.9904 49.1382 11.5168 48.0576C8.56537 45.8937 6.04097 43.1154 4.19705 39.9394C4.12094 39.8445 4.00538 39.6636 3.86688 39.4331L3.64415 39.0556L3.41947 38.6212C3.27006 38.3199 3.09797 38.0141 2.96619 37.7178C2.84801 37.4587 2.72431 37.2021 2.59516 36.9483C3.16821 38.3768 3.82967 39.6263 4.57031 40.8145C4.91146 41.3595 5.27257 41.8916 5.65288 42.4099C5.59916 42.3374 5.54319 42.2668 5.48975 42.194C5.8973 42.7559 6.32666 43.3015 6.77686 43.8298L6.78133 43.8354ZM0.815322 30.1418L0.680176 29.0566C0.751806 29.7189 0.834908 30.4591 0.986843 31.2001L0.895346 30.6739C0.861574 30.4977 0.834878 30.3202 0.815322 30.1418ZM24.4524 52.4145C26.3137 52.603 28.2656 52.5467 30.1775 52.2439C32.0906 51.9423 33.9616 51.4074 35.7012 50.718C32.4974 51.979 29.0972 52.5399 25.7709 52.4461C25.3257 52.4391 24.887 52.4461 24.4524 52.4145Z" fill="white"/>
<path d="M13.4321 48.604L13.3596 48.5578C13.384 48.5732 13.4077 48.5888 13.4321 48.604ZM16.1325 50.093C17.6662 50.8072 19.2726 51.3533 20.9236 51.7217C18.2128 51.1028 15.6619 50.0109 13.4321 48.604C14.2883 49.1492 15.1884 49.6538 16.1325 50.093ZM49.968 30.4367C49.9954 29.9943 50.0508 29.5299 50.0648 29.309C50.231 27.8889 50.2802 26.6763 50.2732 25.4598C50.2425 25.2405 50.1543 24.8297 50.1193 24.3626C50.0765 23.8944 50.0136 23.4359 49.9604 22.9837C49.8796 22.5353 49.8099 22.0914 49.7215 21.6562C50.358 24.9095 50.3474 28.1754 49.7617 31.2567C49.8261 30.9823 49.8949 30.7089 49.968 30.4367Z" fill="white"/>
<path d="M0.690057 23.8244C0.927332 21.8921 1.43238 20.0085 1.91281 18.7537L1.71834 19.6722C1.83838 19.4031 2.03228 18.7778 2.2967 18.116L2.48753 17.6114L2.69822 17.1221C2.83812 16.8054 2.95564 16.5052 3.0796 16.275C2.99481 16.4909 2.91311 16.7236 2.81462 16.9572C2.71809 17.1916 2.6098 17.4296 2.50655 17.6691L2.93018 16.7144C2.50275 17.7861 2.1348 18.8806 1.82803 19.9929C1.51101 21.2116 1.2603 22.4925 1.12543 23.6424C1.08626 23.9292 1.07255 24.2092 1.04709 24.4764C1.02834 24.7435 0.995885 24.9984 0.993366 25.2392C0.981615 25.7206 0.965386 26.1421 0.9735 26.4792C1.00288 27.1538 1.04345 27.4902 1.10193 27.3023C1.21693 26.929 1.21469 25.0093 1.61593 22.6068C1.83054 21.4093 2.13861 20.0959 2.55664 18.8091C2.97159 17.5212 3.51553 16.2725 4.07878 15.1708L3.91314 15.5326L3.76064 15.9054L3.44838 16.6589L3.16186 17.4375L3.01608 17.8301C2.97327 17.9634 2.9299 18.0973 2.88709 18.2317C2.51775 19.2978 2.24158 20.4205 2.00095 21.5521L1.84453 22.4068C1.78717 22.6908 1.76283 22.9798 1.7203 23.2657C1.63132 23.8373 1.59887 24.4131 1.54934 24.9821C1.49366 26.123 1.48247 27.2499 1.58571 28.3275C1.58152 28.0715 1.57732 27.8442 1.58096 27.624L1.61314 26.9645C1.62657 26.738 1.62405 26.4977 1.64531 26.2224C1.6649 25.9471 1.68281 25.6369 1.69848 25.2697C1.80788 23.4192 2.13833 21.5872 2.65205 19.8142C3.14171 18.0337 3.71923 16.4657 4.57963 15.0451L4.80376 14.6177C4.95541 14.3309 5.0816 14.0481 5.24193 13.7597C5.42465 13.4432 5.59952 13.2063 5.7411 12.9893C5.88688 12.7745 6.01056 12.5857 6.15214 12.4026L7.18238 10.9794C7.20337 10.9769 7.17623 11.0312 7.12642 11.1119C7.29629 10.8696 7.47927 10.6368 7.67456 10.4145C7.88581 10.1695 8.09091 9.90963 8.26467 9.69512C8.30552 9.69316 8.34525 9.69203 8.43899 9.62482C10.8593 7.04927 13.8378 4.95034 17.1944 3.62714L17.9406 3.33617L18.6961 3.08442L19.0719 2.95896L19.4524 2.85254L20.2107 2.64167C20.6444 2.53721 21.0837 2.43136 21.5316 2.33614L22.2135 2.21684C22.4427 2.17736 22.673 2.13283 22.9086 2.11099C23.377 2.0547 23.7855 1.93596 24.0057 1.90683C25.2282 1.8371 26.4484 1.85111 27.8807 1.96732C27.9918 1.96928 28.1647 1.97937 28.3653 1.99029C28.566 2.00177 28.7954 2.00737 29.0178 2.02781C29.2786 2.08662 29.557 2.14487 29.8491 2.20172C31.6312 2.4784 33.3543 2.97296 34.9936 3.63078L34.9917 3.62294L35.6196 3.8733L36.2603 4.16958C36.6999 4.36113 37.1305 4.60617 37.5754 4.83693C37.7987 4.9509 38.0102 5.09009 38.2296 5.2161C38.445 5.34885 38.6706 5.46646 38.8787 5.61153C39.3007 5.89213 39.7285 6.16069 40.1228 6.46062C40.7584 6.91971 41.3746 7.40536 41.9695 7.91628C41.9823 7.92804 41.9958 7.93896 42.0086 7.95045L42.0204 7.96109L42.4281 8.33131L42.8181 8.72085L43.2085 9.11067C43.3377 9.24145 43.4575 9.38147 43.5826 9.51645C43.5221 9.41843 43.5244 9.37895 43.5266 9.34002C43.3338 9.15519 43.1058 8.93648 42.8805 8.72113C43.2563 9.06334 43.5842 9.37279 43.8534 9.62538C43.9572 9.75812 44.0705 9.88863 44.178 10.0312L44.5098 10.4697L44.8627 10.9259L45.2138 11.4165C45.8367 12.2113 46.3865 13.0615 46.9086 13.9285C47.1503 14.3732 47.417 14.8053 47.6322 15.2655L47.9716 15.9476L48.2771 16.6469C48.365 16.7962 48.3308 16.6531 48.3418 16.6279C48.6845 17.4574 48.9601 18.3199 49.2097 19.1891C49.6868 20.76 50.0063 22.3746 50.1633 24.009C50.2262 24.3949 50.2531 24.7852 50.3088 25.172L50.2744 25.9908C50.2741 26.2997 50.2903 26.6086 50.2772 26.9181L50.2414 27.8495C50.2369 28.0595 50.2067 28.2889 50.189 28.5381C50.1655 28.7868 50.1532 29.0551 50.1174 29.3379L50.0021 30.2318C49.9652 30.5452 49.8938 30.8672 49.839 31.2038C49.5659 32.6819 49.1621 34.1329 48.6325 35.5395C48.5648 35.7708 48.513 35.9556 48.4668 36.0589C48.2914 36.4793 48.1042 36.8862 47.9235 37.2869C47.7212 37.6773 47.5356 38.0677 47.3283 38.4373C46.6871 39.6543 45.943 40.8141 45.1041 41.904C45.0101 42.0269 44.9225 42.1518 44.828 42.2672L44.5487 42.6049C44.364 42.8231 44.199 43.0413 44.0238 43.2306C43.6738 43.6092 43.38 43.9604 43.1044 44.2244C42.7887 44.5543 42.817 44.5697 43.0355 44.4107C43.1889 44.2973 43.3389 44.1794 43.4855 44.0573L44.0792 43.5213C44.2963 43.3317 44.5042 43.1177 44.7046 42.9161C44.9027 42.713 45.1008 42.5279 45.2535 42.3605C45.5616 42.0269 45.7639 41.8211 45.7208 41.9127C45.2236 42.8494 44.3182 44.0049 42.9947 45.283C42.3195 45.9067 41.5598 46.5844 40.6614 47.2377C40.2232 47.5796 39.7361 47.8924 39.2394 48.2341C38.7262 48.5486 38.2019 48.893 37.6286 49.1988C36.3739 49.8827 38.5701 48.7858 38.6294 48.7754C38.4176 48.9424 38.1955 49.0958 37.9643 49.2347C37.5508 49.4548 37.1409 49.6819 36.7125 49.8712C36.4621 49.9863 36.2161 50.1107 35.9629 50.2182L35.1993 50.5324L35.6033 50.3733C36.4293 50.0449 37.2013 49.6578 37.8983 49.275C37.6364 49.4335 37.3499 49.617 37.0359 49.7825C36.6993 49.9566 36.351 50.1471 36.0015 50.3171L34.9872 50.7892C38.6157 49.4699 41.9502 47.2867 44.5899 44.4406C45.9114 43.0219 47.0899 41.4635 48.0508 39.7776C49.0176 38.0952 49.7953 36.3108 50.3698 34.4571C49.4873 37.2379 48.1115 39.7925 46.4578 41.9524C49.4641 37.8899 51.2565 32.909 51.494 27.7722C51.4938 28.0553 51.4658 28.3373 51.447 28.6193C51.4238 28.9013 51.4126 29.1844 51.3796 29.4656C51.3077 30.0271 51.2562 30.5917 51.1482 31.1484C50.9736 32.2686 50.6904 33.3694 50.3698 34.4571C51.0027 32.4909 51.3807 30.4178 51.5296 28.3328C51.6846 26.2462 51.5553 24.147 51.2338 22.1128C51.7862 24.8074 51.8777 27.8604 51.407 30.8776C51.7378 28.9316 51.8217 26.9256 51.6947 24.9367C51.6661 24.177 51.5766 23.4226 51.503 22.7241C51.3975 22.0307 51.3178 21.3906 51.2156 20.8728C51.62 22.7843 51.7794 24.4147 51.8572 25.9516C51.7825 22.5975 51.0883 19.1992 49.7251 16.007C50.4691 17.7408 51.0799 19.6058 51.4529 21.5233C51.8279 23.4388 51.9837 25.3985 51.895 27.2838C51.8908 27.0631 51.9 26.8427 51.8872 26.6212L51.8572 25.9516C51.9375 28.9901 51.47 32.0017 50.5433 34.8338C50.0782 36.2496 49.5038 37.6255 48.8085 38.9347C48.1146 40.2419 47.3134 41.4892 46.4133 42.6638C47.4411 41.4624 48.5262 39.7642 49.3922 37.8988C50.2542 36.0295 50.8941 34.0079 51.3343 32.2422C50.6868 35.4129 49.4017 38.5415 47.537 41.3355C45.6775 44.1317 43.2417 46.5902 40.4235 48.4772C37.6087 50.37 34.415 51.68 31.1376 52.3272C29.5103 52.6507 27.8562 52.8203 26.1971 52.8338C24.5683 52.8425 22.9421 52.7005 21.3394 52.4095L22.1802 52.5694C22.4606 52.6227 22.7449 52.6521 23.0269 52.6941C23.591 52.7848 24.1615 52.819 24.7301 52.8713C25.8697 52.9355 27.0156 52.957 28.1577 52.8699C29.3018 52.8092 30.4387 52.6383 31.5702 52.4297C32.1315 52.302 32.6995 52.1975 33.2538 52.0337C33.5319 51.9559 33.8134 51.8878 34.0896 51.8013L34.9164 51.533C34.4989 51.6624 34.0597 51.8338 33.5904 51.9595L33.0025 52.1326C34.2362 51.8034 35.4437 51.3825 36.6148 50.8735C37.1506 50.6396 37.678 50.3869 38.196 50.116C37.2254 50.6313 36.2242 51.0869 35.1982 51.4804C33.2416 52.2112 31.2084 52.7168 29.1376 52.9875C28.827 53.0368 28.5438 53.0522 28.2901 53.0788L27.6107 53.1461C27.2109 53.1777 26.9157 53.192 26.7092 53.2147C26.2959 53.2558 26.2371 53.2942 26.4017 53.3258C26.5659 53.3575 26.9532 53.3827 27.4294 53.3961C27.9042 53.3933 28.4675 53.3679 28.9798 53.3211C34.1274 52.7926 38.8536 50.7707 42.641 47.7437C46.431 44.7162 49.3337 40.6945 50.9515 36.1312C51.0531 35.8663 51.1311 35.5929 51.2156 35.3219C51.2976 35.0499 51.3883 34.7808 51.4624 34.5064C51.5998 33.9547 51.7624 33.4095 51.8676 32.8494L52.0408 32.0134L52.1771 31.1699L52.2445 30.7479L52.2926 30.3231L52.3883 29.4734C52.5836 27.2012 52.5064 24.9045 52.1611 22.6508C51.9764 21.3754 51.6519 19.8612 51.2335 18.5126L50.9118 17.5369C50.7999 17.2269 50.6809 16.9345 50.5752 16.6595L50.4193 16.2632L50.2595 15.9073L49.9851 15.3125C49.1082 13.5317 48.0063 11.8332 46.7164 10.2535C45.4279 8.67324 43.9474 7.21001 42.2784 5.93582L41.6505 5.4589L40.9994 5.00859L40.6731 4.78288L40.3365 4.57117L39.6602 4.14886C38.7383 3.61566 37.7939 3.10178 36.7984 2.67555C35.8132 2.22804 34.7821 1.86483 33.7326 1.53998C33.2023 1.39436 32.6746 1.23193 32.131 1.12019C31.8601 1.06166 31.5915 0.990533 31.3176 0.941526L30.4938 0.795623C28.524 0.44865 26.475 0.366037 24.4279 0.520061C22.382 0.678285 20.3274 1.06698 18.3573 1.73797L17.62 1.99365C17.3735 2.07682 17.1359 2.18464 16.8933 2.27901C16.6532 2.37955 16.4078 2.46748 16.1723 2.57838L15.4638 2.90687C15.2254 3.01216 14.9951 3.13314 14.7654 3.25552L14.0745 3.61874L13.4025 4.01416C13.1786 4.14634 12.9531 4.27544 12.7388 4.42246L12.0885 4.85037C11.8697 4.98955 11.6671 5.15226 11.4558 5.3018C11.2485 5.45694 11.0333 5.60144 10.833 5.76499L10.2295 6.25142C10.0255 6.40965 9.83298 6.58132 9.64103 6.75326L9.06379 7.26574L8.5123 7.80314C8.32875 7.98209 8.14323 8.15908 7.97227 8.34951C6.56457 9.83318 5.32783 11.4518 4.31634 13.1646C3.32444 14.8448 2.51162 16.6246 1.89126 18.4747C0.667113 22.0929 0.315958 25.7623 0.479364 29.0766C0.444108 27.7123 0.438233 25.7556 0.690057 23.8244ZM40.1796 49.1532C41.0298 48.6031 41.8486 48.0058 42.632 47.364C41.8374 48.019 41.0209 48.6239 40.1796 49.1532ZM51.4325 33.9519C51.3488 34.2042 51.278 34.4535 51.1857 34.6915L50.9179 35.398L50.7875 35.7475L50.644 36.0923C50.5481 36.3246 50.4551 36.558 50.365 36.7927C49.847 38.0841 49.2308 39.334 48.522 40.5312C47.8166 41.7284 46.999 42.8503 46.1254 43.9029C45.694 44.4347 45.2239 44.9279 44.7617 45.4211L44.0395 46.1276C43.8025 46.3651 43.5431 46.5768 43.2974 46.8008C43.0915 46.9801 42.8839 47.1554 42.6749 47.3279C43.4512 46.6897 44.1889 46.0059 44.8842 45.2802C43.8782 46.3238 42.7839 47.2784 41.6136 48.1333C41.3237 48.3355 41.0436 48.5522 40.7425 48.7427L39.834 49.3221L38.8743 49.8679C38.5477 50.0493 38.203 50.2106 37.8575 50.3874C38.1049 50.2414 38.3554 50.1006 38.6087 49.965C38.8944 49.8063 39.1941 49.6186 39.4868 49.447C39.7817 49.2787 40.0497 49.0938 40.2725 48.9392C40.4952 48.7847 40.6698 48.6564 40.7607 48.5735C40.6309 48.6617 40.4988 48.7463 40.3673 48.8323C40.5088 48.7389 40.6494 48.6442 40.789 48.548C40.7831 48.5545 40.7708 48.5645 40.7607 48.5735C43.8195 46.4827 46.4254 43.7352 48.3779 40.6029C50.339 37.4734 51.6152 33.9432 52.144 30.3531C52.0293 31.793 51.7657 32.9429 51.4325 33.9519ZM47.2069 12.0945C48.0489 13.3674 48.7767 14.7124 49.3818 16.1137C49.4517 16.2674 49.5178 16.4234 49.583 16.5797C50.9717 19.9833 51.6035 23.6345 51.5108 27.2314C51.5343 26.0412 51.4554 24.8516 51.3236 23.6721C51.1745 22.3127 50.8989 20.9697 50.5335 19.656C49.8166 17.0216 48.6523 14.5247 47.1744 12.2485C47.3101 12.4362 47.4531 12.6395 47.6011 12.8551C47.7596 13.0783 47.908 13.3084 48.046 13.5449L47.8675 13.2343L47.6747 12.9321L47.2891 12.3284C47.0267 11.9296 46.7421 11.5454 46.4682 11.1544C46.171 10.7808 45.8893 10.3949 45.5801 10.0312C45.3462 9.76429 45.122 9.48844 44.8848 9.22492C45.7219 10.1085 46.5079 11.0564 47.2069 12.0945ZM27.5511 0.768459C27.9616 0.790302 28.3729 0.830348 28.7842 0.861153C29.1211 0.889438 29.4563 0.939285 29.7881 0.976811C29.8878 0.981012 29.993 0.987733 30.125 1.00258C30.2568 1.02078 30.4143 1.05466 30.62 1.10171C32.1503 1.35711 33.5465 1.74105 34.5376 2.13759C36.4397 2.85814 38.2094 3.75456 39.8147 4.78988C41.4205 5.82324 42.8615 6.99858 44.0806 8.2823C44.6425 8.89251 44.4785 8.75949 44.1687 8.46321L44.6338 8.9572C44.4278 8.75165 44.2255 8.5433 44.0165 8.34223L43.3727 7.75694C43.5294 7.89416 43.9094 8.22265 44.1687 8.46321C42.1013 6.35196 39.6846 4.59889 37.0687 3.30929C34.4508 2.02025 31.6318 1.22409 28.8139 0.90624C29.2666 0.956648 29.4888 0.96785 29.7003 0.97345C29.3967 0.937885 29.0923 0.889158 28.7842 0.861153C28.3704 0.833989 27.9574 0.797023 27.5466 0.77686L26.3267 0.748016C26.7307 0.747736 27.1401 0.758937 27.5511 0.768459Z" fill="white"/>
<path d="M32.883 52.1669L33.0022 52.1319C32.8774 52.1655 32.7545 52.2024 32.6289 52.2344C32.714 52.2131 32.7993 52.1924 32.883 52.1669ZM45.3293 41.3743C46.5143 39.8097 47.5613 37.9401 48.2297 36.3296L48.2216 36.3313C46.5257 40.3421 43.775 43.7972 40.3423 46.3411C40.9518 45.9172 41.5506 45.478 42.1381 45.0241C42.893 44.2344 44.1563 42.9501 45.3293 41.3743ZM10.3329 46.0496C12.3397 47.8452 14.7597 49.4079 17.4534 50.4606C18.5038 50.8563 19.5757 51.203 20.672 51.4472C21.2159 51.5877 21.7713 51.6746 22.3225 51.7779C22.5987 51.8269 22.8785 51.8541 23.1561 51.8933C23.4342 51.9294 23.7118 51.9703 23.9919 51.9865C22.7274 51.8462 21.4722 51.6362 20.2503 51.3032C19.0292 50.9714 17.8322 50.5611 16.6775 50.0573C15.5287 49.5455 14.4167 48.9547 13.3495 48.2891C12.2901 47.6148 11.2856 46.8617 10.3329 46.0496ZM35.1032 49.2508L34.4823 49.4947L33.8483 49.7064C33.4286 49.8576 32.9957 49.9708 32.564 50.0909C32.998 49.9817 33.4345 49.8798 33.8578 49.7397L34.4966 49.5443L35.1206 49.316C35.0965 49.3037 34.9544 49.3314 35.1032 49.2508ZM27.774 50.8437C27.4494 50.8714 27.1232 50.8689 26.7964 50.8722C26.4695 50.8762 26.1422 50.8832 25.8145 50.8616L26.2555 50.903C26.3904 50.9117 26.5118 50.9221 26.6178 50.9347C27.0043 50.9016 27.3879 50.8924 27.774 50.8437ZM14.8352 47.8315C15.2105 48.0519 15.6089 48.246 16.0043 48.4599C16.1033 48.5143 16.2829 48.5762 16.5082 48.6585C16.0266 48.4515 15.5652 48.195 15.0963 47.957C14.8641 47.8335 14.6405 47.6951 14.4127 47.5663C14.1855 47.4364 13.9592 47.3067 13.7443 47.1617L14.0065 47.337L14.2798 47.5005L14.8352 47.8315Z" fill="white"/>
<path d="M43.0454 16.1298C43.0987 16.2365 43.0987 16.3433 43.0187 16.4233C42.9654 16.5034 42.8587 16.5835 42.7521 16.6368C42.5387 16.7169 42.2988 16.6902 42.0055 16.5034C41.8722 16.45 41.7655 16.3967 41.6588 16.3433C41.6588 16.3433 41.6322 16.3433 41.6322 16.3166L14.3555 15.8629C14.9421 15.9964 15.5554 16.1298 16.1686 16.3166C18.0617 16.8236 19.6882 17.4374 21.0747 18.1046C22.8345 18.9585 24.141 19.9192 24.9942 21.0133C25.5808 21.7339 25.9541 22.4811 26.1141 23.3083C27.6339 19.8125 28.8337 17.0905 28.9671 16.8503C28.9671 16.8503 29.1804 16.5301 29.447 16.6368C29.7403 16.7436 29.6603 17.1705 29.6603 17.1705C28.8871 18.8518 27.5806 21.7072 26.1941 24.8561C26.1941 24.8828 26.1941 24.8828 26.1674 24.9095C23.741 30.3802 22.0079 34.6766 21.288 37.8256C21.2613 37.8256 21.2613 37.7989 21.2613 37.7989C21.2613 37.7989 21.1547 38.3593 20.8347 38.4127C20.4881 38.466 20.1948 37.9857 20.1948 37.9857C20.0615 37.3986 22.6745 31.1541 25.5275 24.616C25.6075 23.4685 25.2609 22.401 24.4876 21.4136C23.0478 19.6257 20.1148 18.0779 16.0086 16.9571C12.8624 16.1031 10.1427 15.7829 10.116 15.7829C10.116 15.7829 9.82274 15.8362 9.76941 15.516C9.76941 15.1958 10.0627 15.1424 10.1427 15.1157L41.6855 15.6494C41.9788 15.6494 42.2454 15.6761 42.4854 15.7295C42.7787 15.7829 42.992 15.9163 43.0454 16.1298ZM35.9615 17.6242C36.2815 17.731 36.2015 18.1846 36.2015 18.1846C34.8417 21.1468 33.6418 23.682 32.6553 26.3772C32.8953 26.3506 33.1886 26.3239 33.4285 26.3239H33.5085C33.7485 26.3239 34.0951 26.3506 34.1751 26.564L34.2018 26.6441L34.1751 26.7242C34.0684 27.1511 32.8419 27.3379 32.4153 27.418L32.3886 27.5514H32.2287C31.6687 29.1259 31.1888 30.7804 30.7622 32.6218C30.7622 32.5951 30.7622 32.5951 30.7355 32.5951C30.7355 32.5951 30.6289 33.2089 30.2556 33.2623C29.8823 33.3423 29.5623 32.7819 29.5623 32.7819C29.4557 32.3282 30.2822 30.0599 31.2688 27.5781C30.6555 27.6582 30.0156 27.7382 29.3757 27.7916C29.2157 27.8183 29.0824 27.8183 28.9224 27.8183C28.4958 27.8183 28.0958 27.6849 28.0958 27.3379C28.0958 27.2312 28.1492 27.1245 28.2292 26.9643C28.8691 25.7368 29.4823 24.4825 30.0156 23.2283L30.0689 23.1482C30.5755 21.894 31.0555 20.6664 31.5354 19.4122C31.6954 18.9852 31.8554 18.5315 31.9887 18.1046C32.1753 17.6509 32.362 17.0905 32.602 16.6635L32.7086 16.5301C32.8686 16.3166 33.0819 16.1832 33.2419 16.1832C33.4019 16.1832 33.5618 16.3433 33.5885 16.6902V16.7436C33.5885 17.5442 32.6819 19.0653 32.362 19.7591L31.9887 20.6131C31.962 20.6397 31.962 20.6664 31.962 20.7198C31.5088 21.7872 31.0555 22.8814 30.5755 23.9488C30.3089 24.5893 30.0156 25.2297 29.7223 25.8435C29.589 26.1904 29.429 26.5374 29.269 26.8309C29.7756 26.8042 30.2822 26.7242 30.7888 26.6441C31.0555 26.6174 31.3488 26.564 31.6421 26.5107L31.7221 26.4573C31.882 26.0837 32.042 25.6834 32.202 25.3098C33.4285 22.401 35.4016 17.8911 35.4283 17.8377C35.4283 17.8377 35.6682 17.4908 35.9615 17.6242Z" fill="white"/>
<path d="M61.7192 23.7994H57.9841V31.7553H56.0112V23.7994H52.4102V21.8248H61.7192V23.7994ZM69.5477 28.4579H69.8158L67.8812 24.7771L65.5252 29.3206C65.9594 29.0905 66.451 28.9052 67.0001 28.7646C67.7918 28.5601 68.641 28.4579 69.5477 28.4579ZM66.866 22.8409L66.2148 21.5948H68.3409L73.7042 31.7553H71.5397L70.7544 30.26H69.5668C68.8134 30.26 68.0153 30.3494 67.1725 30.5283C66.4574 30.6689 65.8062 30.8606 65.2188 31.1035C64.6824 31.308 64.3568 31.4869 64.2419 31.6402L64.1844 31.7553H62.1157L66.866 22.8409ZM83.1416 31.7553H75.8246V21.8248H77.8741V29.7615H83.1416V31.7553ZM89.6675 27.9211L87.1583 31.7553H85.0704V21.8248H87.1583V28.1895L91.7362 21.8248H94.2646L90.9892 26.2916L92.4449 28.7455C92.7131 29.1161 93.0004 29.3653 93.3069 29.4931C93.524 29.5826 93.7921 29.6273 94.1114 29.6273H94.8009V31.7553H93.939C93.5431 31.7553 93.2239 31.7233 92.9812 31.6594C92.6748 31.5827 92.3747 31.4421 92.081 31.2377C91.7617 30.9948 91.417 30.6434 91.0466 30.1833L89.6675 27.9211ZM103.989 26.004V19.7352L99.0666 26.004H103.989ZM107.437 28.0937H106.096V31.7553H103.989V28.0937H96.4425V26.004L103.51 17.3389H106.096V26.004H108.222L107.437 28.0937ZM123.157 21.8248L122.18 23.416V31.7553H120.016V25.9465L116.511 30.6242L113.005 25.9465V31.7553H110.841V23.416L109.864 21.8248H112.277L116.511 27.4419L120.744 21.8248H123.157ZM134.261 26.7134C134.261 26.0104 134.07 25.4034 133.686 24.8921C133.354 24.4448 132.888 24.0998 132.288 23.8569C131.739 23.6397 131.132 23.531 130.468 23.531C129.804 23.531 129.191 23.646 128.63 23.8761C128.029 24.1189 127.563 24.4768 127.231 24.9497C126.861 25.4609 126.676 26.0743 126.676 26.79C126.676 27.5058 126.867 28.1192 127.251 28.6304C127.583 29.0905 128.049 29.4484 128.649 29.704C129.211 29.934 129.817 30.0491 130.468 30.0491C131.12 30.0491 131.733 29.9213 132.307 29.6657C132.895 29.3973 133.361 29.0202 133.706 28.5346C134.076 28.0106 134.261 27.4035 134.261 26.7134ZM136.33 26.6942C136.33 27.7805 136.042 28.7455 135.468 29.589C134.944 30.3686 134.223 30.982 133.303 31.4294C132.422 31.8511 131.471 32.062 130.449 32.062C129.428 32.062 128.476 31.8511 127.595 31.4294C126.689 30.9948 125.974 30.3941 125.45 29.6273C124.888 28.7838 124.607 27.8253 124.607 26.7517C124.607 25.6781 124.895 24.726 125.469 23.8953C125.993 23.1284 126.714 22.5341 127.634 22.1124C128.515 21.7034 129.466 21.4989 130.488 21.4989C131.509 21.4989 132.454 21.6906 133.322 22.074C134.229 22.483 134.944 23.0645 135.468 23.8186C136.042 24.6365 136.33 25.5951 136.33 26.6942ZM140.998 23.7994V26.0616C141.394 25.8315 141.872 25.6718 142.434 25.5823C142.868 25.5184 143.424 25.4864 144.101 25.4864H145.116C145.461 25.4864 145.713 25.4161 145.872 25.2756C146.032 25.135 146.112 24.9241 146.112 24.6429C146.112 24.3618 146.023 24.1509 145.844 24.0103C145.665 23.8697 145.422 23.7994 145.116 23.7994H140.998ZM140.998 28.0745V29.7615H145.116C145.588 29.7615 145.946 29.6912 146.189 29.5506C146.508 29.3589 146.667 29.0458 146.667 28.6113C146.667 28.2406 146.543 27.9627 146.294 27.7773C146.045 27.592 145.652 27.4994 145.116 27.4994H144.101C143.22 27.4994 142.581 27.5377 142.185 27.6144C141.84 27.6783 141.445 27.8317 140.998 28.0745ZM148.64 28.6496C148.64 29.6209 148.327 30.3814 147.702 30.9309C147.076 31.4805 146.214 31.7553 145.116 31.7553H139.025V21.8248H145.116C145.652 21.8248 146.15 21.943 146.61 22.1795C147.07 22.4159 147.437 22.7482 147.711 23.1764C147.986 23.6045 148.123 24.087 148.123 24.6238C148.123 25.365 147.906 25.9338 147.472 26.3299C147.842 26.5472 148.13 26.8635 148.334 27.2789C148.538 27.6943 148.64 28.1512 148.64 28.6496ZM153.481 31.7553H151.527V21.8248H153.481V31.7553ZM164.45 31.7553H157.133V21.8248H159.183V29.7615H164.45V31.7553ZM168.333 28.1895V29.7615H174.558V31.7553H166.379V21.8248H174.194V23.7994H168.333V26.2149C168.729 25.9849 169.208 25.8251 169.77 25.7357C170.204 25.6718 170.759 25.6398 171.436 25.6398H172.892V27.6144H171.436C170.555 27.6144 169.916 27.6527 169.521 27.7294C169.176 27.7933 168.78 27.9467 168.333 28.1895Z" fill="white"/>
<path d="M68.5662 44.2947H68.1045L67.8844 41.5701L66.8498 44.2947H66.5634L65.536 41.5795L65.3111 44.2947H64.847L65.1051 40.9443H65.7419L66.7054 43.4771L67.6737 40.9443H68.3105L68.5662 44.2947ZM71.4582 44.3397C70.5089 44.3397 69.7845 43.6858 69.7845 42.6172C69.7845 41.551 70.5089 40.8994 71.4582 40.8994C72.4028 40.8994 73.1296 41.551 73.1296 42.6172C73.1296 43.6858 72.4028 44.3397 71.4582 44.3397ZM71.4582 43.8967C72.1282 43.8967 72.6585 43.4323 72.6585 42.6172C72.6585 41.8093 72.1282 41.3449 71.4582 41.3449C70.7859 41.3449 70.2532 41.8093 70.2532 42.6172C70.2532 43.4323 70.7859 43.8967 71.4582 43.8967ZM76.0973 42.5414C76.4927 42.6409 76.7578 42.9134 76.7578 43.3801C76.7578 43.918 76.3933 44.2947 75.7919 44.2947H74.4757V40.9443H75.5031C76.121 40.9443 76.5116 41.3045 76.5116 41.8352C76.5116 42.1527 76.3672 42.4134 76.0973 42.5414ZM76.0713 41.8661C76.0713 41.577 75.863 41.3519 75.5008 41.3519H74.9326V42.3944H75.5741C75.8772 42.3944 76.0713 42.1575 76.0713 41.8661ZM75.7115 43.8801C76.0926 43.8801 76.2986 43.6242 76.2986 43.3327C76.2986 43.0247 76.0831 42.7783 75.683 42.7783H74.9326V43.8801L75.7115 43.8801ZM78.0779 44.2947V40.9443H78.549V44.2947H78.0779ZM80.6006 43.8682H81.7441V44.2947H80.1295V40.9443H80.6006V43.8682ZM84.7639 41.3684H83.424V42.411H84.6053V42.8327H83.424V43.8681H84.7639V44.2946H82.9434V40.9442H84.7639V41.3684ZM89.3832 44.3397C88.4339 44.3397 87.7095 43.6882 87.7095 42.6172C87.7095 41.551 88.4339 40.8994 89.3832 40.8994C90.0603 40.8994 90.6213 41.2359 90.8794 41.8116L90.4438 41.9846C90.2497 41.5747 89.8543 41.3449 89.3832 41.3449C88.7109 41.3449 88.1782 41.8093 88.1782 42.6172C88.1782 43.4299 88.7109 43.8943 89.3832 43.8943C89.8543 43.8943 90.2497 43.6645 90.4438 43.2546L90.8794 43.4299C90.6213 44.0033 90.0603 44.3397 89.3832 44.3397ZM93.5844 44.3397C92.6351 44.3397 91.9107 43.6858 91.9107 42.6172C91.9107 41.551 92.6351 40.8994 93.5844 40.8994C94.529 40.8994 95.2557 41.551 95.2557 42.6172C95.2557 43.6858 94.529 44.3397 93.5844 44.3397ZM93.5844 43.8967C94.2544 43.8967 94.7846 43.4323 94.7846 42.6172C94.7846 41.8093 94.2544 41.3449 93.5844 41.3449C92.9121 41.3449 92.3794 41.8093 92.3794 42.6172C92.3794 43.4323 92.9121 43.8967 93.5844 43.8967ZM98.8579 40.9443H99.3266V44.2947H98.8177L97.0682 41.6363V44.2947H96.6018V40.9443H97.1061L98.8579 43.5909L98.8579 40.9443ZM103.161 40.9443H103.63V44.2947H103.121L101.371 41.6363V44.2947H100.905V40.9443H101.409L103.161 43.5909L103.161 40.9443ZM107.028 41.3684H105.688V42.411H106.87V42.8327H105.688V43.8681H107.028V44.2946H105.208V40.9442H107.028V41.3684ZM109.828 44.3397C108.879 44.3397 108.154 43.6882 108.154 42.6172C108.154 41.551 108.879 40.8994 109.828 40.8994C110.505 40.8994 111.066 41.2359 111.324 41.8116L110.889 41.9846C110.694 41.5747 110.299 41.3449 109.828 41.3449C109.156 41.3449 108.623 41.8093 108.623 42.6172C108.623 43.4299 109.156 43.8943 109.828 43.8943C110.299 43.8943 110.694 43.6645 110.889 43.2546L111.324 43.4299C111.066 44.0033 110.505 44.3397 109.828 44.3397ZM114.37 40.9443V41.3684H113.523V44.2947H113.056V41.3684H112.206V40.9443H114.37ZM115.567 44.2947V40.9443H116.038V44.2947H115.567ZM119.692 40.9443H120.19L118.959 44.2947H118.466L117.24 40.9443H117.735L118.715 43.7165L119.692 40.9443ZM121.389 44.2947V40.9443H121.86V44.2947H121.389ZM125.223 40.9443V41.3684H124.376V44.2947H123.909V41.3684H123.059V40.9443H125.223ZM128.686 40.9443L127.585 42.6977V44.2946H127.109V42.7L126.006 40.9443H126.541L127.346 42.2735L128.153 40.9443H128.686ZM130.093 45.1524H129.762L130.053 43.6692H130.527L130.093 45.1524ZM136.041 40.9443L134.94 42.6977V44.2946H134.464V42.7L133.361 40.9443H133.896L134.701 42.2735L135.508 40.9443H136.041ZM138.646 44.3397C137.697 44.3397 136.973 43.6858 136.973 42.6172C136.973 41.551 137.697 40.8994 138.646 40.8994C139.591 40.8994 140.318 41.551 140.318 42.6172C140.318 43.6858 139.591 44.3397 138.646 44.3397ZM138.646 43.8967C139.316 43.8967 139.847 43.4323 139.847 42.6172C139.847 41.8093 139.316 41.3449 138.646 41.3449C137.974 41.3449 137.441 41.8093 137.441 42.6172C137.441 43.4323 137.974 43.8967 138.646 43.8967ZM142.826 44.3397C142.133 44.3397 141.595 43.9298 141.595 43.174V40.9444H142.066V43.1076C142.066 43.6597 142.398 43.9132 142.826 43.9132C143.255 43.9132 143.593 43.6573 143.593 43.1076V40.9444H144.064V43.174C144.064 43.9298 143.525 44.3397 142.826 44.3397ZM147.38 44.2947L146.514 42.7878H146.045V44.2947H145.574V40.9443H146.701C147.401 40.9443 147.721 41.3732 147.721 41.8992C147.721 42.3659 147.446 42.6905 146.987 42.7687L147.932 44.2946L147.38 44.2947ZM146.045 41.3519V42.4276H146.637C147.072 42.4276 147.269 42.2097 147.269 41.8922C147.269 41.5794 147.072 41.3519 146.637 41.3519H146.045ZM151.59 44.2947L150.645 40.9443H151.135L151.907 43.669L152.726 40.9443H153.138L153.957 43.669L154.731 40.9443H155.219L154.274 44.2947H153.709L152.932 41.8023L152.156 44.2947H151.59ZM158.611 44.2947L158.331 43.5128H156.835L156.556 44.2947H156.066L157.299 40.9443H157.867L159.101 44.2947H158.611ZM156.982 43.1006H158.184L157.583 41.4112L156.982 43.1006ZM162.565 40.9443L161.465 42.6977V44.2946H160.989V42.7L159.886 40.9443H160.421L161.226 42.2735L162.033 40.9443H162.565Z" fill="white"/>
</svg>
