<svg width="138" height="43" viewBox="0 0 138 43" fill="none" xmlns="http://www.w3.org/2000/svg">
<path d="M5.04262 34.9023C5.45366 35.3849 5.88728 35.8478 6.34203 36.2893C7.87489 37.7993 9.70284 39.0685 11.6638 40.0285C12.3863 40.3671 13.0528 40.7179 13.8336 41.0199C14.0287 41.0949 14.228 41.1752 14.4375 41.2475C14.6488 41.3145 14.8679 41.3815 15.0969 41.4479C15.3246 41.5191 15.5673 41.5697 15.8212 41.6223C16.0753 41.6733 16.3391 41.7317 16.6224 41.7608C15.2169 41.4642 13.8468 41.0187 12.5355 40.4316C11.2161 39.8359 9.96237 39.104 8.79474 38.2478C6.45621 36.5332 4.456 34.3318 2.99497 31.8153C2.93467 31.7401 2.8431 31.5968 2.73336 31.4142L2.55688 31.115L2.37885 30.7709C2.26046 30.5321 2.12412 30.2898 2.01969 30.0551C1.92606 29.8497 1.82804 29.6464 1.72571 29.4453C2.17976 30.5772 2.70387 31.5673 3.29072 32.5087C3.56103 32.9405 3.84715 33.3622 4.14849 33.7729C4.10593 33.7154 4.06159 33.6595 4.01924 33.6018C4.34216 34.047 4.68237 34.4793 5.03908 34.8979L5.04262 34.9023ZM0.315457 24.0522L0.208374 23.1924C0.26513 23.7172 0.330976 24.3036 0.451361 24.8907L0.378864 24.4738C0.352105 24.3342 0.330952 24.1935 0.315457 24.0522ZM19.0443 41.7C20.5191 41.8493 22.0657 41.8047 23.5806 41.5648C25.0964 41.3259 26.5789 40.902 27.9573 40.3557C25.4188 41.3549 22.7246 41.7994 20.089 41.725C19.7363 41.7195 19.3886 41.725 19.0443 41.7Z" fill="#FD026F"/>
<path d="M10.3123 38.6806L10.2549 38.644C10.2742 38.6562 10.293 38.6686 10.3123 38.6806ZM12.452 39.8604C13.6672 40.4263 14.94 40.859 16.2482 41.151C14.1003 40.6606 12.0791 39.7954 10.3123 38.6806C10.9907 39.1127 11.7039 39.5125 12.452 39.8604ZM39.2615 24.2858C39.2832 23.9352 39.3271 23.5673 39.3382 23.3923C39.4699 22.267 39.5089 21.3063 39.5034 20.3424C39.479 20.1686 39.4092 19.8431 39.3814 19.473C39.3475 19.102 39.2976 18.7387 39.2555 18.3804C39.1914 18.0251 39.1362 17.6734 39.0662 17.3286C39.5706 19.9063 39.5621 22.494 39.0981 24.9355C39.1491 24.7181 39.2036 24.5015 39.2615 24.2858Z" fill="#FD026F"/>
<path d="M0.216138 19.0465C0.404142 17.5154 0.804318 16.023 1.18498 15.0287L1.0309 15.7565C1.12601 15.5433 1.27965 15.0478 1.48916 14.5234L1.64036 14.1236L1.80731 13.736C1.91816 13.485 2.01127 13.2471 2.10949 13.0647C2.04231 13.2358 1.97757 13.4202 1.89953 13.6053C1.82305 13.791 1.73725 13.9796 1.65544 14.1693L1.9911 13.4129C1.65242 14.262 1.36088 15.1292 1.11781 16.0106C0.866616 16.9762 0.66797 17.9912 0.561109 18.9023C0.53007 19.1295 0.519207 19.3514 0.499032 19.5631C0.484178 19.7747 0.45846 19.9767 0.456465 20.1675C0.447153 20.5489 0.434294 20.8829 0.440724 21.15C0.464002 21.6846 0.49615 21.9511 0.542486 21.8022C0.633606 21.5064 0.631832 19.9853 0.949755 18.0817C1.1198 17.1329 1.3639 16.0922 1.69512 15.0726C2.02391 14.0522 2.4549 13.0627 2.90119 12.1898L2.76994 12.4765L2.64911 12.7718L2.40169 13.3689L2.17467 13.9858L2.05916 14.2969C2.02524 14.4025 1.99088 14.5086 1.95696 14.6151C1.66431 15.4598 1.44548 16.3494 1.25482 17.2461L1.13089 17.9233C1.08544 18.1483 1.06615 18.3773 1.03245 18.6038C0.961949 19.0567 0.936231 19.5129 0.89699 19.9638C0.852871 20.8678 0.844003 21.7607 0.925811 22.6145C0.922486 22.4117 0.91916 22.2315 0.922042 22.0571L0.947538 21.5346C0.95818 21.3551 0.956185 21.1647 0.973034 20.9466C0.988554 20.7284 1.00274 20.4826 1.01516 20.1917C1.10184 18.7254 1.36368 17.2738 1.77072 15.869C2.15871 14.4582 2.6163 13.2158 3.29804 12.0902L3.47563 11.7516C3.59579 11.5244 3.69578 11.3002 3.82281 11.0717C3.96759 10.821 4.10615 10.6332 4.21833 10.4613C4.33384 10.2911 4.43183 10.1415 4.54402 9.99641L5.36033 8.86875C5.37696 8.86675 5.35545 8.9098 5.31599 8.97371C5.45058 8.78174 5.59557 8.59729 5.75031 8.42119C5.91769 8.22704 6.0802 8.02112 6.21788 7.85115C6.25025 7.8496 6.28173 7.84871 6.356 7.79546C8.27374 5.75472 10.6338 4.09163 13.2933 3.04319L13.8846 2.81265L14.4832 2.61317L14.781 2.51376L15.0825 2.42944L15.6833 2.26236C16.0269 2.17959 16.375 2.09571 16.73 2.02027L17.2703 1.92575C17.4518 1.89446 17.6343 1.85918 17.821 1.84187C18.1921 1.79727 18.5158 1.70319 18.6903 1.68011C19.6589 1.62486 20.6257 1.63595 21.7606 1.72804C21.8487 1.72959 21.9857 1.73758 22.1446 1.74623C22.3036 1.75533 22.4854 1.75977 22.6616 1.77597C22.8683 1.82257 23.0889 1.86872 23.3203 1.91376C24.7324 2.13299 26.0976 2.52485 27.3966 3.04608L27.395 3.03987L27.8925 3.23824L28.4002 3.473C28.7485 3.62477 29.0897 3.81893 29.4422 4.00177C29.6192 4.09208 29.7868 4.20236 29.9606 4.30221C30.1313 4.40739 30.31 4.50058 30.4749 4.61552C30.8093 4.83786 31.1482 5.05065 31.4606 5.2883C31.9643 5.65206 32.4525 6.03687 32.9239 6.44169C32.9341 6.45101 32.9447 6.45967 32.9549 6.46877L32.9642 6.4772L33.2872 6.77054L33.5963 7.07919L33.9056 7.38806C34.008 7.49169 34.1029 7.60263 34.202 7.70959C34.1541 7.63192 34.1559 7.60064 34.1577 7.56979C34.0049 7.42335 33.8242 7.25005 33.6457 7.07941C33.9435 7.35056 34.2033 7.59576 34.4166 7.7959C34.4989 7.90108 34.5886 8.00448 34.6738 8.11742L34.9367 8.46491L35.2163 8.82637L35.4945 9.21512C35.988 9.84485 36.4237 10.5185 36.8374 11.2055C37.0289 11.5579 37.2402 11.9002 37.4107 12.2648L37.6796 12.8053L37.9217 13.3594C37.9914 13.4777 37.9643 13.3643 37.973 13.3443C38.2445 14.0016 38.4629 14.685 38.6607 15.3737C39.0387 16.6184 39.2918 17.8978 39.4162 19.1927C39.4661 19.4985 39.4874 19.8078 39.5315 20.1142L39.5043 20.7631C39.504 21.0078 39.5169 21.2526 39.5065 21.4977L39.4781 22.2358C39.4746 22.4022 39.4506 22.5839 39.4366 22.7814C39.418 22.9784 39.4083 23.191 39.3799 23.4151L39.2885 24.1234C39.2593 24.3717 39.2027 24.6269 39.1593 24.8936C38.9429 26.0648 38.623 27.2144 38.2033 28.3289C38.1497 28.5122 38.1086 28.6586 38.0721 28.7405C37.933 29.0736 37.7847 29.396 37.6415 29.7135C37.4812 30.0228 37.3342 30.3322 37.1699 30.6251C36.6619 31.5893 36.0723 32.5083 35.4076 33.3719C35.3331 33.4693 35.2637 33.5682 35.1888 33.6596L34.9675 33.9272C34.8212 34.1001 34.6904 34.273 34.5516 34.423C34.2743 34.723 34.0415 35.0012 33.8231 35.2105C33.573 35.4718 33.5954 35.484 33.7686 35.358C33.8901 35.2682 34.009 35.1748 34.1251 35.078L34.5955 34.6533C34.7676 34.5031 34.9323 34.3335 35.091 34.1738C35.248 34.0129 35.405 33.8662 35.526 33.7335C35.7701 33.4693 35.9304 33.3062 35.8963 33.3787C35.5023 34.121 34.7849 35.0365 33.7362 36.0492C33.2012 36.5434 32.5993 37.0803 31.8874 37.598C31.5402 37.8689 31.1542 38.1168 30.7607 38.3875C30.3541 38.6367 29.9386 38.9096 29.4844 39.1519C28.4902 39.6938 30.2304 38.8246 30.2774 38.8164C30.1096 38.9487 29.9336 39.0703 29.7504 39.1803C29.4227 39.3547 29.0979 39.5347 28.7585 39.6847C28.5601 39.7759 28.3652 39.8744 28.1646 39.9596L27.5595 40.2086L27.8797 40.0825C28.5341 39.8223 29.1458 39.5156 29.6981 39.2123C29.4906 39.3379 29.2635 39.4832 29.0148 39.6143C28.7481 39.7524 28.4721 39.9033 28.1952 40.0379L27.3915 40.4121C30.2665 39.3667 32.9086 37.6368 35.0001 35.3818C36.0472 34.2577 36.981 33.0228 37.7424 31.687C38.5084 30.354 39.1247 28.9401 39.5799 27.4713C38.8806 29.6747 37.7905 31.6988 36.4802 33.4102C38.8622 30.1913 40.2824 26.2447 40.4707 22.1745C40.4704 22.3988 40.4483 22.6223 40.4334 22.8457C40.415 23.0692 40.4062 23.2935 40.38 23.5163C40.323 23.9612 40.2822 24.4085 40.1966 24.8496C40.0583 25.7372 39.8339 26.6095 39.5799 27.4713C40.0814 25.9134 40.3809 24.2707 40.4988 22.6187C40.6216 20.9654 40.5192 19.3021 40.2645 17.6903C40.7021 19.8253 40.7746 22.2444 40.4017 24.6351C40.6638 23.0931 40.7303 21.5037 40.6296 19.9279C40.607 19.3259 40.5361 18.7281 40.4778 18.1747C40.3942 17.6253 40.331 17.118 40.2501 16.7078C40.5704 18.2224 40.6968 19.5142 40.7584 20.732C40.6992 18.0744 40.1492 15.3817 39.0691 12.8524C39.6586 14.2261 40.1425 15.7039 40.4381 17.2232C40.7352 18.741 40.8587 20.2938 40.7884 21.7875C40.785 21.6127 40.7924 21.4381 40.7822 21.2625L40.7584 20.732C40.8221 23.1395 40.4516 25.5258 39.7173 27.7697C39.3488 28.8916 38.8937 29.9818 38.3428 31.0191C37.7929 32.0549 37.1582 33.0432 36.445 33.9739C37.2593 33.0219 38.1191 31.6764 38.8052 30.1984C39.4883 28.7172 39.9953 27.1154 40.3441 25.7164C39.8311 28.2286 38.8128 30.7076 37.3353 32.9214C35.8619 35.137 33.932 37.085 31.699 38.5801C29.4686 40.0799 26.9381 41.1179 24.3413 41.6307C23.0519 41.887 21.7412 42.0214 20.4267 42.0321C19.136 42.039 17.8476 41.9264 16.5777 41.6959L17.2439 41.8226C17.466 41.8648 17.6913 41.8881 17.9147 41.9214C18.3617 41.9933 18.8138 42.0203 19.2643 42.0618C20.1673 42.1126 21.0751 42.1297 21.9801 42.0607C22.8867 42.0126 23.7875 41.8772 24.684 41.7119C25.1288 41.6107 25.5788 41.5279 26.018 41.3981C26.2384 41.3365 26.4614 41.2825 26.6803 41.214L27.3354 41.0014C27.0046 41.1039 26.6565 41.2397 26.2847 41.3393L25.8189 41.4765C26.7965 41.2156 27.7532 40.8821 28.6811 40.4788C29.1056 40.2935 29.5235 40.0933 29.934 39.8786C29.1649 40.2869 28.3716 40.648 27.5586 40.9597C26.0084 41.5387 24.3973 41.9394 22.7565 42.1539C22.5104 42.193 22.2861 42.2052 22.085 42.2262L21.5467 42.2795C21.2299 42.3046 20.996 42.3159 20.8324 42.3339C20.5049 42.3665 20.4584 42.3969 20.5887 42.422C20.7189 42.447 21.0257 42.467 21.403 42.4776C21.7793 42.4754 22.2256 42.4552 22.6315 42.4182C26.7102 41.9995 30.455 40.3974 33.456 37.999C36.4589 35.6001 38.7589 32.4135 40.0408 28.7978C40.1213 28.5879 40.1831 28.3713 40.2501 28.1565C40.315 27.941 40.3869 27.7278 40.4456 27.5104C40.5545 27.0732 40.6833 26.6412 40.7666 26.1974L40.9039 25.5351L41.0118 24.8667L41.0653 24.5323L41.1034 24.1957L41.1792 23.5225C41.334 21.7221 41.2728 19.9023 40.9992 18.1166C40.8529 17.1061 40.5957 15.9063 40.2643 14.8377L40.0093 14.0646C39.9206 13.8189 39.8264 13.5873 39.7426 13.3694L39.6191 13.0554L39.4925 12.7734L39.275 12.3021C38.5802 10.8911 37.7071 9.5453 36.6851 8.29361C35.6641 7.04147 34.4911 5.88208 33.1686 4.87247L32.6711 4.49459L32.1552 4.13779L31.8967 3.95894L31.63 3.79119L31.0941 3.45658C30.3636 3.0341 29.6154 2.62692 28.8266 2.2892C28.0459 1.93462 27.229 1.64683 26.3974 1.38943C25.9772 1.27405 25.5591 1.14535 25.1283 1.05682C24.9137 1.01044 24.7009 0.954079 24.4838 0.915248L23.8311 0.799643C22.2703 0.524718 20.6468 0.45926 19.0248 0.581301C17.4037 0.70667 15.7758 1.01466 14.2147 1.54631L13.6305 1.7489C13.4352 1.8148 13.247 1.90023 13.0548 1.97501C12.8646 2.05466 12.6701 2.12434 12.4834 2.21221L11.9221 2.47249C11.7332 2.55592 11.5507 2.65178 11.3687 2.74874L10.8213 3.03654L10.2888 3.34985C10.1114 3.45458 9.93275 3.55687 9.76292 3.67337L9.24768 4.01242C9.07431 4.1227 8.9138 4.25162 8.74641 4.37011C8.58213 4.49304 8.41164 4.60753 8.2529 4.73712L7.77468 5.12255C7.61306 5.24791 7.46053 5.38393 7.30844 5.52018L6.85107 5.92624L6.41409 6.35205C6.26865 6.49384 6.12166 6.63407 5.9862 6.78496C4.87081 7.96055 3.89088 9.24308 3.08942 10.6002C2.30349 11.9315 1.65946 13.3417 1.16791 14.8077C0.197958 17.6745 -0.0802802 20.582 0.0491948 23.2081C0.0212601 22.127 0.0166043 20.5767 0.216138 19.0465ZM31.5056 39.1158C32.1793 38.6799 32.8281 38.2066 33.4489 37.6981C32.8192 38.2171 32.1723 38.6964 31.5056 39.1158ZM40.4219 27.071C40.3556 27.2709 40.2995 27.4684 40.2263 27.657L40.0142 28.2169L39.9109 28.4938L39.7971 28.7669C39.7212 28.951 39.6475 29.136 39.5761 29.3219C39.1656 30.3452 38.6774 31.3355 38.1157 32.2841C37.5568 33.2327 36.909 34.1216 36.2168 34.9557C35.875 35.3771 35.5025 35.7678 35.1363 36.1586L34.564 36.7184C34.3763 36.9066 34.1707 37.0743 33.9761 37.2519C33.8129 37.3939 33.6484 37.5328 33.4828 37.6695C34.0979 37.1638 34.6824 36.622 35.2334 36.047C34.4363 36.8739 33.5692 37.6303 32.6419 38.3076C32.4122 38.4678 32.1903 38.6396 31.9517 38.7905L31.2318 39.2496L30.4714 39.682C30.2127 39.8258 29.9395 39.9536 29.6657 40.0936C29.8618 39.978 30.0603 39.8664 30.261 39.759C30.4873 39.6332 30.7248 39.4845 30.9567 39.3485C31.1904 39.2152 31.4028 39.0687 31.5792 38.9462C31.7557 38.8237 31.8941 38.7221 31.9661 38.6564C31.8632 38.7263 31.7586 38.7933 31.6544 38.8615C31.7665 38.7875 31.8779 38.7124 31.9885 38.6362C31.9838 38.6413 31.9741 38.6493 31.9661 38.6564C34.3898 36.9998 36.4545 34.8228 38.0016 32.3409C39.5555 29.8613 40.5667 27.0641 40.9857 24.2195C40.8948 25.3604 40.6859 26.2715 40.4219 27.071ZM37.0737 9.75233C37.7409 10.7609 38.3176 11.8266 38.797 12.9369C38.8525 13.0587 38.9048 13.1823 38.9564 13.3061C40.0567 16.003 40.5574 18.8961 40.484 21.746C40.5026 20.803 40.4401 19.8604 40.3356 18.9258C40.2175 17.8487 39.9991 16.7845 39.7096 15.7436C39.1416 13.6563 38.219 11.6779 37.048 9.87437C37.1555 10.023 37.2688 10.1841 37.3861 10.355C37.5117 10.5318 37.6293 10.7142 37.7386 10.9015L37.5972 10.6554L37.4444 10.416L37.1389 9.9376C36.9309 9.62163 36.7055 9.31719 36.4884 9.00743C36.253 8.71143 36.0297 8.40566 35.7847 8.11742C35.5994 7.90596 35.4218 7.6874 35.2338 7.4786C35.8971 8.17867 36.5199 8.92977 37.0737 9.75233ZM21.4995 0.778119C21.8247 0.795427 22.1506 0.827157 22.4765 0.851565C22.7435 0.873976 23.0091 0.913473 23.272 0.943207C23.3509 0.946535 23.4343 0.951861 23.5389 0.963621C23.6434 0.978044 23.7682 1.00489 23.9311 1.04217C25.1436 1.24454 26.2499 1.54875 27.0352 1.86295C28.5423 2.43388 29.9446 3.14416 31.2165 3.96449C32.4889 4.78327 33.6307 5.71455 34.5966 6.73171C35.0418 7.21521 34.9119 7.10981 34.6665 6.87505L35.0349 7.26647C34.8718 7.1036 34.7115 6.93851 34.5459 6.77919L34.0357 6.31544C34.1599 6.42416 34.4609 6.68444 34.6665 6.87505C33.0283 5.2022 31.1134 3.81316 29.0407 2.79135C26.9665 1.76998 24.7328 1.13914 22.5 0.88729C22.8587 0.927231 23.0348 0.936106 23.2024 0.940544C22.9618 0.912364 22.7206 0.873755 22.4765 0.851565C22.1486 0.830042 21.8214 0.800752 21.4959 0.784776L20.5293 0.761921C20.8494 0.761699 21.1738 0.770575 21.4995 0.778119Z" fill="#FD026F"/>
<path d="M25.7242 41.5037L25.8187 41.476C25.7198 41.5026 25.6225 41.5319 25.5229 41.5572C25.5903 41.5404 25.658 41.5239 25.7242 41.5037ZM35.5861 32.9522C36.525 31.7125 37.3546 30.2312 37.8843 28.9551L37.8778 28.9564C36.5341 32.1344 34.3545 34.8721 31.6346 36.8877C32.1176 36.5518 32.592 36.2038 33.0575 35.8442C33.6557 35.2184 34.6567 34.2008 35.5861 32.9522ZM7.85669 36.6567C9.44675 38.0795 11.3643 39.3177 13.4986 40.1518C14.3309 40.4653 15.1802 40.74 16.0489 40.9335C16.4799 41.0449 16.9199 41.1137 17.3567 41.1955C17.5755 41.2344 17.7972 41.2559 18.0172 41.287C18.2375 41.3156 18.4575 41.348 18.6794 41.3608C17.6775 41.2497 16.6829 41.0833 15.7148 40.8194C14.7472 40.5565 13.7988 40.2314 12.8838 39.8322C11.9736 39.4267 11.0925 38.9585 10.2469 38.4312C9.40751 37.8969 8.61159 37.3002 7.85669 36.6567ZM27.4835 39.1932L26.9915 39.3865L26.4891 39.5542C26.1566 39.674 25.8136 39.7637 25.4715 39.8589C25.8154 39.7723 26.1612 39.6916 26.4967 39.5806L27.0028 39.4257L27.4972 39.2449C27.4781 39.2351 27.3655 39.2571 27.4835 39.1932ZM21.6762 40.4553C21.419 40.4773 21.1605 40.4753 20.9015 40.4779C20.6426 40.481 20.3832 40.4866 20.1236 40.4695L20.473 40.5023C20.5798 40.5092 20.676 40.5174 20.7601 40.5274C21.0662 40.5012 21.3702 40.4939 21.6762 40.4553ZM11.4241 38.0686C11.7214 38.2433 12.0371 38.397 12.3504 38.5666C12.4289 38.6096 12.5712 38.6586 12.7497 38.7239C12.3681 38.5599 12.0026 38.3567 11.631 38.168C11.447 38.0702 11.2698 37.9606 11.0894 37.8585C10.9093 37.7555 10.73 37.6528 10.5597 37.5379L10.7674 37.6768L10.984 37.8064L11.4241 38.0686Z" fill="#FD026F"/>
<path d="M33.7763 12.95C33.8186 13.0346 33.8186 13.1191 33.7552 13.1826C33.713 13.246 33.6285 13.3094 33.5439 13.3517C33.3749 13.4152 33.1848 13.394 32.9524 13.246C32.8468 13.2037 32.7623 13.1614 32.6777 13.1191C32.6777 13.1191 32.6566 13.1191 32.6566 13.098L11.044 12.7385C11.5087 12.8443 11.9947 12.95 12.4806 13.098C13.9806 13.4997 15.2693 13.9861 16.3679 14.5147C17.7623 15.1913 18.7975 15.9525 19.4735 16.8195C19.9383 17.3904 20.2341 17.9824 20.3609 18.6379C21.5651 15.868 22.5158 13.7112 22.6214 13.5209C22.6214 13.5209 22.7904 13.2672 23.0017 13.3517C23.2341 13.4363 23.1707 13.7746 23.1707 13.7746C22.558 15.1067 21.5228 17.3692 20.4242 19.8643C20.4242 19.8854 20.4242 19.8854 20.4031 19.9066C18.4806 24.2413 17.1073 27.6456 16.5369 30.1406C16.5158 30.1406 16.5158 30.1195 16.5158 30.1195C16.5158 30.1195 16.4313 30.5635 16.1778 30.6058C15.9031 30.6481 15.6707 30.2675 15.6707 30.2675C15.5651 29.8023 17.6355 24.8545 19.8961 19.674C19.9594 18.7648 19.6848 17.919 19.0721 17.1366C17.9313 15.7199 15.6073 14.4935 12.3538 13.6055C9.86086 12.9288 7.70593 12.6751 7.6848 12.6751C7.6848 12.6751 7.45241 12.7174 7.41016 12.4637C7.41016 12.2099 7.64255 12.1676 7.70593 12.1465L32.6989 12.5694C32.9313 12.5694 33.1425 12.5905 33.3327 12.6328C33.5651 12.6751 33.7341 12.7808 33.7763 12.95ZM28.1635 14.1341C28.417 14.2187 28.3536 14.5781 28.3536 14.5781C27.2762 16.9252 26.3255 18.9339 25.5438 21.0695C25.7339 21.0484 25.9663 21.0273 26.1564 21.0273H26.2198C26.41 21.0273 26.6846 21.0484 26.748 21.2176L26.7691 21.281L26.748 21.3444C26.6635 21.6827 25.6917 21.8308 25.3536 21.8942L25.3325 21.9999H25.2057C24.7621 23.2475 24.3818 24.5584 24.0438 26.0174C24.0438 25.9963 24.0438 25.9963 24.0226 25.9963C24.0226 25.9963 23.9381 26.4826 23.6424 26.5249C23.3466 26.5883 23.0931 26.1443 23.0931 26.1443C23.0086 25.7848 23.6635 23.9875 24.4452 22.0211C23.9593 22.0845 23.4522 22.1479 22.9452 22.1902C22.8184 22.2114 22.7128 22.2114 22.586 22.2114C22.248 22.2114 21.9311 22.1056 21.9311 21.8308C21.9311 21.7462 21.9734 21.6616 22.0367 21.5347C22.5438 20.5621 23.0297 19.5683 23.4522 18.5745L23.4945 18.511C23.8959 17.5172 24.2762 16.5446 24.6565 15.5508C24.7832 15.2125 24.91 14.853 25.0156 14.5147C25.1635 14.1552 25.3114 13.7112 25.5015 13.3729L25.586 13.2672C25.7128 13.098 25.8818 12.9923 26.0086 12.9923C26.1353 12.9923 26.2621 13.1191 26.2832 13.394V13.4363C26.2832 14.0707 25.5649 15.2759 25.3114 15.8257L25.0156 16.5023C24.9945 16.5234 24.9945 16.5446 24.9945 16.5869C24.6353 17.4327 24.2762 18.2996 23.8959 19.1454C23.6846 19.6529 23.4522 20.1603 23.2198 20.6467C23.1142 20.9215 22.9874 21.1964 22.8607 21.429C23.2621 21.4079 23.6635 21.3444 24.0649 21.281C24.2762 21.2599 24.5086 21.2176 24.741 21.1753L24.8043 21.133C24.9311 20.837 25.0579 20.5198 25.1846 20.2238C26.1565 17.919 27.7198 14.3455 27.741 14.3032C27.741 14.3032 27.9311 14.0284 28.1635 14.1341Z" fill="#FD026F"/>
<path d="M48.5726 19.0267H45.6131V25.3305H44.0498V19.0267H41.1965V17.4622H48.5726V19.0267ZM54.7754 22.7179H54.9879L53.455 19.8014L51.5883 23.4014C51.9323 23.2191 52.3218 23.0723 52.7569 22.9609C53.3842 22.7989 54.0571 22.7179 54.7754 22.7179ZM52.6506 18.2672L52.1346 17.2799H53.8193L58.0688 25.3305H56.3538L55.7316 24.1457H54.7906C54.1936 24.1457 53.5613 24.2166 52.8935 24.3584C52.3269 24.4698 51.8108 24.6217 51.3454 24.8141C50.9205 24.9761 50.6625 25.1179 50.5714 25.2394L50.5259 25.3305H48.8867L52.6506 18.2672ZM65.5466 25.3305H59.7489V17.4622H61.3729V23.7508H65.5466V25.3305ZM70.7174 22.2926L68.7292 25.3305H67.0749V17.4622H68.7292V22.5052L72.3565 17.4622H74.3599L71.7646 21.0014L72.9181 22.9457C73.1305 23.2394 73.3582 23.4369 73.601 23.5381C73.773 23.609 73.9855 23.6445 74.2385 23.6445H74.7848V25.3305H74.1019C73.7882 25.3305 73.5353 25.3052 73.343 25.2546C73.1002 25.1938 72.8624 25.0824 72.6297 24.9204C72.3768 24.728 72.1036 24.4495 71.8101 24.085L70.7174 22.2926ZM82.0653 20.7736V15.8065L78.1648 20.7736H82.0653ZM84.7971 22.4293H83.7347V25.3305H82.0653V22.4293H76.0855V20.7736L81.6858 13.9077H83.7347V20.7736H85.4194L84.7971 22.4293ZM97.2529 17.4622L96.4789 18.7229V25.3305H94.7639V20.728L91.9865 24.4343L89.2091 20.728V25.3305H87.4941V18.7229L86.7201 17.4622H88.6324L91.9865 21.9128L95.3406 17.4622H97.2529ZM106.051 21.3356C106.051 20.7786 105.899 20.2976 105.596 19.8925C105.333 19.5381 104.963 19.2647 104.488 19.0723C104.053 18.9001 103.572 18.8141 103.046 18.8141C102.52 18.8141 102.034 18.9052 101.589 19.0875C101.113 19.2799 100.744 19.5634 100.481 19.9381C100.188 20.3432 100.041 20.8293 100.041 21.3964C100.041 21.9634 100.193 22.4495 100.496 22.8546C100.759 23.2191 101.129 23.5027 101.604 23.7052C102.049 23.8875 102.53 23.9786 103.046 23.9786C103.562 23.9786 104.048 23.8774 104.503 23.6748C104.968 23.4622 105.338 23.1634 105.611 22.7786C105.904 22.3634 106.051 21.8824 106.051 21.3356ZM107.69 21.3204C107.69 22.1812 107.463 22.9457 107.007 23.6141C106.592 24.2318 106.021 24.7179 105.292 25.0723C104.594 25.4065 103.84 25.5736 103.031 25.5736C102.221 25.5736 101.468 25.4065 100.769 25.0723C100.051 24.728 99.4845 24.2521 99.0696 23.6445C98.6244 22.9761 98.4018 22.2166 98.4018 21.366C98.4018 20.5153 98.6295 19.7609 99.0848 19.1027C99.4996 18.4951 100.071 18.0242 100.8 17.69C101.498 17.366 102.252 17.2039 103.061 17.2039C103.871 17.2039 104.619 17.3558 105.307 17.6596C106.026 17.9837 106.592 18.4444 107.007 19.0419C107.463 19.69 107.69 20.4495 107.69 21.3204ZM111.389 19.0267V20.8191C111.702 20.6369 112.082 20.5103 112.527 20.4394C112.871 20.3888 113.311 20.3634 113.848 20.3634H114.652C114.925 20.3634 115.125 20.3077 115.251 20.1963C115.378 20.085 115.441 19.9179 115.441 19.6951C115.441 19.4723 115.37 19.3052 115.229 19.1938C115.087 19.0824 114.895 19.0267 114.652 19.0267H111.389ZM111.389 22.4141V23.7508H114.652C115.026 23.7508 115.31 23.6951 115.502 23.5837C115.755 23.4318 115.881 23.1837 115.881 22.8394C115.881 22.5457 115.783 22.3255 115.585 22.1786C115.388 22.0318 115.077 21.9584 114.652 21.9584H113.848C113.149 21.9584 112.643 21.9888 112.33 22.0495C112.057 22.1002 111.743 22.2217 111.389 22.4141ZM117.444 22.8698C117.444 23.6394 117.197 24.2419 116.701 24.6774C116.205 25.1128 115.522 25.3305 114.652 25.3305H109.826V17.4622H114.652C115.077 17.4622 115.471 17.5558 115.836 17.7432C116.2 17.9305 116.491 18.1938 116.708 18.5331C116.926 18.8723 117.035 19.2546 117.035 19.6799C117.035 20.2672 116.863 20.7179 116.519 21.0318C116.812 21.2039 117.04 21.4546 117.202 21.7837C117.364 22.1128 117.444 22.4748 117.444 22.8698ZM121.28 25.3305H119.732V17.4622H121.28V25.3305ZM129.972 25.3305H124.174V17.4622H125.798V23.7508H129.972V25.3305ZM133.048 22.5052V23.7508H137.981V25.3305H131.5V17.4622H137.692V19.0267H133.048V20.9407C133.362 20.7584 133.741 20.6318 134.186 20.5609C134.53 20.5103 134.97 20.485 135.507 20.485H136.66V22.0495H135.507C134.809 22.0495 134.303 22.0799 133.989 22.1407C133.716 22.1913 133.402 22.3128 133.048 22.5052Z" fill="#FD026F"/>
<path d="M53.9979 35.2664H53.6321L53.4576 33.1076L52.6379 35.2664H52.411L51.5969 33.1151L51.4187 35.2664H51.051L51.2555 32.6118H51.7601L52.5235 34.6186L53.2907 32.6118H53.7953L53.9979 35.2664ZM56.2894 35.3021C55.5372 35.3021 54.9632 34.784 54.9632 33.9373C54.9632 33.0925 55.5372 32.5762 56.2894 32.5762C57.0378 32.5762 57.6137 33.0924 57.6137 33.9373C57.6137 34.784 57.0378 35.3021 56.2894 35.3021ZM56.2894 34.951C56.8202 34.951 57.2404 34.5831 57.2404 33.9373C57.2404 33.2971 56.8202 32.9291 56.2894 32.9291C55.7567 32.9291 55.3346 33.2971 55.3346 33.9373C55.3346 34.5831 55.7567 34.951 56.2894 34.951ZM59.9652 33.8772C60.2785 33.956 60.4885 34.1719 60.4885 34.5418C60.4885 34.9679 60.1997 35.2664 59.7232 35.2664H58.6803V32.6117H59.4944C59.9839 32.6117 60.2935 32.8971 60.2935 33.3176C60.2935 33.5692 60.179 33.7758 59.9652 33.8772ZM59.9445 33.3421C59.9445 33.1131 59.7795 32.9347 59.4925 32.9347H59.0423V33.7608H59.5506C59.7907 33.7608 59.9445 33.573 59.9445 33.3421ZM59.6594 34.9379C59.9614 34.9379 60.1246 34.7351 60.1246 34.5042C60.1246 34.2602 59.9539 34.0649 59.6369 34.0649H59.0423V34.9379L59.6594 34.9379ZM61.5345 35.2664V32.6118H61.9078V35.2664H61.5345ZM63.5334 34.9285H64.4394V35.2664H63.1601V32.6118H63.5334V34.9285ZM66.8322 32.9478H65.7705V33.7739H66.7065V34.108H65.7705V34.9284H66.8322V35.2664H65.3897V32.6117H66.8322V32.9478ZM70.4923 35.3021C69.7401 35.3021 69.1661 34.7858 69.1661 33.9373C69.1661 33.0925 69.7401 32.5762 70.4923 32.5762C71.0287 32.5762 71.4733 32.8428 71.6778 33.299L71.3326 33.436C71.1788 33.1112 70.8655 32.9291 70.4923 32.9291C69.9595 32.9291 69.5375 33.2971 69.5375 33.9373C69.5375 34.5812 69.9595 34.9492 70.4923 34.9492C70.8655 34.9492 71.1788 34.7671 71.3326 34.4423L71.6778 34.5812C71.4733 35.0355 71.0287 35.3021 70.4923 35.3021ZM73.8211 35.3021C73.0689 35.3021 72.4949 34.784 72.4949 33.9373C72.4949 33.0925 73.0689 32.5762 73.8211 32.5762C74.5695 32.5762 75.1453 33.0924 75.1453 33.9373C75.1453 34.784 74.5695 35.3021 73.8211 35.3021ZM73.8211 34.951C74.3519 34.951 74.7721 34.5831 74.7721 33.9373C74.7721 33.2971 74.3519 32.9291 73.8211 32.9291C73.2883 32.9291 72.8663 33.2971 72.8663 33.9373C72.8663 34.5831 73.2883 34.951 73.8211 34.951ZM77.9995 32.6118H78.3709V35.2664H77.9676L76.5814 33.16V35.2664H76.2119V32.6118H76.6115L77.9995 34.7087L77.9995 32.6118ZM81.409 32.6118H81.7804V35.2664H81.3771L79.9909 33.16V35.2664H79.6214V32.6118H80.0209L81.409 34.7087L81.409 32.6118ZM84.4733 32.9478H83.4117V33.7739H84.3477V34.108H83.4117V34.9284H84.4733V35.2664H83.0309V32.6117H84.4733V32.9478ZM86.6917 35.3021C85.9395 35.3021 85.3655 34.7858 85.3655 33.9373C85.3655 33.0925 85.9395 32.5762 86.6917 32.5762C87.2281 32.5762 87.6727 32.8428 87.8772 33.299L87.532 33.436C87.3782 33.1112 87.065 32.9291 86.6917 32.9291C86.159 32.9291 85.7369 33.2971 85.7369 33.9373C85.7369 34.5812 86.159 34.9492 86.6917 34.9492C87.065 34.9492 87.3782 34.7671 87.532 34.4423L87.8772 34.5812C87.6727 35.0355 87.2281 35.3021 86.6917 35.3021ZM90.2906 32.6118V32.9478H89.619V35.2664H89.2495V32.9478H88.5761V32.6118H90.2906ZM91.239 35.2664V32.6118H91.6123V35.2664H91.239ZM94.5077 32.6118H94.9016L93.9262 35.2664H93.5361L92.5644 32.6118H92.9564L93.733 34.8083L94.5077 32.6118ZM95.852 35.2664V32.6118H96.2253V35.2664H95.852ZM98.89 32.6118V32.9478H98.2185V35.2664H97.849V32.9478H97.1756V32.6118H98.89ZM101.634 32.6118L100.761 34.001V35.2664H100.384V34.0029L99.5102 32.6118H99.9341L100.572 33.665L101.211 32.6118H101.634ZM102.749 35.9461H102.486L102.717 34.7708H103.092L102.749 35.9461ZM107.461 32.6118L106.589 34.001V35.2664H106.212V34.0029L105.338 32.6118H105.762L106.4 33.665L107.039 32.6118H107.461ZM109.526 35.3021C108.774 35.3021 108.2 34.784 108.2 33.9373C108.2 33.0925 108.774 32.5762 109.526 32.5762C110.274 32.5762 110.85 33.0924 110.85 33.9373C110.85 34.784 110.274 35.3021 109.526 35.3021ZM109.526 34.951C110.057 34.951 110.477 34.5831 110.477 33.9373C110.477 33.2971 110.057 32.9291 109.526 32.9291C108.993 32.9291 108.571 33.2971 108.571 33.9373C108.571 34.5831 108.993 34.951 109.526 34.951ZM112.838 35.3021C112.288 35.3021 111.862 34.9773 111.862 34.3784V32.6118H112.236V34.3259C112.236 34.7633 112.498 34.9642 112.838 34.9642C113.177 34.9642 113.446 34.7614 113.446 34.3259V32.6118H113.819V34.3784C113.819 34.9773 113.391 35.3021 112.838 35.3021ZM116.446 35.2664L115.76 34.0724H115.388V35.2664H115.015V32.6118H115.908C116.463 32.6118 116.716 32.9516 116.716 33.3683C116.716 33.7382 116.499 33.9954 116.135 34.0573L116.883 35.2664L116.446 35.2664ZM115.388 32.9347V33.7871H115.857C116.202 33.7871 116.358 33.6143 116.358 33.3628C116.358 33.115 116.202 32.9347 115.857 32.9347H115.388ZM119.782 35.2664L119.033 32.6118H119.422L120.033 34.7706L120.682 32.6118H121.008L121.657 34.7706L122.271 32.6118H122.657L121.909 35.2664H121.461L120.845 33.2915L120.23 35.2664H119.782ZM125.345 35.2664L125.123 34.6469H123.938L123.716 35.2664H123.328L124.305 32.6118H124.756L125.733 35.2664H125.345ZM124.054 34.3202H125.007L124.53 32.9817L124.054 34.3202ZM128.478 32.6118L127.606 34.001V35.2664H127.229V34.0029L126.355 32.6118H126.779L127.416 33.665L128.056 32.6118H128.478Z" fill="#FD026F"/>
</svg>
