<svg width="599" height="493" viewBox="0 0 599 493" fill="none" xmlns="http://www.w3.org/2000/svg">
<g opacity="0.03" clip-path="url(#clip0_1498_18533)">
<path d="M144.054 556.333C143.465 556.334 142.889 556.159 142.401 555.83C71.1435 508.15 28.6055 428.587 28.6055 343.002C28.6055 339.651 28.6953 336.099 28.893 331.481C28.9649 329.836 30.3516 328.608 32.0018 328.632C32.7916 328.667 33.5352 329.014 34.0693 329.597C34.6033 330.18 34.8842 330.951 34.85 331.741C34.671 335.492 34.5752 339.247 34.5625 343.002C34.5625 426.593 76.1152 504.304 145.713 550.879C147.082 551.793 147.45 553.644 146.531 555.009C146.26 555.418 145.892 555.753 145.459 555.984C145.027 556.215 144.544 556.335 144.054 556.333ZM150.538 206.721C149.944 206.72 149.364 206.542 148.871 206.21C148.379 205.877 147.998 205.405 147.776 204.853C147.554 204.302 147.502 203.697 147.627 203.117C147.751 202.536 148.046 202.005 148.474 201.593C151.237 198.938 154.076 196.364 156.989 193.875C157.286 193.621 157.63 193.428 158.002 193.306C158.374 193.185 158.765 193.138 159.155 193.168C159.545 193.199 159.925 193.305 160.274 193.482C160.622 193.659 160.932 193.903 161.187 194.2C161.441 194.497 161.634 194.841 161.755 195.213C161.877 195.585 161.924 195.977 161.893 196.366C161.863 196.756 161.757 197.136 161.58 197.485C161.403 197.833 161.159 198.143 160.862 198.398C158.036 200.815 155.28 203.313 152.598 205.888C152.047 206.425 151.307 206.724 150.538 206.721ZM91.2848 351.874C90.5114 351.874 89.7682 351.573 89.213 351.034C88.6578 350.496 88.3342 349.762 88.3108 348.989C88.2483 346.996 88.2174 345.002 88.2179 343.008C88.2209 338.153 88.4007 333.275 88.7481 328.507C88.7706 328.114 88.8717 327.73 89.0455 327.378C89.2193 327.025 89.4622 326.711 89.7598 326.455C90.0574 326.198 90.4035 326.004 90.7776 325.883C91.1518 325.763 91.5463 325.719 91.9377 325.754C93.576 325.874 94.8099 327.303 94.6901 328.944C94.3493 333.625 94.1775 338.317 94.175 343.011C94.175 344.946 94.205 346.875 94.2679 348.804C94.2921 349.593 94.0018 350.359 93.4609 350.934C92.92 351.51 92.1728 351.846 91.3837 351.871L91.2848 351.874ZM94.2379 311.696C93.8015 311.696 93.3703 311.601 92.9747 311.417C92.579 311.233 92.2287 310.964 91.9485 310.629C91.6682 310.295 91.4649 309.903 91.3528 309.481C91.2407 309.059 91.2226 308.618 91.2998 308.188C92.4978 301.501 94.0672 294.792 95.969 288.242C96.2163 287.515 96.7343 286.911 97.4153 286.557C98.0963 286.202 98.8878 286.124 99.6251 286.338C100.362 286.552 100.989 287.042 101.374 287.706C101.759 288.371 101.873 289.158 101.692 289.904C99.8453 296.264 98.3347 302.717 97.167 309.237C97.0448 309.925 96.6844 310.549 96.1489 310.998C95.6135 311.448 94.937 311.694 94.2379 311.696ZM105.472 273.006C104.983 273.006 104.502 272.886 104.071 272.656C103.64 272.426 103.272 272.094 102.999 271.688C102.727 271.282 102.558 270.816 102.508 270.33C102.459 269.843 102.529 269.352 102.714 268.9C105.299 262.573 108.215 256.387 111.45 250.367C111.839 249.697 112.472 249.204 113.217 248.993C113.962 248.782 114.76 248.869 115.442 249.235C116.125 249.601 116.638 250.219 116.873 250.956C117.108 251.694 117.047 252.495 116.703 253.188C113.566 259.023 110.739 265.019 108.234 271.152C108.008 271.7 107.626 272.168 107.134 272.498C106.643 272.828 106.064 273.005 105.472 273.006ZM124.526 237.509C123.985 237.509 123.454 237.362 122.99 237.082C122.526 236.802 122.148 236.402 121.895 235.923C121.642 235.444 121.524 234.906 121.555 234.365C121.585 233.825 121.762 233.303 122.067 232.855C125.915 227.207 130.05 221.761 134.458 216.538C134.98 215.977 135.698 215.638 136.463 215.592C137.228 215.546 137.982 215.796 138.567 216.291C139.153 216.786 139.525 217.487 139.608 218.249C139.69 219.011 139.476 219.776 139.01 220.384C134.735 225.449 130.723 230.73 126.991 236.207C126.718 236.609 126.351 236.938 125.921 237.165C125.491 237.392 125.012 237.51 124.526 237.509ZM94.8219 383.237C94.1309 383.235 93.462 382.994 92.9294 382.553C92.3968 382.113 92.0336 381.502 91.9018 380.823C91.1674 377.063 90.5412 373.283 90.0239 369.487C89.9712 369.1 89.9953 368.706 90.0949 368.328C90.1944 367.95 90.3675 367.595 90.6041 367.283C90.8408 366.972 91.1365 366.711 91.4743 366.514C91.812 366.317 92.1853 366.188 92.5727 366.136C92.9606 366.079 93.356 366.1 93.7357 366.198C94.1154 366.295 94.4718 366.468 94.7841 366.705C95.0965 366.942 95.3584 367.239 95.5546 367.578C95.7509 367.917 95.8775 368.293 95.9271 368.681C96.4272 372.329 97.0382 376.031 97.751 379.691C97.8345 380.123 97.8215 380.567 97.7129 380.993C97.6043 381.419 97.4028 381.816 97.1228 382.155C96.8429 382.494 96.4914 382.767 96.0936 382.954C95.6958 383.141 95.2615 383.238 94.8219 383.237ZM265.157 560.796C265.066 560.796 264.975 560.792 264.884 560.784C261.074 560.437 257.273 559.996 253.485 559.46C252.703 559.349 251.996 558.933 251.521 558.301C251.046 557.67 250.841 556.876 250.951 556.094C251.068 555.313 251.486 554.61 252.117 554.136C252.747 553.662 253.539 553.455 254.321 553.56C258.016 554.084 261.751 554.518 265.426 554.851C266.185 554.927 266.885 555.29 267.383 555.867C267.882 556.444 268.14 557.189 268.106 557.951C268.071 558.712 267.746 559.432 267.198 559.961C266.649 560.49 265.919 560.789 265.157 560.796ZM287.841 561.649C287.051 561.655 286.292 561.347 285.729 560.793C285.167 560.239 284.847 559.484 284.841 558.695C284.835 557.905 285.143 557.146 285.697 556.583C286.251 556.021 287.006 555.701 287.796 555.695C295.257 555.58 302.708 555.077 310.117 554.189C310.901 554.097 311.69 554.32 312.31 554.807C312.931 555.295 313.333 556.008 313.43 556.791C313.478 557.18 313.448 557.573 313.343 557.95C313.238 558.327 313.06 558.679 312.818 558.987C312.577 559.294 312.277 559.551 311.935 559.742C311.594 559.933 311.219 560.055 310.83 560.101C303.214 561.02 295.554 561.537 287.883 561.649H287.841ZM332.829 556.243C332.093 556.25 331.381 555.983 330.83 555.496C330.28 555.008 329.93 554.333 329.847 553.602C329.765 552.871 329.956 552.136 330.385 551.538C330.813 550.939 331.448 550.521 332.167 550.364C339.444 548.693 346.629 546.641 353.692 544.215C354.426 544.006 355.213 544.086 355.89 544.439C356.567 544.792 357.083 545.392 357.331 546.114C357.579 546.836 357.541 547.626 357.225 548.321C356.908 549.015 356.337 549.562 355.63 549.849C348.369 552.345 340.981 554.453 333.496 556.165C333.277 556.216 333.053 556.242 332.829 556.243ZM375.705 541.502C375.028 541.5 374.371 541.268 373.843 540.844C373.315 540.419 372.948 539.828 372.801 539.167C372.654 538.506 372.736 537.814 373.034 537.206C373.332 536.598 373.828 536.109 374.441 535.82C381.205 532.663 387.796 529.149 394.187 525.293C394.522 525.091 394.893 524.957 395.28 524.898C395.666 524.839 396.061 524.857 396.44 524.951C396.82 525.045 397.177 525.212 397.492 525.444C397.807 525.676 398.073 525.968 398.275 526.302C398.477 526.637 398.612 527.008 398.67 527.395C398.729 527.781 398.711 528.176 398.617 528.555C398.524 528.935 398.356 529.293 398.124 529.607C397.892 529.922 397.601 530.188 397.266 530.391C390.692 534.355 383.914 537.97 376.96 541.22C376.567 541.405 376.139 541.501 375.705 541.502ZM414.526 518.087C413.902 518.088 413.293 517.892 412.786 517.528C412.278 517.164 411.898 516.65 411.699 516.058C411.5 515.466 411.491 514.827 411.675 514.23C411.859 513.633 412.226 513.109 412.723 512.732C418.674 508.225 424.387 503.413 429.84 498.314C430.416 497.774 431.183 497.486 431.972 497.511C432.761 497.537 433.508 497.876 434.048 498.452C434.587 499.028 434.876 499.795 434.85 500.584C434.824 501.374 434.486 502.12 433.91 502.66C428.309 507.904 422.436 512.852 416.317 517.482C415.804 517.877 415.174 518.09 414.526 518.087ZM447.612 487.116C447.04 487.117 446.481 486.953 446 486.645C445.519 486.336 445.137 485.896 444.899 485.376C444.662 484.856 444.579 484.279 444.66 483.713C444.742 483.148 444.985 482.617 445.36 482.186C450.246 476.544 454.833 470.65 459.101 464.527C459.325 464.207 459.61 463.933 459.94 463.722C460.269 463.511 460.637 463.367 461.023 463.299C461.408 463.23 461.803 463.238 462.185 463.322C462.568 463.407 462.929 463.565 463.25 463.789C463.571 464.013 463.845 464.298 464.056 464.628C464.267 464.958 464.41 465.326 464.479 465.711C464.547 466.096 464.539 466.491 464.455 466.874C464.371 467.256 464.213 467.618 463.989 467.939C459.602 474.232 454.887 480.29 449.864 486.088C449.584 486.411 449.238 486.669 448.849 486.846C448.461 487.023 448.039 487.115 447.612 487.116ZM473.525 449.939C473.008 449.936 472.5 449.8 472.052 449.542C471.604 449.285 471.23 448.915 470.968 448.47C470.705 448.025 470.562 447.519 470.554 447.002C470.545 446.485 470.671 445.975 470.919 445.521C474.518 438.984 477.772 432.263 480.668 425.386C480.819 425.025 481.041 424.698 481.319 424.423C481.597 424.148 481.926 423.931 482.288 423.783C482.65 423.635 483.038 423.56 483.429 423.563C483.82 423.565 484.207 423.644 484.567 423.795C484.928 423.947 485.255 424.168 485.53 424.446C485.805 424.724 486.022 425.054 486.17 425.416C486.318 425.778 486.393 426.166 486.391 426.557C486.388 426.948 486.309 427.334 486.158 427.695C483.184 434.767 479.839 441.677 476.136 448.396C475.88 448.865 475.502 449.255 475.043 449.527C474.583 449.798 474.059 449.941 473.525 449.939ZM491.096 408.171C490.632 408.17 490.174 408.061 489.758 407.852C489.343 407.643 488.983 407.34 488.706 406.967C488.428 406.594 488.242 406.162 488.162 405.704C488.081 405.246 488.109 404.776 488.242 404.331C490.391 397.182 492.159 389.924 493.54 382.587C493.61 382.202 493.756 381.834 493.97 381.506C494.183 381.177 494.459 380.894 494.783 380.673C495.106 380.452 495.47 380.298 495.854 380.219C496.238 380.139 496.633 380.137 497.018 380.212C498.635 380.515 499.701 382.075 499.393 383.689C497.973 391.232 496.157 398.695 493.954 406.047C493.558 407.335 492.375 408.171 491.096 408.171ZM499.482 363.632L499.24 363.626C498.452 363.562 497.722 363.188 497.21 362.586C496.698 361.984 496.445 361.203 496.508 360.415C497.11 352.972 497.325 345.502 497.152 338.037C497.143 337.645 497.211 337.256 497.353 336.891C497.494 336.526 497.706 336.192 497.976 335.909C498.247 335.626 498.57 335.399 498.928 335.241C499.286 335.083 499.672 334.997 500.063 334.988H500.129C501.747 334.988 503.073 336.276 503.106 337.899C503.284 345.571 503.066 353.248 502.45 360.897C502.39 361.643 502.051 362.338 501.501 362.845C500.951 363.352 500.23 363.633 499.482 363.632ZM498.425 318.303C497.702 318.302 497.004 318.039 496.461 317.561C495.919 317.083 495.569 316.423 495.478 315.706C494.525 308.299 493.182 300.947 491.456 293.681C491.273 292.912 491.403 292.102 491.818 291.429C492.232 290.756 492.897 290.275 493.666 290.093C494.434 289.915 495.242 290.047 495.913 290.461C496.584 290.875 497.065 291.537 497.251 292.303C499.027 299.772 500.406 307.33 501.381 314.945C501.437 315.365 501.402 315.792 501.279 316.198C501.155 316.603 500.947 316.978 500.667 317.296C500.386 317.614 500.041 317.868 499.655 318.042C499.268 318.216 498.849 318.305 498.425 318.303ZM487.94 274.204C487.324 274.203 486.723 274.011 486.22 273.655C485.717 273.299 485.337 272.796 485.13 272.215C482.639 265.177 479.781 258.274 476.568 251.535C476.398 251.182 476.301 250.799 476.28 250.409C476.259 250.018 476.315 249.627 476.446 249.258C476.576 248.889 476.778 248.549 477.04 248.259C477.302 247.968 477.619 247.732 477.972 247.564C478.325 247.394 478.707 247.295 479.098 247.274C479.489 247.253 479.88 247.309 480.249 247.44C480.618 247.57 480.957 247.772 481.248 248.035C481.538 248.297 481.774 248.614 481.941 248.968C485.249 255.896 488.189 262.993 490.749 270.23C490.907 270.679 490.956 271.16 490.89 271.632C490.824 272.104 490.647 272.554 490.371 272.943C490.096 273.332 489.732 273.65 489.309 273.869C488.886 274.089 488.416 274.204 487.94 274.204ZM468.298 233.128C467.788 233.128 467.287 232.997 466.842 232.748C466.396 232.499 466.023 232.14 465.756 231.705C463.804 228.537 461.771 225.42 459.658 222.358C459.208 221.708 459.035 220.905 459.177 220.128C459.319 219.35 459.764 218.661 460.414 218.211C461.064 217.762 461.866 217.589 462.644 217.731C463.422 217.872 464.111 218.317 464.561 218.967C466.733 222.118 468.824 225.323 470.832 228.581C471.038 228.914 471.175 229.285 471.238 229.671C471.3 230.057 471.285 230.452 471.194 230.833C471.104 231.213 470.939 231.572 470.709 231.889C470.479 232.206 470.189 232.474 469.856 232.679C469.39 232.973 468.85 233.128 468.298 233.128Z" fill="#232E38"/>
<path d="M46.1528 345.982C45.7618 345.983 45.3745 345.906 45.0131 345.757C44.6517 345.607 44.3234 345.388 44.0469 345.111C43.7703 344.835 43.5511 344.506 43.4016 344.145C43.2521 343.784 43.1754 343.396 43.1758 343.005C43.1758 209.947 151.415 101.698 284.462 101.698C389.82 101.698 482.195 169.056 514.325 269.304C514.555 270.054 514.48 270.864 514.117 271.558C513.754 272.253 513.132 272.777 512.385 273.016C511.639 273.255 510.828 273.19 510.129 272.836C509.43 272.481 508.898 271.866 508.65 271.122C477.31 173.345 387.214 107.649 284.462 107.649C154.701 107.649 49.1298 213.229 49.1298 343.002C49.1298 344.65 47.7971 345.982 46.1528 345.982ZM284.462 599C255.562 599.016 226.87 594.124 199.608 584.534C199.239 584.404 198.899 584.203 198.607 583.941C198.316 583.68 198.079 583.364 197.91 583.011C197.741 582.658 197.643 582.275 197.622 581.885C197.601 581.494 197.657 581.103 197.787 580.734C197.917 580.364 198.118 580.025 198.379 579.733C198.641 579.442 198.957 579.205 199.31 579.036C199.663 578.867 200.046 578.769 200.436 578.748C200.827 578.727 201.218 578.783 201.587 578.913C228.213 588.28 256.236 593.059 284.462 593.046C361.823 593.046 433.613 558.034 481.419 496.987C481.66 496.679 481.96 496.422 482.3 496.23C482.641 496.037 483.016 495.914 483.404 495.867C483.792 495.82 484.186 495.849 484.563 495.954C484.94 496.059 485.292 496.237 485.6 496.478C485.908 496.719 486.166 497.019 486.358 497.359C486.55 497.7 486.673 498.075 486.721 498.463C486.768 498.852 486.738 499.245 486.633 499.622C486.528 499.999 486.35 500.351 486.109 500.659C437.165 563.156 363.668 599 284.462 599Z" fill="#232E38"/>
<path d="M144.613 483.138C142.99 483.138 141.436 483.414 139.977 483.911C140.402 481.74 140.636 479.508 140.636 477.226C140.636 458.139 125.17 442.691 106.092 442.691C87.0046 442.691 71.5414 458.154 71.5414 477.226C71.5414 477.487 71.5624 477.732 71.5534 477.984C68.8666 476.793 65.9251 476.293 62.9957 476.527C60.0663 476.762 57.2419 477.724 54.7788 479.327C52.3158 480.93 50.292 483.123 48.8913 485.707C47.4906 488.29 46.7572 491.182 46.7578 494.121C46.7586 498.803 48.619 503.294 51.9299 506.605C55.2408 509.915 59.731 511.776 64.4133 511.777L144.61 511.771C148.407 511.771 152.049 510.263 154.734 507.579C157.419 504.894 158.928 501.253 158.928 497.456C158.928 493.659 157.421 490.018 154.736 487.333C152.052 484.647 148.41 483.139 144.613 483.138Z" fill="white"/>
<path d="M64.4158 514.751C58.9454 514.745 53.7006 512.57 49.8325 508.701C45.9643 504.833 43.7888 499.589 43.7832 494.118C43.7832 482.743 53.0378 473.492 64.4158 473.492C65.8713 473.492 67.3029 473.644 68.7046 473.938C70.3758 454.785 86.5009 439.708 106.091 439.708C126.784 439.708 143.613 456.534 143.613 477.22C143.613 478.206 143.574 479.197 143.493 480.188C153.385 479.542 161.903 487.538 161.903 497.449C161.897 502.033 160.074 506.427 156.833 509.668C153.591 512.91 149.197 514.733 144.613 514.739L64.4158 514.751ZM64.4158 479.449C60.5258 479.453 56.7963 480.999 54.0451 483.749C51.2939 486.499 49.7458 490.228 49.7403 494.118C49.7403 502.211 56.3263 508.794 64.4158 508.794L144.613 508.788C150.86 508.788 155.949 503.702 155.949 497.452C155.946 495.649 155.513 493.873 154.687 492.27C153.861 490.668 152.664 489.285 151.198 488.237C149.731 487.189 148.035 486.505 146.252 486.242C144.468 485.98 142.648 486.146 140.941 486.727C140.447 486.897 139.917 486.934 139.404 486.834C138.891 486.734 138.413 486.501 138.019 486.158C137.625 485.815 137.328 485.374 137.159 484.88C136.989 484.385 136.953 483.855 137.054 483.342C137.449 481.297 137.656 479.242 137.656 477.226C137.656 459.822 123.495 445.668 106.088 445.668C88.6783 445.668 74.5149 459.825 74.5149 477.226C74.5299 477.658 74.5359 477.858 74.5299 478.068C74.5158 478.557 74.3817 479.035 74.1393 479.46C73.8969 479.884 73.5536 480.243 73.1399 480.504C72.7261 480.764 72.2545 480.919 71.7667 480.955C71.2789 480.99 70.7899 480.905 70.3429 480.707C68.4774 479.876 66.4579 479.447 64.4158 479.449Z" fill="#232E38"/>
<path d="M435.249 340.127H435.276C435.27 339.723 435.249 339.325 435.249 338.923C435.249 315.688 454.079 296.858 477.314 296.858C496.305 296.858 512.355 309.455 517.573 326.74C522.006 324.654 526.962 323.945 531.802 324.702C536.642 325.459 541.144 327.648 544.729 330.987C548.313 334.326 550.816 338.662 551.914 343.436C553.012 348.21 552.655 353.204 550.889 357.774C551.165 357.75 551.425 357.729 551.698 357.729C555.814 357.809 559.735 359.501 562.617 362.44C565.5 365.38 567.115 369.333 567.115 373.45C567.115 377.567 565.5 381.519 562.617 384.459C559.735 387.398 555.814 389.09 551.698 389.17H435.249C432.006 389.206 428.788 388.598 425.782 387.382C422.775 386.166 420.04 384.365 417.734 382.085C415.428 379.804 413.597 377.089 412.348 374.096C411.098 371.103 410.455 367.892 410.455 364.649C410.455 361.406 411.098 358.195 412.348 355.202C413.597 352.209 415.428 349.493 417.734 347.213C420.04 344.932 422.775 343.132 425.782 341.915C428.788 340.699 432.006 340.091 435.249 340.127Z" fill="white"/>
<path d="M551.697 392.15H435.248C420.084 392.15 407.748 379.811 407.748 364.641C407.748 350.478 418.515 338.782 432.295 337.309C433.149 313.214 453.011 293.881 477.31 293.881C495.921 293.881 512.774 305.625 519.375 322.816C522.161 321.891 525.079 321.423 528.015 321.429C543.179 321.429 555.515 333.763 555.515 348.929C555.515 350.99 555.291 353.024 554.838 355.015C559.186 355.764 563.13 358.023 565.975 361.395C568.82 364.767 570.383 369.035 570.389 373.447C570.385 378.404 568.414 383.157 564.91 386.663C561.406 390.17 556.654 392.143 551.697 392.15ZM477.313 299.835C455.761 299.835 438.225 317.371 438.225 338.923L438.252 340.076C438.259 340.472 438.187 340.864 438.041 341.232C437.895 341.6 437.678 341.935 437.402 342.218C437.124 342.499 436.793 342.723 436.427 342.876C436.062 343.028 435.671 343.107 435.275 343.107C423.37 343.107 413.705 352.772 413.705 364.641C413.705 376.522 423.373 386.19 435.248 386.19H551.697C555.075 386.186 558.314 384.841 560.703 382.451C563.091 380.062 564.434 376.822 564.437 373.444C564.434 370.066 563.09 366.828 560.701 364.44C558.313 362.052 555.074 360.709 551.697 360.706C551.511 360.706 551.334 360.721 551.149 360.736C550.644 360.783 550.136 360.698 549.674 360.489C549.213 360.28 548.814 359.954 548.516 359.544C548.213 359.142 548.017 358.67 547.945 358.172C547.874 357.674 547.93 357.166 548.109 356.695C549.068 354.218 549.56 351.583 549.558 348.926C549.558 337.048 539.89 327.383 528.015 327.383C524.811 327.383 521.72 328.072 518.842 329.435C518.454 329.619 518.032 329.718 517.603 329.723C517.174 329.729 516.75 329.642 516.358 329.467C515.966 329.293 515.616 329.036 515.333 328.714C515.05 328.392 514.84 328.013 514.717 327.602C509.791 311.255 494.402 299.835 477.313 299.835Z" fill="#232E38"/>
<path d="M381.995 101.758H355.783L344.785 138.42H351.566C353.989 138.42 356.442 137.833 358.703 136.548C360.885 135.324 362.713 133.556 364.007 131.415L381.995 101.758ZM381.995 101.758H355.783L344.785 65.0963H351.566C354.068 65.0908 356.529 65.7334 358.71 66.9615C360.89 68.1897 362.715 69.9616 364.007 72.1047L381.995 101.758Z" fill="white"/>
<path d="M508.577 91.1768H400.25C386.009 91.1768 372.819 95.0972 361.986 101.758C372.819 108.425 386.009 112.342 400.25 112.342H508.577C517.259 112.342 524.738 108.003 528.179 101.758C524.735 95.5075 517.259 91.1768 508.577 91.1768Z" fill="white"/>
<path d="M446.754 159.652C446.381 159.282 445.877 159.074 445.352 159.073H430.722C421.464 159.073 413.06 160.242 406.843 162.137C406.711 162.182 406.094 162.374 406.094 162.374C405.923 162.43 405.775 162.539 405.67 162.685C405.565 162.831 405.509 163.006 405.51 163.186V168.232C405.508 168.409 405.565 168.582 405.672 168.723C405.774 168.872 405.923 168.983 406.094 169.041L406.843 169.271C413.057 171.17 421.464 172.341 430.722 172.341H445.352C445.876 172.342 446.379 172.135 446.75 171.766C447.121 171.396 447.33 170.894 447.332 170.371V161.053C447.333 160.793 447.283 160.535 447.184 160.294C447.085 160.054 446.938 159.835 446.754 159.652ZM457.943 132.667C457.761 132.482 457.543 132.336 457.304 132.237C457.064 132.138 456.807 132.087 456.548 132.089H441.914C432.659 132.089 424.255 133.254 418.026 135.152C417.9 135.188 417.28 135.389 417.28 135.389C417.107 135.44 416.958 135.551 416.858 135.7C416.748 135.841 416.691 136.016 416.696 136.195V141.244C416.696 141.418 416.741 141.586 416.858 141.738C416.96 141.886 417.109 141.996 417.28 142.05C417.28 142.05 417.9 142.242 418.026 142.286C424.252 144.185 432.659 145.353 441.914 145.353H456.548C457.071 145.351 457.573 145.141 457.942 144.769C458.311 144.397 458.517 143.894 458.515 143.371V134.068C458.519 133.808 458.47 133.55 458.371 133.309C458.273 133.069 458.128 132.85 457.943 132.667Z" fill="#F77B55"/>
<path d="M403.328 201.06L411.816 198.194C414.007 197.456 416.051 196.338 417.854 194.891C419.659 193.449 421.197 191.702 422.397 189.727L469.347 112.339H423.511V133.781L403.328 201.06Z" fill="white"/>
<path d="M446.754 31.762C446.571 31.5768 446.353 31.43 446.112 31.3302C445.871 31.2304 445.613 31.1797 445.353 31.1809H430.722C421.464 31.1809 413.06 32.349 406.843 34.2448L406.094 34.4874C405.925 34.5389 405.776 34.644 405.672 34.7869C405.564 34.9336 405.508 35.1113 405.51 35.2931V40.3366C405.505 40.5161 405.562 40.6917 405.672 40.8338C405.777 40.9836 405.923 41.0944 406.094 41.1423C406.094 41.1423 406.711 41.337 406.843 41.3849C413.057 43.2837 421.464 44.4428 430.722 44.4428H445.353C445.876 44.4436 446.379 44.2365 446.75 43.867C447.121 43.4975 447.331 42.9958 447.332 42.4721V33.1606C447.333 32.9009 447.282 32.6438 447.182 32.4038C447.083 32.1638 446.938 31.9457 446.754 31.762ZM457.944 58.7469C457.574 58.3754 457.072 58.1654 456.548 58.1629H441.914C432.66 58.1629 424.256 59.3369 418.026 61.2358L417.28 61.4724C417.11 61.5248 416.961 61.6322 416.858 61.7779C416.749 61.9216 416.692 62.0978 416.696 62.278V67.3276C416.696 67.4953 416.741 67.675 416.858 67.8248C416.964 67.9685 417.111 68.0762 417.28 68.1332L418.026 68.3698C424.253 70.2777 432.66 71.4337 441.914 71.4337H456.548C456.807 71.4345 457.064 71.384 457.303 71.285C457.543 71.186 457.76 71.0406 457.943 70.8571C458.126 70.6735 458.271 70.4556 458.369 70.2158C458.467 69.976 458.517 69.7192 458.516 69.46V60.1546C458.518 59.8937 458.469 59.635 458.371 59.3933C458.273 59.1516 458.127 58.9319 457.944 58.7469Z" fill="#F77B55"/>
<path d="M403.328 2.45587L411.816 5.3161C416.23 6.80697 419.977 9.80731 422.397 13.789L469.347 91.1768H423.511V69.7326L403.328 2.45587Z" fill="white"/>
<path d="M351.566 140.876H344.785C344.403 140.873 344.027 140.782 343.686 140.609C343.345 140.436 343.049 140.187 342.821 139.88C342.593 139.574 342.44 139.218 342.373 138.842C342.305 138.466 342.326 138.08 342.434 137.713L353.431 101.051C353.583 100.546 353.894 100.103 354.318 99.7877C354.741 99.4727 355.255 99.3025 355.783 99.3023H381.995C382.431 99.301 382.859 99.4162 383.236 99.6358C383.612 99.8554 383.924 100.171 384.137 100.551C384.351 100.931 384.459 101.362 384.451 101.797C384.443 102.233 384.319 102.659 384.091 103.031L366.103 132.685C364.585 135.181 362.451 137.246 359.905 138.68C357.359 140.115 354.488 140.871 351.566 140.876ZM348.082 135.964H351.566C353.683 135.964 355.675 135.443 357.493 134.413C359.313 133.395 360.837 131.923 361.916 130.139L377.64 104.211H357.604L348.082 135.964Z" fill="#232E38"/>
<path d="M382.061 104.211H355.783C355.255 104.211 354.741 104.041 354.318 103.726C353.894 103.41 353.584 102.967 353.432 102.462L342.434 65.8001C342.213 65.0573 342.356 64.2517 342.818 63.6287C343.279 63.0058 344.007 62.6404 344.785 62.6404H351.566C354.488 62.6409 357.36 63.394 359.905 64.8272C362.451 66.2603 364.585 68.3252 366.101 70.8227L383.831 100.054C384.165 100.401 384.389 100.839 384.475 101.312C384.562 101.786 384.508 102.274 384.319 102.717C384.131 103.16 383.816 103.538 383.415 103.803C383.013 104.069 382.542 104.211 382.061 104.211ZM357.604 99.3052H377.634L361.905 73.3775C360.83 71.5934 359.31 70.1196 357.493 69.1006C355.682 68.0847 353.64 67.5515 351.563 67.5522H348.08L357.604 99.3052Z" fill="#232E38"/>
<path d="M508.575 114.795H400.24C392.228 114.795 384.414 113.606 377.02 111.252C376.504 111.108 376.05 110.8 375.725 110.374C375.401 109.948 375.224 109.428 375.223 108.892C375.223 107.535 376.298 106.439 377.658 106.439H377.697C377.948 106.439 378.2 106.481 378.442 106.556C385.493 108.785 392.846 109.908 400.24 109.887H508.575C515.529 109.887 521.933 106.733 525.302 101.749C521.933 96.7864 515.526 93.6447 508.575 93.6447H400.24C392.722 93.6447 385.373 94.7498 378.388 96.9332C377.779 97.089 377.133 97.0051 376.584 96.6989C376.035 96.3926 375.624 95.8873 375.436 95.2871C375.248 94.687 375.298 94.0376 375.575 93.4729C375.852 92.9082 376.334 92.4712 376.924 92.252C384.473 89.9076 392.335 88.7231 400.24 88.7389H508.575C517.824 88.7389 526.362 93.3781 530.328 100.563C530.528 100.925 530.632 101.332 530.632 101.746C530.632 102.16 530.528 102.567 530.328 102.929C526.365 110.138 517.83 114.795 508.575 114.795ZM412.46 173.126C412.297 173.126 412.134 173.11 411.974 173.078C410 172.686 408.046 172.199 406.119 171.619C405.986 171.578 405.857 171.526 405.733 171.464L405.421 171.392C404.735 171.183 404.133 170.761 403.702 170.188C403.235 169.424 403.07 168.825 403.07 168.226V163.174C403.07 162.596 403.229 162.012 403.519 161.484C403.937 160.794 404.588 160.276 405.355 160.026L405.921 159.855C408.641 159.005 411.609 158.343 415.185 157.756C415.818 157.669 416.46 157.834 416.974 158.214C417.488 158.594 417.834 159.16 417.937 159.791C418.04 160.422 417.893 161.068 417.526 161.592C417.16 162.116 416.604 162.476 415.976 162.596C412.822 163.111 410.201 163.686 407.973 164.348V167.055C409.515 167.507 411.181 167.915 412.936 168.268C413.526 168.394 414.05 168.732 414.407 169.22C414.764 169.707 414.928 170.309 414.869 170.91C414.81 171.511 414.532 172.069 414.087 172.478C413.643 172.887 413.063 173.118 412.46 173.126ZM445.363 174.791H432.942C432.292 174.791 431.668 174.533 431.208 174.073C430.748 173.613 430.489 172.989 430.489 172.338C430.489 171.688 430.748 171.064 431.208 170.604C431.668 170.144 432.292 169.885 432.942 169.885H444.889V161.52H440.984C440.348 161.498 439.745 161.23 439.303 160.772C438.861 160.314 438.614 159.702 438.614 159.066C438.614 158.429 438.861 157.818 439.303 157.36C439.745 156.902 440.348 156.634 440.984 156.612H445.363C446.537 156.617 447.662 157.086 448.493 157.917C449.324 158.747 449.793 159.872 449.798 161.047V170.35C449.797 171.526 449.329 172.654 448.498 173.486C447.666 174.319 446.539 174.788 445.363 174.791ZM420.744 145.473C420.565 145.472 420.388 145.452 420.214 145.413C419.24 145.192 418.275 144.934 417.32 144.641L416.503 144.365C415.778 144.063 415.332 143.736 414.975 143.311C414.498 142.729 414.236 142 414.233 141.247V136.198C414.233 135.446 414.496 134.712 414.972 134.137C415.374 133.643 415.889 133.272 416.443 133.074C416.818 132.949 417.198 132.837 417.581 132.738C418.866 132.31 420.684 131.852 423.017 131.373C423.333 131.307 423.658 131.305 423.975 131.365C424.291 131.426 424.593 131.548 424.862 131.726C425.131 131.904 425.363 132.133 425.543 132.4C425.723 132.667 425.849 132.967 425.913 133.283C425.979 133.599 425.981 133.925 425.921 134.241C425.86 134.558 425.737 134.86 425.56 135.129C425.382 135.398 425.153 135.629 424.886 135.81C424.619 135.99 424.318 136.116 424.002 136.18C422.029 136.584 420.471 136.967 419.141 137.375V140.076C419.734 140.247 420.492 140.457 421.265 140.627C421.852 140.759 422.371 141.103 422.721 141.593C423.071 142.082 423.23 142.684 423.165 143.283C423.101 143.881 422.818 144.435 422.372 144.839C421.925 145.243 421.346 145.469 420.744 145.473ZM456.564 147.812H449.298C448.968 147.824 448.64 147.769 448.332 147.651C448.024 147.532 447.743 147.354 447.506 147.124C447.269 146.895 447.08 146.621 446.952 146.317C446.823 146.014 446.756 145.688 446.756 145.358C446.756 145.028 446.823 144.702 446.952 144.398C447.08 144.095 447.269 143.82 447.506 143.591C447.743 143.362 448.024 143.183 448.332 143.065C448.64 142.947 448.968 142.892 449.298 142.903H456.064V134.356C455.69 134.141 455.379 133.832 455.162 133.459C454.945 133.087 454.829 132.663 454.827 132.232C454.827 130.477 456.884 129.24 458.448 130.064C458.81 130.256 459.334 130.528 459.801 131.079C460.487 131.687 460.973 132.822 460.973 134.068V143.371C460.973 144.59 460.481 145.752 459.619 146.56C458.803 147.36 457.706 147.809 456.564 147.812Z" fill="#232E38"/>
<path d="M403.33 203.516C402.693 203.517 402.082 203.268 401.626 202.824C401.301 202.512 401.069 202.117 400.955 201.681C400.841 201.246 400.849 200.788 400.979 200.357L421.057 133.424V112.342C421.057 110.986 422.153 109.89 423.51 109.89H469.345C469.781 109.888 470.21 110.003 470.586 110.223C470.963 110.443 471.274 110.759 471.488 111.139C471.701 111.519 471.81 111.949 471.802 112.385C471.794 112.821 471.67 113.247 471.442 113.618L424.495 191.006C421.772 195.477 417.561 198.845 412.602 200.521L404.111 203.387C403.859 203.472 403.595 203.515 403.33 203.516ZM425.966 114.795V133.781C425.966 134.02 425.93 134.257 425.864 134.485L407.043 197.215L411.036 195.87C414.9 194.565 418.181 191.941 420.302 188.457L464.991 114.795H425.966ZM415.585 45.7427C415.461 45.7425 415.337 45.7335 415.214 45.7157C412.137 45.2658 409.096 44.5962 406.115 43.7121C405.847 43.6296 405.581 43.5437 405.315 43.4545C404.69 43.2573 404.138 42.8751 403.734 42.3583C403.307 41.7726 403.076 41.0674 403.072 40.3427V35.2901C403.072 34.772 403.195 34.2628 403.443 33.7297C403.518 33.571 403.611 33.4213 403.719 33.2835C404.129 32.7504 404.695 32.355 405.36 32.1424H405.354C405.354 32.1424 406.13 31.8938 406.277 31.8578C407.828 31.3786 409.796 30.8905 411.967 30.4442C412.605 30.3135 413.268 30.4414 413.811 30.7998C414.354 31.1581 414.733 31.7176 414.863 32.355C414.994 32.9925 414.866 33.6557 414.508 34.1988C414.149 34.742 413.59 35.1205 412.953 35.2512C411.111 35.6256 409.436 36.0389 407.981 36.4671V39.1507C410.341 39.8425 413.009 40.4146 415.957 40.8638C416.6 40.9628 417.178 41.3128 417.564 41.8372C417.949 42.3616 418.111 43.0175 418.014 43.6611C417.924 44.2405 417.629 44.7685 417.184 45.1501C416.739 45.5317 416.172 45.7419 415.585 45.7427ZM445.364 46.8838H440.986C440.35 46.8615 439.747 46.5932 439.305 46.1354C438.863 45.6775 438.616 45.0659 438.616 44.4294C438.616 43.7929 438.863 43.1812 439.305 42.7234C439.747 42.2655 440.35 41.9972 440.986 41.975H444.891V33.6489H432.944C432.294 33.6489 431.67 33.3904 431.21 32.9304C430.75 32.4704 430.491 31.8465 430.491 31.1959C430.491 30.5454 430.75 29.9215 431.21 29.4615C431.67 29.0015 432.294 28.743 432.944 28.743H445.364C446.592 28.743 447.758 29.2402 448.557 30.0968C449.342 30.8845 449.797 31.9926 449.797 33.1667V42.4751C449.797 43.5952 449.36 44.6824 448.563 45.545C448.145 45.9681 447.647 46.3043 447.098 46.534C446.549 46.7638 445.96 46.8827 445.364 46.8838ZM423.519 72.2035C423.352 72.203 423.185 72.185 423.022 72.1496C421.086 71.7734 419.171 71.2935 417.286 70.712L416.505 70.4484C416.073 70.3705 415.45 69.9722 414.959 69.3702C414.495 68.7915 414.239 68.0728 414.234 67.3306V62.2781C414.234 61.5143 414.507 60.7776 414.995 60.2025C415.307 59.8132 415.759 59.4538 416.262 59.2262C416.505 59.1303 417.421 58.8488 417.64 58.8158C418.242 58.6032 419.215 58.3247 420.215 58.106C420.53 58.0368 420.855 58.0302 421.173 58.0867C421.49 58.1431 421.793 58.2615 422.064 58.4351C422.336 58.6086 422.57 58.8339 422.755 59.0981C422.939 59.3623 423.069 59.6603 423.139 59.9749C423.208 60.2895 423.214 60.6147 423.158 60.9319C423.101 61.2491 422.983 61.5521 422.81 61.8235C422.636 62.095 422.411 62.3296 422.147 62.5139C421.882 62.6983 421.584 62.8288 421.27 62.898C420.545 63.0597 419.835 63.2544 419.146 63.4611V66.1566C420.392 66.5369 421.971 66.9263 424.007 67.3426C425.337 67.6122 426.19 68.909 425.918 70.2388C425.806 70.7927 425.506 71.2909 425.069 71.649C424.632 72.007 424.084 72.2029 423.519 72.2035ZM457.3 73.7459C456.648 73.7459 456.022 73.488 455.56 73.0284C455.097 72.5688 454.836 71.9449 454.832 71.293C454.832 70.3765 455.326 69.5739 456.069 69.1546V60.6188H449.303C448.971 60.6353 448.638 60.584 448.327 60.4681C448.015 60.3523 447.729 60.1742 447.488 59.9449C447.247 59.7155 447.056 59.4395 446.924 59.1337C446.793 58.8279 446.726 58.4986 446.726 58.1659C446.726 57.8332 446.793 57.5039 446.924 57.1981C447.056 56.8923 447.247 56.6164 447.488 56.387C447.729 56.1576 448.015 55.9796 448.327 55.8637C448.638 55.7479 448.971 55.6966 449.303 55.713H456.569C457.695 55.713 458.782 56.1593 459.636 56.9799C460.501 57.8065 460.974 58.9356 460.974 60.1606V69.4601C460.974 70.682 460.48 71.8501 459.615 72.6527C459.194 73.0694 458.691 73.3938 458.138 73.6051C457.868 73.6969 457.585 73.7445 457.3 73.7459Z" fill="#232E38"/>
<path d="M469.41 93.6327H423.509C423.186 93.6327 422.867 93.5691 422.569 93.4457C422.271 93.3222 422.001 93.1413 421.773 92.9132C421.545 92.6851 421.365 92.4143 421.242 92.1164C421.118 91.8185 421.055 91.4992 421.056 91.1768V70.092L400.977 3.15973C400.848 2.72867 400.839 2.27022 400.954 1.83481C401.068 1.3994 401.3 1.00391 401.624 0.691853C401.946 0.376949 402.35 0.157593 402.789 0.0581869C403.228 -0.0412191 403.687 -0.0167775 404.113 0.128793L412.601 2.99501C417.566 4.66563 421.78 8.03947 424.497 12.5191L471.183 89.4786C471.514 89.8267 471.736 90.2641 471.822 90.7369C471.907 91.2097 471.852 91.6972 471.663 92.1391C471.475 92.581 471.161 92.9579 470.76 93.2234C470.36 93.4888 469.89 93.6311 469.41 93.6327ZM425.965 88.7239H464.986L420.298 15.0619C418.176 11.5756 414.894 8.94799 411.028 7.64025L407.039 6.2955L425.86 69.0288C425.926 69.2575 425.961 69.4944 425.961 69.7326V88.7239H425.965ZM509.19 110.048C508.539 110.048 507.914 109.79 507.454 109.329C506.994 108.869 506.735 108.245 506.735 107.594C506.735 106.943 506.994 106.319 507.454 105.858C507.914 105.398 508.539 105.139 509.19 105.139C510.086 105.138 510.944 104.781 511.578 104.147C512.211 103.513 512.567 102.654 512.568 101.758C512.566 100.863 512.21 100.004 511.577 99.371C510.943 98.7378 510.085 98.3813 509.19 98.3798C508.867 98.3798 508.548 98.3163 508.251 98.193C507.953 98.0698 507.683 97.8891 507.455 97.6613C507.227 97.4335 507.047 97.1631 506.923 96.8655C506.8 96.5679 506.737 96.249 506.737 95.9269C506.737 95.6047 506.8 95.2858 506.923 94.9882C507.047 94.6906 507.227 94.4202 507.455 94.1924C507.683 93.9646 507.953 93.7839 508.251 93.6607C508.548 93.5374 508.867 93.474 509.19 93.474C513.757 93.474 517.477 97.1908 517.477 101.761C517.477 106.331 513.757 110.048 509.19 110.048ZM389.303 104.211H338.154C337.504 104.211 336.88 103.953 336.42 103.493C335.96 103.033 335.701 102.409 335.701 101.758C335.701 101.108 335.96 100.484 336.42 100.024C336.88 99.5637 337.504 99.3052 338.154 99.3052H389.303C389.953 99.3052 390.577 99.5637 391.037 100.024C391.497 100.484 391.756 101.108 391.756 101.758C391.756 102.409 391.497 103.033 391.037 103.493C390.577 103.953 389.953 104.211 389.303 104.211Z" fill="#232E38"/>
<path d="M392.521 40.2618H353.116C352.48 40.2396 351.877 39.9713 351.435 39.5134C350.993 39.0556 350.746 38.4439 350.746 37.8074C350.746 37.1709 350.993 36.5593 351.435 36.1014C351.877 35.6436 352.48 35.3753 353.116 35.353H392.521C393.172 35.353 393.796 35.6116 394.257 36.0719C394.717 36.5322 394.976 37.1565 394.976 37.8074C394.976 38.4584 394.717 39.0827 394.257 39.543C393.796 40.0032 393.172 40.2618 392.521 40.2618ZM392.521 168.16H353.116C352.486 168.129 351.893 167.857 351.458 167.401C351.024 166.944 350.781 166.338 350.781 165.707C350.781 165.077 351.024 164.471 351.458 164.014C351.893 163.558 352.486 163.286 353.116 163.255H392.521C393.172 163.255 393.796 163.513 394.256 163.973C394.716 164.433 394.974 165.057 394.974 165.707C394.974 166.358 394.716 166.982 394.256 167.442C393.796 167.902 393.172 168.16 392.521 168.16ZM329.74 141.25H234.96C234.638 141.25 234.319 141.187 234.022 141.064C233.724 140.94 233.454 140.76 233.226 140.532C232.998 140.304 232.817 140.034 232.694 139.736C232.571 139.438 232.507 139.119 232.507 138.797C232.507 138.475 232.571 138.156 232.694 137.859C232.817 137.561 232.998 137.291 233.226 137.063C233.454 136.835 233.724 136.654 234.022 136.531C234.319 136.408 234.638 136.344 234.96 136.344H329.74C330.062 136.344 330.381 136.408 330.679 136.531C330.976 136.654 331.247 136.835 331.474 137.063C331.702 137.291 331.883 137.561 332.006 137.859C332.129 138.156 332.193 138.475 332.193 138.797C332.193 139.119 332.129 139.438 332.006 139.736C331.883 140.034 331.702 140.304 331.474 140.532C331.247 140.76 330.976 140.94 330.679 141.064C330.381 141.187 330.062 141.25 329.74 141.25ZM329.74 67.1899H234.96C234.309 67.1899 233.685 66.9313 233.225 66.471C232.764 66.0107 232.506 65.3864 232.506 64.7355C232.506 64.0845 232.764 63.4602 233.225 63C233.685 62.5397 234.309 62.2811 234.96 62.2811H329.74C330.391 62.2811 331.015 62.5397 331.476 63C331.936 63.4602 332.194 64.0845 332.194 64.7355C332.194 65.3864 331.936 66.0107 331.476 66.471C331.015 66.9313 330.391 67.1899 329.74 67.1899Z" fill="#232E38"/>
<path d="M453.26 343.008C453.26 436.204 377.702 511.774 284.474 511.774C191.278 511.774 115.738 436.207 115.738 343.008C115.738 249.798 191.278 174.252 284.474 174.252C377.702 174.252 453.26 249.801 453.26 343.008Z" fill="white"/>
<path d="M335.085 181.982L349.297 201.938L360.782 204.064L353.78 193.893L368.779 204.064L353.741 218.003L363.888 226.212L351.929 229.669L365.97 246.387L380.729 227.356L395.764 242.287L396.668 238.207L383.14 223.858L405.465 241.855L397.612 225.509L397.303 220.956L408.666 231.472L405.92 236.77L415.854 241.807L423.261 254.863L396.528 251.275L383.946 242.963L355.311 273.42L363.99 316.73L406.953 326.203L422.192 360.76L408.286 436.342L426.612 427.764L440.165 408.269C448.837 387.606 453.29 365.418 453.262 343.008C453.262 267.43 403.581 203.471 335.085 181.982ZM302.994 348.78L206.073 314.574L193.251 324.952L177.153 316.332L169.917 290.656L151.935 291.12L165.61 263.958L180.07 263.261L189.9 274.926L193.026 261.565L253.906 220.669L252.357 200.282L221.278 211.953L224.426 195.265L257.614 190.069L244.139 179.143C209.059 187.748 178.3 207.317 155.682 234.029L148.994 246.899L140.629 291.674L185.791 337.048L175.308 358.639L210.706 398.281L216.271 455.015L244.987 484.082L243.336 450.286L293.275 402.432L302.994 348.78ZM261.181 175.89L255.02 178.718L271.717 183.974L282.493 198.886L292.46 189.979L302.997 184.983L291.948 174.441C289.46 174.328 286.97 174.266 284.479 174.255C276.684 174.266 268.9 174.813 261.181 175.89Z" fill="#92DEEB"/>
<path d="M284.474 514.751C189.79 514.751 112.762 437.707 112.762 343.008C112.762 248.315 189.79 171.275 284.474 171.275C379.188 171.275 456.237 248.315 456.237 343.008C456.237 437.707 379.185 514.751 284.474 514.751ZM284.474 177.232C193.076 177.232 118.716 251.604 118.716 343.011C118.716 434.425 193.076 508.797 284.474 508.797C375.899 508.797 450.28 434.425 450.28 343.011C450.28 251.601 375.899 177.232 284.474 177.232Z" fill="#232E38"/>
<path d="M408.281 439.322C407.845 439.322 407.413 439.226 407.018 439.041C406.623 438.856 406.273 438.586 405.993 438.25C405.714 437.914 405.512 437.521 405.402 437.099C405.292 436.676 405.276 436.235 405.355 435.805L419.09 361.122L404.834 328.788L363.344 319.638C362.78 319.514 362.264 319.228 361.859 318.815C361.454 318.403 361.178 317.881 361.065 317.314L352.386 274.004C352.291 273.538 352.31 273.057 352.44 272.601C352.571 272.144 352.809 271.725 353.134 271.38L381.77 240.924C382.25 240.411 382.897 240.086 383.595 240.005C384.293 239.924 384.997 240.092 385.582 240.481L397.595 248.414L417.701 251.113L413.699 244.063L408.473 241.409C408.538 241.833 408.51 242.267 408.392 242.679C408.273 243.092 408.067 243.474 407.787 243.8C407.507 244.125 407.16 244.386 406.77 244.565C406.38 244.744 405.955 244.836 405.526 244.835H405.46C404.78 244.836 404.121 244.605 403.591 244.179L399.177 240.621L398.667 242.93C398.552 243.45 398.299 243.93 397.935 244.318C397.571 244.707 397.11 244.992 396.599 245.142C396.088 245.292 395.546 245.302 395.03 245.172C394.513 245.042 394.041 244.776 393.663 244.401L381.018 231.843L368.322 248.211C368.05 248.562 367.702 248.848 367.304 249.048C366.907 249.247 366.47 249.355 366.025 249.364C365.581 249.369 365.142 249.276 364.738 249.093C364.334 248.91 363.975 248.64 363.686 248.303L349.645 231.585C349.327 231.205 349.109 230.751 349.011 230.265C348.913 229.779 348.937 229.276 349.082 228.802C349.227 228.328 349.487 227.897 349.84 227.549C350.193 227.201 350.628 226.946 351.104 226.808L357.576 224.936L351.874 220.321C351.54 220.053 351.269 219.717 351.077 219.335C350.886 218.952 350.779 218.533 350.765 218.106C350.75 217.679 350.827 217.254 350.992 216.859C351.156 216.464 351.404 216.11 351.718 215.82L361.209 207.023C361.086 207.035 361.026 207.056 360.829 207.044C360.633 207.048 360.437 207.032 360.245 206.996L348.759 204.867C347.999 204.726 347.324 204.295 346.875 203.666L332.664 183.71C332.3 183.202 332.106 182.592 332.109 181.967C332.112 181.342 332.311 180.733 332.679 180.228C333.047 179.723 333.565 179.346 334.158 179.151C334.752 178.957 335.392 178.954 335.988 179.143C407.919 201.704 456.246 267.561 456.246 343.011C456.246 366.037 451.763 388.377 442.919 409.426C442.838 409.618 442.737 409.802 442.619 409.974L429.067 429.471C428.765 429.901 428.356 430.245 427.881 430.468L409.554 439.043C409.155 439.225 408.721 439.32 408.281 439.322ZM366.525 314.238L407.59 323.295C408.047 323.395 408.473 323.602 408.835 323.899C409.197 324.196 409.483 324.574 409.671 325.002L424.91 359.559C425.153 360.103 425.225 360.709 425.116 361.296L412.259 431.19L424.619 425.404L437.537 406.826C445.988 386.598 450.277 365.126 450.277 343.005C450.277 311.435 441.511 281.608 425.925 256.165C425.652 256.728 425.208 257.19 424.657 257.486C424.105 257.781 423.475 257.894 422.855 257.81L396.125 254.222C395.679 254.161 395.253 254.001 394.879 253.751L384.39 246.824L358.525 274.333L366.525 314.238ZM357.151 231.259L365.872 241.643L378.367 225.53C378.821 224.943 379.476 224.547 380.206 224.418C380.089 223.819 380.159 223.198 380.407 222.64C380.655 222.081 381.068 221.613 381.592 221.297C382.115 220.982 382.722 220.836 383.332 220.877C383.941 220.919 384.523 221.147 384.998 221.531L397.059 231.256L394.912 226.793C394.749 226.451 394.652 226.081 394.627 225.703L394.319 221.151C394.268 220.427 394.484 219.71 394.927 219.135C385.948 211.155 376.124 204.179 365.63 198.332L370.443 201.596C371.194 202.106 371.67 202.932 371.742 203.837C371.808 204.744 371.461 205.631 370.799 206.248L358.28 217.847L365.749 223.891C366.174 224.233 366.496 224.685 366.681 225.197C366.866 225.709 366.907 226.263 366.8 226.797C366.692 227.331 366.44 227.825 366.071 228.226C365.702 228.627 365.231 228.919 364.707 229.07L357.151 231.259ZM409.944 235.47L411.648 236.332C411.205 235.807 410.758 235.284 410.309 234.763L409.944 235.47ZM403.373 230.636L404.514 233.002L404.969 232.113L403.373 230.636ZM351.023 199.227L354.243 199.826L351.322 195.585C350.887 194.954 350.712 194.18 350.833 193.423C350.954 192.666 351.362 191.985 351.972 191.521C348.984 190.199 345.958 188.965 342.898 187.819L351.023 199.227ZM244.988 487.062C244.594 487.062 244.203 486.984 243.839 486.833C243.475 486.681 243.145 486.459 242.868 486.178L214.151 457.112C213.669 456.627 213.37 455.99 213.307 455.309L207.838 399.539L173.084 360.625C172.69 360.184 172.437 359.636 172.355 359.05C172.273 358.465 172.368 357.868 172.626 357.336L182.18 337.65L138.513 293.777C138.172 293.434 137.919 293.014 137.777 292.552C137.635 292.09 137.607 291.601 137.695 291.126L146.06 246.348C146.114 246.06 146.211 245.783 146.348 245.524L153.035 232.655C153.136 232.457 153.261 232.271 153.407 232.104C177.019 204.214 208.149 184.899 243.431 176.247C243.877 176.137 244.342 176.132 244.791 176.232C245.239 176.332 245.658 176.535 246.015 176.825L259.487 187.751C259.936 188.112 260.271 188.597 260.449 189.145C260.628 189.694 260.644 190.283 260.494 190.84C260.344 191.397 260.035 191.898 259.606 192.283C259.176 192.668 258.643 192.919 258.073 193.007L226.961 197.88L225.185 207.299L251.307 197.49C251.74 197.328 252.205 197.269 252.665 197.318C253.125 197.366 253.567 197.521 253.957 197.769C254.347 198.018 254.673 198.354 254.911 198.75C255.149 199.147 255.291 199.593 255.327 200.054L256.875 220.441C256.916 220.967 256.816 221.495 256.585 221.969C256.355 222.444 256.002 222.849 255.563 223.142L195.657 263.383L192.794 275.603C192.67 276.141 192.397 276.634 192.008 277.026C191.619 277.419 191.127 277.694 190.59 277.822C190.052 277.958 189.488 277.938 188.961 277.765C188.435 277.592 187.968 277.273 187.616 276.846L178.739 266.306L167.486 266.852L156.83 288.014L169.834 287.679H169.912C171.242 287.679 172.416 288.562 172.782 289.85L179.673 314.304L192.911 321.393L204.196 312.259C204.593 311.939 205.064 311.725 205.566 311.639C206.069 311.552 206.585 311.596 207.065 311.765L303.983 345.973C304.651 346.209 305.212 346.674 305.567 347.286C305.922 347.898 306.046 348.617 305.918 349.313L296.205 402.968C296.098 403.587 295.793 404.154 295.337 404.586L246.381 451.499L247.962 483.941C247.981 484.344 247.919 484.746 247.778 485.124C247.638 485.502 247.422 485.847 247.144 486.139C246.865 486.43 246.531 486.663 246.16 486.821C245.79 486.98 245.391 487.062 244.988 487.062ZM219.132 453.677L241.634 476.451L240.364 450.433C240.342 450.007 240.413 449.582 240.57 449.186C240.728 448.79 240.969 448.433 241.277 448.139L290.515 400.956L299.608 350.744L206.649 317.937L195.124 327.267C194.668 327.635 194.114 327.862 193.53 327.917C192.946 327.973 192.359 327.855 191.842 327.578L175.744 318.959C175.39 318.77 175.078 318.511 174.827 318.199C174.576 317.886 174.391 317.526 174.282 317.141L167.675 293.696L152.008 294.1C150.795 294.115 149.975 293.6 149.415 292.716C148.854 291.833 148.798 290.719 149.271 289.784L162.949 262.623C163.185 262.151 163.543 261.751 163.985 261.464C164.427 261.177 164.938 261.012 165.465 260.987L179.922 260.289C180.38 260.262 180.838 260.344 181.259 260.527C181.68 260.71 182.052 260.99 182.345 261.344L188.35 268.469L190.126 260.888C190.297 260.155 190.74 259.513 191.365 259.091L250.801 219.159L249.684 204.466L222.322 214.742C221.827 214.926 221.291 214.976 220.771 214.887C220.25 214.797 219.762 214.571 219.357 214.232C218.952 213.893 218.644 213.452 218.467 212.955C218.29 212.457 218.248 211.921 218.347 211.402L221.498 194.714C221.612 194.109 221.91 193.555 222.351 193.127C222.792 192.698 223.355 192.417 223.963 192.321L250.532 188.161L243.419 182.393C210.063 190.883 180.622 209.288 158.172 235.698L151.843 247.878L143.847 290.683L187.9 334.946C188.793 335.844 189.023 337.21 188.469 338.348L178.861 358.142L212.929 396.295C213.352 396.765 213.612 397.359 213.672 397.988L219.132 453.677ZM282.488 201.86C282.017 201.862 281.552 201.751 281.133 201.537C280.713 201.322 280.351 201.01 280.077 200.626L269.876 186.52L254.126 181.557C253.553 181.375 253.048 181.024 252.678 180.55C252.308 180.076 252.09 179.502 252.052 178.902C252.014 178.302 252.158 177.705 252.466 177.188C252.773 176.671 253.23 176.26 253.775 176.007L259.936 173.18C260.2 173.057 260.482 172.975 260.772 172.937C271.139 171.517 281.612 171.022 292.066 171.458C292.788 171.488 293.477 171.778 294.001 172.278L305.05 182.821C305.399 183.154 305.663 183.568 305.817 184.026C305.971 184.484 306.011 184.972 305.934 185.45C305.857 185.927 305.666 186.378 305.375 186.764C305.085 187.15 304.705 187.46 304.268 187.667L294.121 192.483L284.474 201.102C283.929 201.592 283.221 201.861 282.488 201.86ZM264.24 178.499L272.608 181.135C273.221 181.325 273.755 181.71 274.129 182.231L282.971 194.462L290.473 187.757C290.685 187.567 290.923 187.409 291.18 187.286L297.799 184.145L290.701 177.37C281.864 177.03 273.015 177.408 264.24 178.499Z" fill="#232E38"/>
<path d="M56.7976 186.726C56.7261 185.615 56.6892 184.501 56.6867 183.387C56.6867 153.32 81.078 128.929 111.136 128.929C139.702 128.929 163.108 150.924 165.393 178.894C168.221 178.026 171.198 177.553 174.3 177.559C182.297 177.553 189.545 180.673 194.954 185.753C198.006 181.307 202.095 177.672 206.867 175.161C211.639 172.65 216.951 171.339 222.343 171.341C239.999 171.347 254.429 185.109 255.51 202.495C257.118 202.031 258.784 201.794 260.458 201.791C262.851 201.747 265.23 202.181 267.454 203.067C269.678 203.953 271.704 205.273 273.412 206.951C275.12 208.628 276.477 210.629 277.404 212.837C278.33 215.045 278.807 217.415 278.807 219.809C278.807 222.203 278.33 224.573 277.404 226.781C276.477 228.989 275.12 230.99 273.412 232.667C271.704 234.345 269.678 235.665 267.454 236.551C265.23 237.437 262.851 237.871 260.458 237.827H59.9243C53.3864 237.839 47.0908 235.353 42.3246 230.878C37.5584 226.403 34.6816 220.276 34.2823 213.75C33.883 207.224 35.9913 200.792 40.1764 195.769C44.3614 190.746 50.3069 187.512 56.7976 186.726Z" fill="white"/>
<path d="M260.472 240.807H59.9241C44.1375 240.807 31.2949 227.964 31.2949 212.178C31.2958 205.664 33.5177 199.345 37.5939 194.264C41.6701 189.184 47.3568 185.645 53.7155 184.231C53.7095 183.95 53.7095 183.668 53.7095 183.387C53.7095 151.715 79.4695 125.952 111.136 125.952C139.639 125.952 163.955 147.309 167.972 175.184C172.582 174.299 177.327 174.4 181.896 175.478C186.464 176.557 190.753 178.59 194.48 181.443C197.879 177.351 202.138 174.057 206.953 171.797C211.769 169.536 217.023 168.364 222.343 168.364C240.286 168.37 255.39 181.554 258.115 198.946C270.521 197.547 281.449 207.452 281.461 219.812C281.461 231.391 272.045 240.807 260.472 240.807ZM111.136 131.906C82.755 131.906 59.6636 155 59.6636 183.384C59.6636 184.444 59.7055 185.489 59.7714 186.544C59.818 187.303 59.5725 188.05 59.0852 188.634C58.5979 189.218 57.9058 189.593 57.1508 189.682C45.8087 191.054 37.252 200.725 37.252 212.178C37.252 224.679 47.423 234.85 59.9241 234.85H260.472C264.458 234.845 268.28 233.26 271.098 230.441C273.917 227.623 275.502 223.801 275.507 219.815C275.498 215.828 273.909 212.006 271.089 209.187C268.27 206.368 264.448 204.78 260.46 204.771C259.092 204.771 257.702 204.969 256.33 205.361C255.902 205.482 255.452 205.506 255.013 205.431C254.574 205.355 254.158 205.183 253.795 204.926C253.431 204.669 253.13 204.334 252.912 203.946C252.695 203.557 252.567 203.125 252.539 202.681C251.547 186.783 238.285 174.327 222.346 174.318C217.438 174.32 212.603 175.515 208.259 177.8C203.915 180.085 200.192 183.392 197.41 187.436C197.167 187.79 196.85 188.087 196.481 188.306C196.113 188.526 195.701 188.663 195.274 188.709C194.847 188.759 194.414 188.713 194.006 188.577C193.598 188.44 193.225 188.215 192.914 187.918C187.888 183.175 181.238 180.533 174.327 180.533C171.548 180.533 168.864 180.94 166.271 181.737C165.845 181.868 165.395 181.901 164.954 181.835C164.514 181.77 164.094 181.606 163.725 181.356C163.356 181.106 163.047 180.777 162.822 180.393C162.598 180.008 162.462 179.578 162.425 179.134C160.26 152.652 137.731 131.906 111.136 131.906Z" fill="#232E38"/>
</g>
<defs>
<clipPath id="clip0_1498_18533">
<rect width="599" height="599" fill="white"/>
</clipPath>
</defs>
</svg>
